<mxfile host="app.diagrams.net" modified="2022-04-18T21:51:16.422Z" agent="5.0 (Windows NT 10.0; Win64; x64) AppleWebKit/537.36 (KHTML, like Gecko) Chrome/100.0.4896.88 Safari/537.36" etag="49hh4_VklLeY7y4e4doY" version="17.4.5" type="github" pages="3">
  <diagram id="k2JUfgEphU9K_YTLyLhj" name="Page-1">
    <mxGraphModel dx="1247" dy="637" grid="1" gridSize="10" guides="1" tooltips="1" connect="1" arrows="1" fold="1" page="1" pageScale="1" pageWidth="827" pageHeight="1169" math="0" shadow="0">
      <root>
        <mxCell id="0" />
        <mxCell id="1" parent="0" />
        <mxCell id="YoS9NdMaz8Q-m_SnrvrS-16" style="edgeStyle=orthogonalEdgeStyle;rounded=0;orthogonalLoop=1;jettySize=auto;html=1;exitX=0.009;exitY=0.348;exitDx=0;exitDy=0;entryX=1;entryY=0.5;entryDx=0;entryDy=0;exitPerimeter=0;" parent="1" source="YoS9NdMaz8Q-m_SnrvrS-1" target="YoS9NdMaz8Q-m_SnrvrS-6" edge="1">
          <mxGeometry relative="1" as="geometry" />
        </mxCell>
        <mxCell id="YoS9NdMaz8Q-m_SnrvrS-17" value="password reset request {email}" style="edgeLabel;html=1;align=center;verticalAlign=middle;resizable=0;points=[];" parent="YoS9NdMaz8Q-m_SnrvrS-16" vertex="1" connectable="0">
          <mxGeometry x="0.3561" y="-1" relative="1" as="geometry">
            <mxPoint x="39" y="1" as="offset" />
          </mxGeometry>
        </mxCell>
        <mxCell id="YoS9NdMaz8Q-m_SnrvrS-1" value="Pocket Karaoke Application" style="ellipse;whiteSpace=wrap;html=1;aspect=fixed;" parent="1" vertex="1">
          <mxGeometry x="358" y="345" width="115" height="115" as="geometry" />
        </mxCell>
        <mxCell id="YoS9NdMaz8Q-m_SnrvrS-2" value="&lt;div align=&quot;left&quot;&gt;&lt;u&gt;&lt;b&gt;&lt;font style=&quot;font-size: 17px&quot;&gt;&lt;br&gt;&lt;/font&gt;&lt;/b&gt;&lt;/u&gt;&lt;/div&gt;&lt;div align=&quot;left&quot;&gt;&lt;u&gt;&lt;b&gt;&lt;font style=&quot;font-size: 17px&quot;&gt;&lt;br&gt;&lt;/font&gt;&lt;/b&gt;&lt;/u&gt;&lt;/div&gt;&lt;div align=&quot;left&quot;&gt;&lt;u&gt;&lt;b&gt;&lt;font style=&quot;font-size: 17px&quot;&gt;&lt;/font&gt;&lt;/b&gt;&lt;/u&gt;&lt;b&gt;&lt;font style=&quot;font-size: 17px&quot;&gt;&lt;span style=&quot;white-space: pre&quot;&gt;&lt;span style=&quot;white-space: pre&quot;&gt; &lt;/span&gt; &lt;/span&gt;&lt;/font&gt;&lt;/b&gt;&lt;u&gt;&lt;b&gt;&lt;font style=&quot;font-size: 17px&quot;&gt;Data Flow Diagram&lt;/font&gt;&lt;/b&gt;&lt;/u&gt;&lt;/div&gt;&lt;div align=&quot;left&quot;&gt;&lt;u&gt;&lt;b&gt;&lt;font style=&quot;font-size: 17px&quot;&gt;&lt;/font&gt;&lt;/b&gt;&lt;/u&gt;&lt;b&gt;&lt;font style=&quot;font-size: 17px&quot;&gt;&lt;span style=&quot;white-space: pre&quot;&gt;&lt;span style=&quot;white-space: pre&quot;&gt; &lt;/span&gt; &lt;/span&gt;&lt;/font&gt;&lt;/b&gt;&lt;u&gt;&lt;b&gt;&lt;font style=&quot;font-size: 17px&quot;&gt;for PocketKaraoke&lt;/font&gt;&lt;/b&gt;&lt;/u&gt;&lt;/div&gt;&lt;div align=&quot;left&quot;&gt;&lt;br&gt;&lt;/div&gt;&lt;div align=&quot;left&quot;&gt;&lt;br&gt;&lt;/div&gt;&lt;div align=&quot;left&quot;&gt;&lt;br&gt;&lt;/div&gt;" style="rounded=0;whiteSpace=wrap;html=1;fontSize=9;fillColor=none;align=left;" parent="1" vertex="1">
          <mxGeometry x="8" y="10" width="802" height="120" as="geometry" />
        </mxCell>
        <mxCell id="YoS9NdMaz8Q-m_SnrvrS-3" value="&lt;table dir=&quot;ltr&quot; style=&quot;table-layout: fixed ; font-size: 10pt ; font-family: &amp;quot;arial&amp;quot; ; width: 0px ; border-collapse: collapse ; border: none&quot; cellspacing=&quot;0&quot; cellpadding=&quot;0&quot; border=&quot;1&quot;&gt;&lt;colgroup&gt;&lt;col width=&quot;98&quot;&gt;&lt;col width=&quot;235&quot;&gt;&lt;col width=&quot;143&quot;&gt;&lt;/colgroup&gt;&lt;tbody&gt;&lt;tr style=&quot;height: 21px&quot;&gt;&lt;td style=&quot;border-color: rgb(0, 0, 0); border-style: solid; border-width: 1px; overflow: hidden; padding: 0px 3px; vertical-align: middle; font-size: 12pt; font-weight: bold; overflow-wrap: break-word; text-align: center;&quot; rowspan=&quot;3&quot; colspan=&quot;1&quot;&gt;&lt;span&gt;&lt;div style=&quot;max-height: 63px&quot;&gt;9&lt;/div&gt;&lt;/span&gt;&lt;/td&gt;&lt;td style=&quot;border-top: 1px solid rgb(0, 0, 0); border-right: 1px solid rgb(0, 0, 0); border-bottom: 1px solid rgb(0, 0, 0); overflow: hidden; padding: 0px 3px; vertical-align: bottom; overflow-wrap: break-word;&quot;&gt;Md. Fuad Hasan&lt;/td&gt;&lt;td style=&quot;border-top: 1px solid rgb(0, 0, 0); border-right: 1px solid rgb(0, 0, 0); border-bottom: 1px solid rgb(0, 0, 0); overflow: hidden; padding: 0px 3px; vertical-align: bottom; overflow-wrap: break-word; text-align: center;&quot;&gt;20101345&lt;/td&gt;&lt;/tr&gt;&lt;tr style=&quot;height: 21px&quot;&gt;&lt;td style=&quot;border-right: 1px solid rgb(0, 0, 0); border-bottom: 1px solid rgb(0, 0, 0); overflow: hidden; padding: 0px 3px; vertical-align: bottom; overflow-wrap: break-word;&quot;&gt;Ahmed Awsaf Chowdhury&lt;/td&gt;&lt;td style=&quot;border-right: 1px solid rgb(0, 0, 0); border-bottom: 1px solid rgb(0, 0, 0); overflow: hidden; padding: 0px 3px; vertical-align: bottom; overflow-wrap: break-word; text-align: center;&quot;&gt;20101344&lt;/td&gt;&lt;/tr&gt;&lt;tr style=&quot;height: 21px&quot;&gt;&lt;td style=&quot;border-right: 1px solid rgb(0, 0, 0); border-bottom: 1px solid rgb(0, 0, 0); overflow: hidden; padding: 0px 3px; vertical-align: bottom; overflow-wrap: break-word;&quot;&gt;Shariful Islam&lt;/td&gt;&lt;td style=&quot;border-right: 1px solid rgb(0, 0, 0); border-bottom: 1px solid rgb(0, 0, 0); overflow: hidden; padding: 0px 3px; vertical-align: bottom; overflow-wrap: break-word; text-align: center;&quot;&gt;19201053&lt;/td&gt;&lt;/tr&gt;&lt;/tbody&gt;&lt;/table&gt;" style="text;whiteSpace=wrap;html=1;" parent="1" vertex="1">
          <mxGeometry x="320.00000000000006" y="10" width="476.43" height="80" as="geometry" />
        </mxCell>
        <mxCell id="YoS9NdMaz8Q-m_SnrvrS-6" value="Firebase" style="rounded=0;whiteSpace=wrap;html=1;" parent="1" vertex="1">
          <mxGeometry x="19" y="360" width="90" height="50" as="geometry" />
        </mxCell>
        <mxCell id="YoS9NdMaz8Q-m_SnrvrS-8" value="Bkash" style="rounded=0;whiteSpace=wrap;html=1;" parent="1" vertex="1">
          <mxGeometry x="370.5" y="600" width="90" height="50" as="geometry" />
        </mxCell>
        <mxCell id="YoS9NdMaz8Q-m_SnrvrS-9" value="Google Pay" style="rounded=0;whiteSpace=wrap;html=1;" parent="1" vertex="1">
          <mxGeometry x="489.00000000000006" y="600" width="90" height="50" as="geometry" />
        </mxCell>
        <mxCell id="YoS9NdMaz8Q-m_SnrvrS-10" value="Remote&lt;br&gt;connection" style="rounded=0;whiteSpace=wrap;html=1;" parent="1" vertex="1">
          <mxGeometry x="389" y="150" width="90" height="50" as="geometry" />
        </mxCell>
        <mxCell id="YoS9NdMaz8Q-m_SnrvrS-11" value="Tournament&lt;br&gt;Server" style="rounded=0;whiteSpace=wrap;html=1;" parent="1" vertex="1">
          <mxGeometry x="709" y="370" width="90" height="50" as="geometry" />
        </mxCell>
        <mxCell id="YoS9NdMaz8Q-m_SnrvrS-18" style="edgeStyle=orthogonalEdgeStyle;rounded=0;orthogonalLoop=1;jettySize=auto;html=1;exitX=1;exitY=0.75;exitDx=0;exitDy=0;entryX=-0.009;entryY=0.465;entryDx=0;entryDy=0;entryPerimeter=0;" parent="1" source="YoS9NdMaz8Q-m_SnrvrS-6" target="YoS9NdMaz8Q-m_SnrvrS-1" edge="1">
          <mxGeometry relative="1" as="geometry">
            <mxPoint x="90" y="470" as="sourcePoint" />
            <mxPoint x="339" y="470" as="targetPoint" />
            <Array as="points">
              <mxPoint x="234" y="398" />
            </Array>
          </mxGeometry>
        </mxCell>
        <mxCell id="YoS9NdMaz8Q-m_SnrvrS-20" value="pass reset request result" style="edgeLabel;html=1;align=center;verticalAlign=middle;resizable=0;points=[];" parent="YoS9NdMaz8Q-m_SnrvrS-18" vertex="1" connectable="0">
          <mxGeometry x="-0.1935" y="-1" relative="1" as="geometry">
            <mxPoint x="9" as="offset" />
          </mxGeometry>
        </mxCell>
        <mxCell id="YoS9NdMaz8Q-m_SnrvrS-21" style="edgeStyle=orthogonalEdgeStyle;rounded=0;orthogonalLoop=1;jettySize=auto;html=1;exitX=0.5;exitY=0;exitDx=0;exitDy=0;entryX=0.433;entryY=0.02;entryDx=0;entryDy=0;entryPerimeter=0;" parent="1" source="YoS9NdMaz8Q-m_SnrvrS-1" target="YoS9NdMaz8Q-m_SnrvrS-6" edge="1">
          <mxGeometry relative="1" as="geometry">
            <mxPoint x="368" y="330" as="sourcePoint" />
            <mxPoint x="119" y="330" as="targetPoint" />
            <Array as="points">
              <mxPoint x="416" y="325" />
              <mxPoint x="58" y="325" />
            </Array>
          </mxGeometry>
        </mxCell>
        <mxCell id="YoS9NdMaz8Q-m_SnrvrS-25" value="login {email, password}" style="edgeLabel;html=1;align=center;verticalAlign=middle;resizable=0;points=[];" parent="YoS9NdMaz8Q-m_SnrvrS-21" vertex="1" connectable="0">
          <mxGeometry x="-0.085" relative="1" as="geometry">
            <mxPoint as="offset" />
          </mxGeometry>
        </mxCell>
        <mxCell id="YoS9NdMaz8Q-m_SnrvrS-26" style="edgeStyle=orthogonalEdgeStyle;rounded=0;orthogonalLoop=1;jettySize=auto;html=1;exitX=0.667;exitY=0;exitDx=0;exitDy=0;entryX=0.288;entryY=0.031;entryDx=0;entryDy=0;exitPerimeter=0;entryPerimeter=0;" parent="1" source="YoS9NdMaz8Q-m_SnrvrS-6" target="YoS9NdMaz8Q-m_SnrvrS-1" edge="1">
          <mxGeometry relative="1" as="geometry">
            <mxPoint x="378" y="260" as="sourcePoint" />
            <mxPoint x="129" y="260" as="targetPoint" />
            <Array as="points">
              <mxPoint x="79" y="347" />
              <mxPoint x="234" y="347" />
            </Array>
          </mxGeometry>
        </mxCell>
        <mxCell id="YoS9NdMaz8Q-m_SnrvrS-27" value="login request result" style="edgeLabel;html=1;align=center;verticalAlign=middle;resizable=0;points=[];" parent="YoS9NdMaz8Q-m_SnrvrS-26" vertex="1" connectable="0">
          <mxGeometry x="-0.016" relative="1" as="geometry">
            <mxPoint as="offset" />
          </mxGeometry>
        </mxCell>
        <mxCell id="YoS9NdMaz8Q-m_SnrvrS-32" style="edgeStyle=orthogonalEdgeStyle;rounded=0;orthogonalLoop=1;jettySize=auto;html=1;entryX=0.444;entryY=1;entryDx=0;entryDy=0;entryPerimeter=0;" parent="1" target="YoS9NdMaz8Q-m_SnrvrS-6" edge="1">
          <mxGeometry relative="1" as="geometry">
            <mxPoint x="398" y="460" as="sourcePoint" />
            <mxPoint x="69" y="490" as="targetPoint" />
            <Array as="points">
              <mxPoint x="398" y="459" />
              <mxPoint x="398" y="470" />
              <mxPoint x="59" y="470" />
            </Array>
          </mxGeometry>
        </mxCell>
        <mxCell id="YoS9NdMaz8Q-m_SnrvrS-33" value="signup {email, password, age, explicit preference}" style="edgeLabel;html=1;align=center;verticalAlign=middle;resizable=0;points=[];" parent="YoS9NdMaz8Q-m_SnrvrS-32" vertex="1" connectable="0">
          <mxGeometry x="-0.0863" y="2" relative="1" as="geometry">
            <mxPoint as="offset" />
          </mxGeometry>
        </mxCell>
        <mxCell id="YoS9NdMaz8Q-m_SnrvrS-34" style="edgeStyle=orthogonalEdgeStyle;rounded=0;orthogonalLoop=1;jettySize=auto;html=1;exitX=0.564;exitY=0.992;exitDx=0;exitDy=0;entryX=0.27;entryY=0.913;entryDx=0;entryDy=0;exitPerimeter=0;entryPerimeter=0;" parent="1" source="YoS9NdMaz8Q-m_SnrvrS-6" target="YoS9NdMaz8Q-m_SnrvrS-1" edge="1">
          <mxGeometry relative="1" as="geometry">
            <mxPoint x="79.02999999999997" y="463" as="sourcePoint" />
            <mxPoint x="381.03999999999996" y="450.48000000000025" as="targetPoint" />
            <Array as="points">
              <mxPoint x="70" y="450" />
            </Array>
          </mxGeometry>
        </mxCell>
        <mxCell id="YoS9NdMaz8Q-m_SnrvrS-35" value="signup request result" style="edgeLabel;html=1;align=center;verticalAlign=middle;resizable=0;points=[];" parent="YoS9NdMaz8Q-m_SnrvrS-34" vertex="1" connectable="0">
          <mxGeometry x="-0.016" relative="1" as="geometry">
            <mxPoint as="offset" />
          </mxGeometry>
        </mxCell>
        <mxCell id="YoS9NdMaz8Q-m_SnrvrS-36" style="edgeStyle=orthogonalEdgeStyle;rounded=0;orthogonalLoop=1;jettySize=auto;html=1;exitX=0.429;exitY=1.006;exitDx=0;exitDy=0;entryX=0.25;entryY=1;entryDx=0;entryDy=0;exitPerimeter=0;" parent="1" source="YoS9NdMaz8Q-m_SnrvrS-1" target="YoS9NdMaz8Q-m_SnrvrS-6" edge="1">
          <mxGeometry relative="1" as="geometry">
            <mxPoint x="398.04" y="495" as="sourcePoint" />
            <mxPoint x="59.00000000000003" y="480" as="targetPoint" />
            <Array as="points">
              <mxPoint x="407" y="490" />
              <mxPoint x="42" y="490" />
            </Array>
          </mxGeometry>
        </mxCell>
        <mxCell id="YoS9NdMaz8Q-m_SnrvrS-37" value="verification {email}" style="edgeLabel;html=1;align=center;verticalAlign=middle;resizable=0;points=[];" parent="YoS9NdMaz8Q-m_SnrvrS-36" vertex="1" connectable="0">
          <mxGeometry x="-0.0863" y="2" relative="1" as="geometry">
            <mxPoint as="offset" />
          </mxGeometry>
        </mxCell>
        <mxCell id="YoS9NdMaz8Q-m_SnrvrS-38" style="edgeStyle=orthogonalEdgeStyle;rounded=0;orthogonalLoop=1;jettySize=auto;html=1;exitX=0.098;exitY=1.031;exitDx=0;exitDy=0;entryX=0.563;entryY=1.011;entryDx=0;entryDy=0;exitPerimeter=0;entryPerimeter=0;" parent="1" source="YoS9NdMaz8Q-m_SnrvrS-6" target="YoS9NdMaz8Q-m_SnrvrS-1" edge="1">
          <mxGeometry relative="1" as="geometry">
            <mxPoint x="28.559999999999988" y="480.0000000000001" as="sourcePoint" />
            <mxPoint x="348.96" y="493.7199999999999" as="targetPoint" />
            <Array as="points">
              <mxPoint x="28" y="510" />
              <mxPoint x="423" y="510" />
            </Array>
          </mxGeometry>
        </mxCell>
        <mxCell id="YoS9NdMaz8Q-m_SnrvrS-39" value="verification result" style="edgeLabel;html=1;align=center;verticalAlign=middle;resizable=0;points=[];" parent="YoS9NdMaz8Q-m_SnrvrS-38" vertex="1" connectable="0">
          <mxGeometry x="-0.016" relative="1" as="geometry">
            <mxPoint x="36" as="offset" />
          </mxGeometry>
        </mxCell>
        <mxCell id="YoS9NdMaz8Q-m_SnrvrS-40" style="edgeStyle=orthogonalEdgeStyle;rounded=0;orthogonalLoop=1;jettySize=auto;html=1;exitX=0.667;exitY=0.976;exitDx=0;exitDy=0;exitPerimeter=0;entryX=0.712;entryY=-0.04;entryDx=0;entryDy=0;entryPerimeter=0;" parent="1" source="YoS9NdMaz8Q-m_SnrvrS-1" target="YoS9NdMaz8Q-m_SnrvrS-8" edge="1">
          <mxGeometry relative="1" as="geometry">
            <mxPoint x="448.99" y="580" as="sourcePoint" />
            <mxPoint x="199" y="560" as="targetPoint" />
            <Array as="points" />
          </mxGeometry>
        </mxCell>
        <mxCell id="YoS9NdMaz8Q-m_SnrvrS-41" value="purchase request" style="edgeLabel;html=1;align=center;verticalAlign=middle;resizable=0;points=[];rotation=90;" parent="YoS9NdMaz8Q-m_SnrvrS-40" vertex="1" connectable="0">
          <mxGeometry x="-0.085" relative="1" as="geometry">
            <mxPoint as="offset" />
          </mxGeometry>
        </mxCell>
        <mxCell id="YoS9NdMaz8Q-m_SnrvrS-44" style="edgeStyle=orthogonalEdgeStyle;rounded=0;orthogonalLoop=1;jettySize=auto;html=1;exitX=0.903;exitY=-0.04;exitDx=0;exitDy=0;exitPerimeter=0;entryX=0.812;entryY=0.885;entryDx=0;entryDy=0;entryPerimeter=0;" parent="1" source="YoS9NdMaz8Q-m_SnrvrS-8" target="YoS9NdMaz8Q-m_SnrvrS-1" edge="1">
          <mxGeometry relative="1" as="geometry">
            <mxPoint x="444.70500000000004" y="467.24" as="sourcePoint" />
            <mxPoint x="444.58000000000004" y="648" as="targetPoint" />
            <Array as="points" />
          </mxGeometry>
        </mxCell>
        <mxCell id="YoS9NdMaz8Q-m_SnrvrS-45" value="purchase result" style="edgeLabel;html=1;align=center;verticalAlign=middle;resizable=0;points=[];rotation=90;" parent="YoS9NdMaz8Q-m_SnrvrS-44" vertex="1" connectable="0">
          <mxGeometry x="-0.085" relative="1" as="geometry">
            <mxPoint as="offset" />
          </mxGeometry>
        </mxCell>
        <mxCell id="YoS9NdMaz8Q-m_SnrvrS-46" style="edgeStyle=orthogonalEdgeStyle;rounded=0;orthogonalLoop=1;jettySize=auto;html=1;exitX=0.914;exitY=0.824;exitDx=0;exitDy=0;exitPerimeter=0;entryX=0.213;entryY=-0.008;entryDx=0;entryDy=0;entryPerimeter=0;" parent="1" source="YoS9NdMaz8Q-m_SnrvrS-1" target="YoS9NdMaz8Q-m_SnrvrS-9" edge="1">
          <mxGeometry relative="1" as="geometry">
            <mxPoint x="539.045" y="460" as="sourcePoint" />
            <mxPoint x="538.92" y="640.76" as="targetPoint" />
            <Array as="points">
              <mxPoint x="463" y="590" />
              <mxPoint x="508" y="590" />
            </Array>
          </mxGeometry>
        </mxCell>
        <mxCell id="YoS9NdMaz8Q-m_SnrvrS-47" value="purchase request" style="edgeLabel;html=1;align=center;verticalAlign=middle;resizable=0;points=[];rotation=90;" parent="YoS9NdMaz8Q-m_SnrvrS-46" vertex="1" connectable="0">
          <mxGeometry x="-0.085" relative="1" as="geometry">
            <mxPoint y="-8" as="offset" />
          </mxGeometry>
        </mxCell>
        <mxCell id="YoS9NdMaz8Q-m_SnrvrS-48" style="edgeStyle=orthogonalEdgeStyle;rounded=0;orthogonalLoop=1;jettySize=auto;html=1;exitX=0.4;exitY=-0.02;exitDx=0;exitDy=0;exitPerimeter=0;" parent="1" source="YoS9NdMaz8Q-m_SnrvrS-9" edge="1">
          <mxGeometry relative="1" as="geometry">
            <mxPoint x="592.21" y="651.22" as="sourcePoint" />
            <mxPoint x="469" y="430" as="targetPoint" />
            <Array as="points">
              <mxPoint x="525" y="570" />
              <mxPoint x="479" y="570" />
              <mxPoint x="479" y="430" />
            </Array>
          </mxGeometry>
        </mxCell>
        <mxCell id="YoS9NdMaz8Q-m_SnrvrS-49" value="purchase result" style="edgeLabel;html=1;align=center;verticalAlign=middle;resizable=0;points=[];rotation=90;" parent="YoS9NdMaz8Q-m_SnrvrS-48" vertex="1" connectable="0">
          <mxGeometry x="-0.085" relative="1" as="geometry">
            <mxPoint y="-27" as="offset" />
          </mxGeometry>
        </mxCell>
        <mxCell id="YoS9NdMaz8Q-m_SnrvrS-52" style="edgeStyle=orthogonalEdgeStyle;rounded=0;orthogonalLoop=1;jettySize=auto;html=1;exitX=0.613;exitY=0.007;exitDx=0;exitDy=0;entryX=0.43;entryY=1.033;entryDx=0;entryDy=0;entryPerimeter=0;exitPerimeter=0;" parent="1" source="YoS9NdMaz8Q-m_SnrvrS-1" target="YoS9NdMaz8Q-m_SnrvrS-10" edge="1">
          <mxGeometry relative="1" as="geometry">
            <mxPoint x="571.99" y="390.94000000000005" as="sourcePoint" />
            <mxPoint x="529.0049999999999" y="150.00500000000005" as="targetPoint" />
          </mxGeometry>
        </mxCell>
        <mxCell id="YoS9NdMaz8Q-m_SnrvrS-53" value="challenge request (host)" style="edgeLabel;html=1;align=center;verticalAlign=middle;resizable=0;points=[];rotation=90;" parent="YoS9NdMaz8Q-m_SnrvrS-52" vertex="1" connectable="0">
          <mxGeometry x="-0.085" relative="1" as="geometry">
            <mxPoint as="offset" />
          </mxGeometry>
        </mxCell>
        <mxCell id="YoS9NdMaz8Q-m_SnrvrS-54" style="edgeStyle=orthogonalEdgeStyle;rounded=0;orthogonalLoop=1;jettySize=auto;html=1;entryX=0.704;entryY=0.043;entryDx=0;entryDy=0;exitX=0.552;exitY=1.014;exitDx=0;exitDy=0;exitPerimeter=0;entryPerimeter=0;" parent="1" source="YoS9NdMaz8Q-m_SnrvrS-10" target="YoS9NdMaz8Q-m_SnrvrS-1" edge="1">
          <mxGeometry relative="1" as="geometry">
            <mxPoint x="459" y="201" as="sourcePoint" />
            <mxPoint x="457.34000000000003" y="348.2450000000001" as="targetPoint" />
            <Array as="points">
              <mxPoint x="439" y="201" />
            </Array>
          </mxGeometry>
        </mxCell>
        <mxCell id="YoS9NdMaz8Q-m_SnrvrS-55" value="challenge request (guest)" style="edgeLabel;html=1;align=center;verticalAlign=middle;resizable=0;points=[];rotation=90;" parent="YoS9NdMaz8Q-m_SnrvrS-54" vertex="1" connectable="0">
          <mxGeometry x="-0.085" relative="1" as="geometry">
            <mxPoint as="offset" />
          </mxGeometry>
        </mxCell>
        <mxCell id="YoS9NdMaz8Q-m_SnrvrS-56" style="edgeStyle=orthogonalEdgeStyle;rounded=0;orthogonalLoop=1;jettySize=auto;html=1;exitX=0.812;exitY=1.014;exitDx=0;exitDy=0;exitPerimeter=0;entryX=0.905;entryY=0.185;entryDx=0;entryDy=0;entryPerimeter=0;" parent="1" source="YoS9NdMaz8Q-m_SnrvrS-10" target="YoS9NdMaz8Q-m_SnrvrS-1" edge="1">
          <mxGeometry relative="1" as="geometry">
            <mxPoint x="462.78999999999996" y="209.9999999999999" as="sourcePoint" />
            <mxPoint x="463" y="360" as="targetPoint" />
            <Array as="points" />
          </mxGeometry>
        </mxCell>
        <mxCell id="YoS9NdMaz8Q-m_SnrvrS-57" value="challenge result (guest)" style="edgeLabel;html=1;align=center;verticalAlign=middle;resizable=0;points=[];rotation=90;" parent="YoS9NdMaz8Q-m_SnrvrS-56" vertex="1" connectable="0">
          <mxGeometry x="-0.085" relative="1" as="geometry">
            <mxPoint as="offset" />
          </mxGeometry>
        </mxCell>
        <mxCell id="YoS9NdMaz8Q-m_SnrvrS-59" style="edgeStyle=orthogonalEdgeStyle;rounded=0;orthogonalLoop=1;jettySize=auto;html=1;exitX=0.988;exitY=0.337;exitDx=0;exitDy=0;exitPerimeter=0;entryX=0.922;entryY=1.025;entryDx=0;entryDy=0;entryPerimeter=0;" parent="1" source="YoS9NdMaz8Q-m_SnrvrS-1" target="YoS9NdMaz8Q-m_SnrvrS-10" edge="1">
          <mxGeometry relative="1" as="geometry">
            <mxPoint x="472.07500000000005" y="376.275" as="sourcePoint" />
            <mxPoint x="472.08000000000004" y="210.70000000000005" as="targetPoint" />
            <Array as="points" />
          </mxGeometry>
        </mxCell>
        <mxCell id="YoS9NdMaz8Q-m_SnrvrS-60" value="challenge result (host)" style="edgeLabel;html=1;align=center;verticalAlign=middle;resizable=0;points=[];rotation=90;" parent="YoS9NdMaz8Q-m_SnrvrS-59" vertex="1" connectable="0">
          <mxGeometry x="-0.085" relative="1" as="geometry">
            <mxPoint as="offset" />
          </mxGeometry>
        </mxCell>
        <mxCell id="YoS9NdMaz8Q-m_SnrvrS-63" style="edgeStyle=orthogonalEdgeStyle;rounded=0;orthogonalLoop=1;jettySize=auto;html=1;" parent="1" edge="1">
          <mxGeometry relative="1" as="geometry">
            <mxPoint x="473" y="390.28" as="sourcePoint" />
            <mxPoint x="709" y="380" as="targetPoint" />
            <Array as="points">
              <mxPoint x="489" y="390" />
              <mxPoint x="489" y="380" />
            </Array>
          </mxGeometry>
        </mxCell>
        <mxCell id="YoS9NdMaz8Q-m_SnrvrS-64" value="tournament id" style="edgeLabel;html=1;align=center;verticalAlign=middle;resizable=0;points=[];" parent="YoS9NdMaz8Q-m_SnrvrS-63" vertex="1" connectable="0">
          <mxGeometry x="-0.016" relative="1" as="geometry">
            <mxPoint x="36" as="offset" />
          </mxGeometry>
        </mxCell>
        <mxCell id="YoS9NdMaz8Q-m_SnrvrS-65" style="edgeStyle=orthogonalEdgeStyle;rounded=0;orthogonalLoop=1;jettySize=auto;html=1;" parent="1" edge="1">
          <mxGeometry relative="1" as="geometry">
            <mxPoint x="709" y="394.71000000000004" as="sourcePoint" />
            <mxPoint x="473" y="394.71000000000004" as="targetPoint" />
            <Array as="points">
              <mxPoint x="493" y="394.71000000000004" />
            </Array>
          </mxGeometry>
        </mxCell>
        <mxCell id="YoS9NdMaz8Q-m_SnrvrS-66" value="tournament info" style="edgeLabel;html=1;align=center;verticalAlign=middle;resizable=0;points=[];" parent="YoS9NdMaz8Q-m_SnrvrS-65" vertex="1" connectable="0">
          <mxGeometry x="-0.016" relative="1" as="geometry">
            <mxPoint x="36" as="offset" />
          </mxGeometry>
        </mxCell>
        <mxCell id="YoS9NdMaz8Q-m_SnrvrS-67" style="edgeStyle=orthogonalEdgeStyle;rounded=0;orthogonalLoop=1;jettySize=auto;html=1;exitX=0.997;exitY=0.553;exitDx=0;exitDy=0;exitPerimeter=0;" parent="1" edge="1">
          <mxGeometry relative="1" as="geometry">
            <mxPoint x="472.655" y="406.595" as="sourcePoint" />
            <mxPoint x="709" y="406" as="targetPoint" />
            <Array as="points">
              <mxPoint x="591" y="407" />
              <mxPoint x="709" y="406" />
            </Array>
          </mxGeometry>
        </mxCell>
        <mxCell id="YoS9NdMaz8Q-m_SnrvrS-68" value="karaoke result" style="edgeLabel;html=1;align=center;verticalAlign=middle;resizable=0;points=[];" parent="YoS9NdMaz8Q-m_SnrvrS-67" vertex="1" connectable="0">
          <mxGeometry x="-0.016" relative="1" as="geometry">
            <mxPoint x="36" as="offset" />
          </mxGeometry>
        </mxCell>
        <mxCell id="YoS9NdMaz8Q-m_SnrvrS-71" style="edgeStyle=orthogonalEdgeStyle;rounded=0;orthogonalLoop=1;jettySize=auto;html=1;exitX=0.996;exitY=0.6;exitDx=0;exitDy=0;exitPerimeter=0;entryX=0.001;entryY=0.879;entryDx=0;entryDy=0;entryPerimeter=0;" parent="1" edge="1">
          <mxGeometry relative="1" as="geometry">
            <mxPoint x="709.09" y="417.95000000000005" as="sourcePoint" />
            <mxPoint x="472.53999999999996" y="418" as="targetPoint" />
            <Array as="points" />
          </mxGeometry>
        </mxCell>
        <mxCell id="YoS9NdMaz8Q-m_SnrvrS-72" value="tournament result" style="edgeLabel;html=1;align=center;verticalAlign=middle;resizable=0;points=[];" parent="YoS9NdMaz8Q-m_SnrvrS-71" vertex="1" connectable="0">
          <mxGeometry x="-0.016" relative="1" as="geometry">
            <mxPoint x="36" as="offset" />
          </mxGeometry>
        </mxCell>
        <mxCell id="YoS9NdMaz8Q-m_SnrvrS-73" value="Fig: Context Diagram" style="text;html=1;strokeColor=none;fillColor=none;align=center;verticalAlign=middle;whiteSpace=wrap;rounded=0;fontStyle=1;fontSize=17;" parent="1" vertex="1">
          <mxGeometry x="294" y="1130" width="230" height="30" as="geometry" />
        </mxCell>
        <mxCell id="dhoHzv0NwORikuWzEQfn-1" value="0" style="rounded=0;whiteSpace=wrap;html=1;fontSize=17;" parent="1" vertex="1">
          <mxGeometry x="403" y="360" width="28.5" height="20" as="geometry" />
        </mxCell>
        <mxCell id="KiduQvNBwerXsva2SgYs-1" value="Pocket Karaoke Application" style="ellipse;whiteSpace=wrap;html=1;aspect=fixed;" vertex="1" parent="1">
          <mxGeometry x="134" y="810" width="115" height="115" as="geometry" />
        </mxCell>
        <mxCell id="KiduQvNBwerXsva2SgYs-2" value="0" style="rounded=0;whiteSpace=wrap;html=1;fontSize=17;" vertex="1" parent="1">
          <mxGeometry x="177.5" y="830" width="28.5" height="20" as="geometry" />
        </mxCell>
        <mxCell id="LRoTDCk1tIKlJPt6JcPy-1" value="User" style="rounded=0;whiteSpace=wrap;html=1;" vertex="1" parent="1">
          <mxGeometry x="644" y="830" width="90" height="50" as="geometry" />
        </mxCell>
        <mxCell id="LRoTDCk1tIKlJPt6JcPy-3" value="" style="endArrow=classic;html=1;rounded=0;exitX=0.813;exitY=-0.027;exitDx=0;exitDy=0;entryX=0.308;entryY=0.026;entryDx=0;entryDy=0;exitPerimeter=0;entryPerimeter=0;" edge="1" parent="1" source="LRoTDCk1tIKlJPt6JcPy-1" target="KiduQvNBwerXsva2SgYs-1">
          <mxGeometry width="50" height="50" relative="1" as="geometry">
            <mxPoint x="384" y="830" as="sourcePoint" />
            <mxPoint x="434" y="780" as="targetPoint" />
            <Array as="points">
              <mxPoint x="660" y="670" />
              <mxPoint x="310" y="670" />
            </Array>
          </mxGeometry>
        </mxCell>
        <mxCell id="LRoTDCk1tIKlJPt6JcPy-4" value="login {email, password}" style="edgeLabel;html=1;align=center;verticalAlign=middle;resizable=0;points=[];" vertex="1" connectable="0" parent="LRoTDCk1tIKlJPt6JcPy-3">
          <mxGeometry x="0.118" y="1" relative="1" as="geometry">
            <mxPoint as="offset" />
          </mxGeometry>
        </mxCell>
        <mxCell id="LRoTDCk1tIKlJPt6JcPy-6" value="" style="endArrow=classic;html=1;rounded=0;exitX=0.652;exitY=0.028;exitDx=0;exitDy=0;entryX=0.467;entryY=-0.029;entryDx=0;entryDy=0;exitPerimeter=0;entryPerimeter=0;" edge="1" parent="1" source="LRoTDCk1tIKlJPt6JcPy-1" target="KiduQvNBwerXsva2SgYs-1">
          <mxGeometry width="50" height="50" relative="1" as="geometry">
            <mxPoint x="699" y="840" as="sourcePoint" />
            <mxPoint x="201.5" y="820" as="targetPoint" />
            <Array as="points">
              <mxPoint x="650" y="690" />
              <mxPoint x="320" y="690" />
            </Array>
          </mxGeometry>
        </mxCell>
        <mxCell id="LRoTDCk1tIKlJPt6JcPy-7" value="password reset request {email}" style="edgeLabel;html=1;align=center;verticalAlign=middle;resizable=0;points=[];" vertex="1" connectable="0" parent="LRoTDCk1tIKlJPt6JcPy-6">
          <mxGeometry x="0.118" y="1" relative="1" as="geometry">
            <mxPoint as="offset" />
          </mxGeometry>
        </mxCell>
        <mxCell id="Y_N9zi4qX5FCF4y502j4-1" value="" style="endArrow=classic;html=1;rounded=0;exitX=0.5;exitY=0;exitDx=0;exitDy=0;entryX=0.596;entryY=-0.014;entryDx=0;entryDy=0;entryPerimeter=0;" edge="1" parent="1" source="LRoTDCk1tIKlJPt6JcPy-1" target="KiduQvNBwerXsva2SgYs-1">
          <mxGeometry width="50" height="50" relative="1" as="geometry">
            <mxPoint x="684.96" y="839" as="sourcePoint" />
            <mxPoint x="230" y="820" as="targetPoint" />
            <Array as="points">
              <mxPoint x="640" y="710" />
              <mxPoint x="320" y="710" />
            </Array>
          </mxGeometry>
        </mxCell>
        <mxCell id="Y_N9zi4qX5FCF4y502j4-2" value="signup {email, password, age, explicit preference}" style="edgeLabel;html=1;align=center;verticalAlign=middle;resizable=0;points=[];" vertex="1" connectable="0" parent="Y_N9zi4qX5FCF4y502j4-1">
          <mxGeometry x="0.118" y="1" relative="1" as="geometry">
            <mxPoint x="41" as="offset" />
          </mxGeometry>
        </mxCell>
        <mxCell id="Y_N9zi4qX5FCF4y502j4-5" value="" style="endArrow=classic;html=1;rounded=0;exitX=0.4;exitY=0;exitDx=0;exitDy=0;exitPerimeter=0;entryX=0.696;entryY=0.016;entryDx=0;entryDy=0;entryPerimeter=0;" edge="1" parent="1" source="LRoTDCk1tIKlJPt6JcPy-1" target="KiduQvNBwerXsva2SgYs-1">
          <mxGeometry width="50" height="50" relative="1" as="geometry">
            <mxPoint x="640" y="860" as="sourcePoint" />
            <mxPoint x="250" y="850" as="targetPoint" />
            <Array as="points">
              <mxPoint x="630" y="730" />
              <mxPoint x="330" y="730" />
            </Array>
          </mxGeometry>
        </mxCell>
        <mxCell id="Y_N9zi4qX5FCF4y502j4-6" value="tournament id" style="edgeLabel;html=1;align=center;verticalAlign=middle;resizable=0;points=[];" vertex="1" connectable="0" parent="Y_N9zi4qX5FCF4y502j4-5">
          <mxGeometry x="0.118" y="1" relative="1" as="geometry">
            <mxPoint as="offset" />
          </mxGeometry>
        </mxCell>
        <mxCell id="Y_N9zi4qX5FCF4y502j4-7" value="" style="endArrow=classic;html=1;rounded=0;exitX=-0.022;exitY=0.111;exitDx=0;exitDy=0;exitPerimeter=0;" edge="1" parent="1" source="LRoTDCk1tIKlJPt6JcPy-1">
          <mxGeometry width="50" height="50" relative="1" as="geometry">
            <mxPoint x="654" y="865" as="sourcePoint" />
            <mxPoint x="250" y="860" as="targetPoint" />
            <Array as="points">
              <mxPoint x="560" y="810" />
              <mxPoint x="350" y="810" />
            </Array>
          </mxGeometry>
        </mxCell>
        <mxCell id="Y_N9zi4qX5FCF4y502j4-8" value="payment details" style="edgeLabel;html=1;align=center;verticalAlign=middle;resizable=0;points=[];" vertex="1" connectable="0" parent="Y_N9zi4qX5FCF4y502j4-7">
          <mxGeometry x="0.118" y="1" relative="1" as="geometry">
            <mxPoint x="14" y="-1" as="offset" />
          </mxGeometry>
        </mxCell>
        <mxCell id="Y_N9zi4qX5FCF4y502j4-9" value="" style="endArrow=classic;html=1;rounded=0;exitX=0.001;exitY=0.359;exitDx=0;exitDy=0;exitPerimeter=0;" edge="1" parent="1" source="LRoTDCk1tIKlJPt6JcPy-1">
          <mxGeometry width="50" height="50" relative="1" as="geometry">
            <mxPoint x="640" y="845" as="sourcePoint" />
            <mxPoint x="250" y="880" as="targetPoint" />
            <Array as="points">
              <mxPoint x="370" y="850" />
            </Array>
          </mxGeometry>
        </mxCell>
        <mxCell id="Y_N9zi4qX5FCF4y502j4-10" value="favorite genre" style="edgeLabel;html=1;align=center;verticalAlign=middle;resizable=0;points=[];" vertex="1" connectable="0" parent="Y_N9zi4qX5FCF4y502j4-9">
          <mxGeometry x="0.118" y="1" relative="1" as="geometry">
            <mxPoint as="offset" />
          </mxGeometry>
        </mxCell>
        <mxCell id="Y_N9zi4qX5FCF4y502j4-13" value="" style="endArrow=classic;html=1;rounded=0;exitX=-0.015;exitY=0.594;exitDx=0;exitDy=0;exitPerimeter=0;entryX=0.922;entryY=0.696;entryDx=0;entryDy=0;entryPerimeter=0;" edge="1" parent="1" source="LRoTDCk1tIKlJPt6JcPy-1" target="KiduQvNBwerXsva2SgYs-1">
          <mxGeometry width="50" height="50" relative="1" as="geometry">
            <mxPoint x="640" y="858" as="sourcePoint" />
            <mxPoint x="250" y="890" as="targetPoint" />
            <Array as="points">
              <mxPoint x="370" y="870" />
            </Array>
          </mxGeometry>
        </mxCell>
        <mxCell id="Y_N9zi4qX5FCF4y502j4-14" value="explicit preference" style="edgeLabel;html=1;align=center;verticalAlign=middle;resizable=0;points=[];" vertex="1" connectable="0" parent="Y_N9zi4qX5FCF4y502j4-13">
          <mxGeometry x="0.118" y="1" relative="1" as="geometry">
            <mxPoint as="offset" />
          </mxGeometry>
        </mxCell>
        <mxCell id="Y_N9zi4qX5FCF4y502j4-15" value="" style="endArrow=classic;html=1;rounded=0;entryX=0.921;entryY=0.768;entryDx=0;entryDy=0;entryPerimeter=0;" edge="1" parent="1" target="KiduQvNBwerXsva2SgYs-1">
          <mxGeometry width="50" height="50" relative="1" as="geometry">
            <mxPoint x="640" y="870" as="sourcePoint" />
            <mxPoint x="256.81499999999994" y="897.28" as="targetPoint" />
            <Array as="points">
              <mxPoint x="440" y="880" />
            </Array>
          </mxGeometry>
        </mxCell>
        <mxCell id="Y_N9zi4qX5FCF4y502j4-16" value="recorded audio" style="edgeLabel;html=1;align=center;verticalAlign=middle;resizable=0;points=[];" vertex="1" connectable="0" parent="Y_N9zi4qX5FCF4y502j4-15">
          <mxGeometry x="0.118" y="1" relative="1" as="geometry">
            <mxPoint as="offset" />
          </mxGeometry>
        </mxCell>
        <mxCell id="Y_N9zi4qX5FCF4y502j4-17" value="" style="endArrow=classic;html=1;rounded=0;entryX=0.951;entryY=0.756;entryDx=0;entryDy=0;entryPerimeter=0;exitX=1;exitY=1;exitDx=0;exitDy=0;" edge="1" parent="1" source="KiduQvNBwerXsva2SgYs-1">
          <mxGeometry width="50" height="50" relative="1" as="geometry">
            <mxPoint x="253.3649999999999" y="906.94" as="sourcePoint" />
            <mxPoint x="650" y="880" as="targetPoint" />
            <Array as="points">
              <mxPoint x="340" y="940" />
              <mxPoint x="530" y="940" />
            </Array>
          </mxGeometry>
        </mxCell>
        <mxCell id="Y_N9zi4qX5FCF4y502j4-18" value="account info" style="edgeLabel;html=1;align=center;verticalAlign=middle;resizable=0;points=[];" vertex="1" connectable="0" parent="Y_N9zi4qX5FCF4y502j4-17">
          <mxGeometry x="0.118" y="1" relative="1" as="geometry">
            <mxPoint as="offset" />
          </mxGeometry>
        </mxCell>
        <mxCell id="Y_N9zi4qX5FCF4y502j4-19" value="" style="endArrow=classic;html=1;rounded=0;entryX=0.185;entryY=1.021;entryDx=0;entryDy=0;entryPerimeter=0;exitX=0.801;exitY=0.906;exitDx=0;exitDy=0;exitPerimeter=0;" edge="1" parent="1" source="KiduQvNBwerXsva2SgYs-1" target="LRoTDCk1tIKlJPt6JcPy-1">
          <mxGeometry width="50" height="50" relative="1" as="geometry">
            <mxPoint x="242.15863991822607" y="918.1586399182258" as="sourcePoint" />
            <mxPoint x="660" y="890" as="targetPoint" />
            <Array as="points">
              <mxPoint x="330" y="950" />
              <mxPoint x="530" y="960" />
            </Array>
          </mxGeometry>
        </mxCell>
        <mxCell id="Y_N9zi4qX5FCF4y502j4-20" value="song list" style="edgeLabel;html=1;align=center;verticalAlign=middle;resizable=0;points=[];" vertex="1" connectable="0" parent="Y_N9zi4qX5FCF4y502j4-19">
          <mxGeometry x="0.118" y="1" relative="1" as="geometry">
            <mxPoint as="offset" />
          </mxGeometry>
        </mxCell>
        <mxCell id="Y_N9zi4qX5FCF4y502j4-21" value="" style="endArrow=classic;html=1;rounded=0;" edge="1" parent="1">
          <mxGeometry width="50" height="50" relative="1" as="geometry">
            <mxPoint x="640" y="840" as="sourcePoint" />
            <mxPoint x="250" y="870" as="targetPoint" />
            <Array as="points">
              <mxPoint x="360" y="830" />
            </Array>
          </mxGeometry>
        </mxCell>
        <mxCell id="Y_N9zi4qX5FCF4y502j4-22" value="filter selection" style="edgeLabel;html=1;align=center;verticalAlign=middle;resizable=0;points=[];" vertex="1" connectable="0" parent="Y_N9zi4qX5FCF4y502j4-21">
          <mxGeometry x="0.118" y="1" relative="1" as="geometry">
            <mxPoint as="offset" />
          </mxGeometry>
        </mxCell>
        <mxCell id="Y_N9zi4qX5FCF4y502j4-29" value="" style="endArrow=classic;html=1;rounded=0;exitX=0.25;exitY=0;exitDx=0;exitDy=0;entryX=0.78;entryY=0.056;entryDx=0;entryDy=0;entryPerimeter=0;" edge="1" parent="1" source="LRoTDCk1tIKlJPt6JcPy-1" target="KiduQvNBwerXsva2SgYs-1">
          <mxGeometry width="50" height="50" relative="1" as="geometry">
            <mxPoint x="690" y="840" as="sourcePoint" />
            <mxPoint x="250" y="840" as="targetPoint" />
            <Array as="points">
              <mxPoint x="620" y="750" />
              <mxPoint x="340" y="740" />
            </Array>
          </mxGeometry>
        </mxCell>
        <mxCell id="Y_N9zi4qX5FCF4y502j4-30" value="challenge request (host)" style="edgeLabel;html=1;align=center;verticalAlign=middle;resizable=0;points=[];" vertex="1" connectable="0" parent="Y_N9zi4qX5FCF4y502j4-29">
          <mxGeometry x="0.118" y="1" relative="1" as="geometry">
            <mxPoint as="offset" />
          </mxGeometry>
        </mxCell>
        <mxCell id="Y_N9zi4qX5FCF4y502j4-31" value="" style="endArrow=classic;html=1;rounded=0;entryX=0.676;entryY=1.031;entryDx=0;entryDy=0;entryPerimeter=0;exitX=0.571;exitY=0.99;exitDx=0;exitDy=0;exitPerimeter=0;" edge="1" parent="1" source="KiduQvNBwerXsva2SgYs-1" target="LRoTDCk1tIKlJPt6JcPy-1">
          <mxGeometry width="50" height="50" relative="1" as="geometry">
            <mxPoint x="205.995" y="993.1400000000001" as="sourcePoint" />
            <mxPoint x="640.5300000000001" y="960" as="targetPoint" />
            <Array as="points">
              <mxPoint x="309.88" y="1038.95" />
              <mxPoint x="509.88" y="1038.95" />
            </Array>
          </mxGeometry>
        </mxCell>
        <mxCell id="Y_N9zi4qX5FCF4y502j4-32" value="challenge result (host)" style="edgeLabel;html=1;align=center;verticalAlign=middle;resizable=0;points=[];" vertex="1" connectable="0" parent="Y_N9zi4qX5FCF4y502j4-31">
          <mxGeometry x="0.118" y="1" relative="1" as="geometry">
            <mxPoint x="-76" as="offset" />
          </mxGeometry>
        </mxCell>
        <mxCell id="Y_N9zi4qX5FCF4y502j4-33" value="" style="endArrow=classic;html=1;rounded=0;entryX=0.333;entryY=1.043;entryDx=0;entryDy=0;entryPerimeter=0;exitX=0.75;exitY=0.965;exitDx=0;exitDy=0;exitPerimeter=0;" edge="1" parent="1" source="KiduQvNBwerXsva2SgYs-1" target="LRoTDCk1tIKlJPt6JcPy-1">
          <mxGeometry width="50" height="50" relative="1" as="geometry">
            <mxPoint x="236.115" y="924.19" as="sourcePoint" />
            <mxPoint x="670.6500000000001" y="891.05" as="targetPoint" />
            <Array as="points">
              <mxPoint x="330" y="970" />
              <mxPoint x="540" y="970" />
            </Array>
          </mxGeometry>
        </mxCell>
        <mxCell id="Y_N9zi4qX5FCF4y502j4-34" value="play music and show lyrics and audio graph" style="edgeLabel;html=1;align=center;verticalAlign=middle;resizable=0;points=[];" vertex="1" connectable="0" parent="Y_N9zi4qX5FCF4y502j4-33">
          <mxGeometry x="0.118" y="1" relative="1" as="geometry">
            <mxPoint x="-50" as="offset" />
          </mxGeometry>
        </mxCell>
        <mxCell id="Y_N9zi4qX5FCF4y502j4-35" value="" style="endArrow=classic;html=1;rounded=0;entryX=0.5;entryY=1;entryDx=0;entryDy=0;exitX=0.666;exitY=0.98;exitDx=0;exitDy=0;exitPerimeter=0;" edge="1" parent="1" source="KiduQvNBwerXsva2SgYs-1" target="LRoTDCk1tIKlJPt6JcPy-1">
          <mxGeometry width="50" height="50" relative="1" as="geometry">
            <mxPoint x="230.25" y="930.9750000000001" as="sourcePoint" />
            <mxPoint x="683.97" y="892.1499999999999" as="targetPoint" />
            <Array as="points">
              <mxPoint x="330" y="1000" />
              <mxPoint x="530" y="1000" />
            </Array>
          </mxGeometry>
        </mxCell>
        <mxCell id="Y_N9zi4qX5FCF4y502j4-36" value="karaoke result" style="edgeLabel;html=1;align=center;verticalAlign=middle;resizable=0;points=[];" vertex="1" connectable="0" parent="Y_N9zi4qX5FCF4y502j4-35">
          <mxGeometry x="0.118" y="1" relative="1" as="geometry">
            <mxPoint x="-50" as="offset" />
          </mxGeometry>
        </mxCell>
        <mxCell id="Y_N9zi4qX5FCF4y502j4-37" value="" style="endArrow=classic;html=1;rounded=0;exitX=0.303;exitY=0.97;exitDx=0;exitDy=0;exitPerimeter=0;entryX=0.873;entryY=1.02;entryDx=0;entryDy=0;entryPerimeter=0;" edge="1" parent="1" source="KiduQvNBwerXsva2SgYs-1" target="LRoTDCk1tIKlJPt6JcPy-1">
          <mxGeometry width="50" height="50" relative="1" as="geometry">
            <mxPoint x="209.66499999999996" y="933.8500000000001" as="sourcePoint" />
            <mxPoint x="715" y="890" as="targetPoint" />
            <Array as="points">
              <mxPoint x="300" y="1080" />
              <mxPoint x="520" y="1080" />
            </Array>
          </mxGeometry>
        </mxCell>
        <mxCell id="Y_N9zi4qX5FCF4y502j4-38" value="tournament result" style="edgeLabel;html=1;align=center;verticalAlign=middle;resizable=0;points=[];" vertex="1" connectable="0" parent="Y_N9zi4qX5FCF4y502j4-37">
          <mxGeometry x="0.118" y="1" relative="1" as="geometry">
            <mxPoint x="-76" as="offset" />
          </mxGeometry>
        </mxCell>
        <mxCell id="Y_N9zi4qX5FCF4y502j4-39" value="" style="endArrow=classic;html=1;rounded=0;exitX=0.137;exitY=-0.054;exitDx=0;exitDy=0;exitPerimeter=0;entryX=0.901;entryY=0.17;entryDx=0;entryDy=0;entryPerimeter=0;" edge="1" parent="1" source="LRoTDCk1tIKlJPt6JcPy-1" target="KiduQvNBwerXsva2SgYs-1">
          <mxGeometry width="50" height="50" relative="1" as="geometry">
            <mxPoint x="676.5" y="840" as="sourcePoint" />
            <mxPoint x="250" y="850" as="targetPoint" />
            <Array as="points">
              <mxPoint x="610" y="790" />
              <mxPoint x="350" y="786" />
            </Array>
          </mxGeometry>
        </mxCell>
        <mxCell id="Y_N9zi4qX5FCF4y502j4-40" value="request adding effects" style="edgeLabel;html=1;align=center;verticalAlign=middle;resizable=0;points=[];" vertex="1" connectable="0" parent="Y_N9zi4qX5FCF4y502j4-39">
          <mxGeometry x="0.118" y="1" relative="1" as="geometry">
            <mxPoint as="offset" />
          </mxGeometry>
        </mxCell>
        <mxCell id="Y_N9zi4qX5FCF4y502j4-41" value="" style="endArrow=classic;html=1;rounded=0;exitX=0.048;exitY=-0.066;exitDx=0;exitDy=0;exitPerimeter=0;entryX=0.955;entryY=0.27;entryDx=0;entryDy=0;entryPerimeter=0;" edge="1" parent="1" source="LRoTDCk1tIKlJPt6JcPy-1" target="KiduQvNBwerXsva2SgYs-1">
          <mxGeometry width="50" height="50" relative="1" as="geometry">
            <mxPoint x="666.3300000000002" y="837.3" as="sourcePoint" />
            <mxPoint x="242.89999999999998" y="832.7649999999999" as="targetPoint" />
            <Array as="points">
              <mxPoint x="610" y="800" />
              <mxPoint x="350" y="800" />
            </Array>
          </mxGeometry>
        </mxCell>
        <mxCell id="Y_N9zi4qX5FCF4y502j4-42" value="request playing recorded audio" style="edgeLabel;html=1;align=center;verticalAlign=middle;resizable=0;points=[];" vertex="1" connectable="0" parent="Y_N9zi4qX5FCF4y502j4-41">
          <mxGeometry x="0.118" y="1" relative="1" as="geometry">
            <mxPoint as="offset" />
          </mxGeometry>
        </mxCell>
        <mxCell id="Y_N9zi4qX5FCF4y502j4-43" value="" style="endArrow=classic;html=1;rounded=0;exitX=0.174;exitY=0.901;exitDx=0;exitDy=0;exitPerimeter=0;entryX=1;entryY=1;entryDx=0;entryDy=0;" edge="1" parent="1" source="KiduQvNBwerXsva2SgYs-1" target="LRoTDCk1tIKlJPt6JcPy-1">
          <mxGeometry width="50" height="50" relative="1" as="geometry">
            <mxPoint x="193.1049999999999" y="933.2749999999999" as="sourcePoint" />
            <mxPoint x="727.98" y="892.1499999999999" as="targetPoint" />
            <Array as="points">
              <mxPoint x="290" y="1090" />
              <mxPoint x="530" y="1090" />
            </Array>
          </mxGeometry>
        </mxCell>
        <mxCell id="Y_N9zi4qX5FCF4y502j4-44" value="tournament history)" style="edgeLabel;html=1;align=center;verticalAlign=middle;resizable=0;points=[];" vertex="1" connectable="0" parent="Y_N9zi4qX5FCF4y502j4-43">
          <mxGeometry x="0.118" y="1" relative="1" as="geometry">
            <mxPoint x="-76" as="offset" />
          </mxGeometry>
        </mxCell>
        <mxCell id="Y_N9zi4qX5FCF4y502j4-45" value="" style="endArrow=classic;html=1;rounded=0;entryX=0.568;entryY=1.009;entryDx=0;entryDy=0;exitX=0.626;exitY=0.98;exitDx=0;exitDy=0;exitPerimeter=0;entryPerimeter=0;" edge="1" parent="1" source="KiduQvNBwerXsva2SgYs-1" target="LRoTDCk1tIKlJPt6JcPy-1">
          <mxGeometry width="50" height="50" relative="1" as="geometry">
            <mxPoint x="220.59000000000003" y="932.7" as="sourcePoint" />
            <mxPoint x="699" y="890" as="targetPoint" />
            <Array as="points">
              <mxPoint x="320" y="1020" />
              <mxPoint x="510" y="1020" />
            </Array>
          </mxGeometry>
        </mxCell>
        <mxCell id="Y_N9zi4qX5FCF4y502j4-46" value="karaoke history" style="edgeLabel;html=1;align=center;verticalAlign=middle;resizable=0;points=[];" vertex="1" connectable="0" parent="Y_N9zi4qX5FCF4y502j4-45">
          <mxGeometry x="0.118" y="1" relative="1" as="geometry">
            <mxPoint x="-50" as="offset" />
          </mxGeometry>
        </mxCell>
        <mxCell id="Y_N9zi4qX5FCF4y502j4-47" value="" style="endArrow=classic;html=1;rounded=0;entryX=0.803;entryY=0.997;entryDx=0;entryDy=0;exitX=0.462;exitY=0.995;exitDx=0;exitDy=0;exitPerimeter=0;entryPerimeter=0;" edge="1" parent="1" source="KiduQvNBwerXsva2SgYs-1" target="LRoTDCk1tIKlJPt6JcPy-1">
          <mxGeometry width="50" height="50" relative="1" as="geometry">
            <mxPoint x="209.66499999999996" y="933.8500000000001" as="sourcePoint" />
            <mxPoint x="714.8399999999999" y="891.55" as="targetPoint" />
            <Array as="points">
              <mxPoint x="310" y="1060" />
              <mxPoint x="510" y="1060" />
            </Array>
          </mxGeometry>
        </mxCell>
        <mxCell id="Y_N9zi4qX5FCF4y502j4-48" value="challenge history" style="edgeLabel;html=1;align=center;verticalAlign=middle;resizable=0;points=[];" vertex="1" connectable="0" parent="Y_N9zi4qX5FCF4y502j4-47">
          <mxGeometry x="0.118" y="1" relative="1" as="geometry">
            <mxPoint x="-76" as="offset" />
          </mxGeometry>
        </mxCell>
        <mxCell id="utJM1ELCbQ5Qoo15lJig-1" value="" style="endArrow=classic;html=1;rounded=0;exitX=0.195;exitY=0.003;exitDx=0;exitDy=0;entryX=0.836;entryY=0.106;entryDx=0;entryDy=0;entryPerimeter=0;exitPerimeter=0;" edge="1" parent="1" source="LRoTDCk1tIKlJPt6JcPy-1" target="KiduQvNBwerXsva2SgYs-1">
          <mxGeometry width="50" height="50" relative="1" as="geometry">
            <mxPoint x="676.5" y="840" as="sourcePoint" />
            <mxPoint x="233.69999999999993" y="826.44" as="targetPoint" />
            <Array as="points">
              <mxPoint x="600" y="770" />
              <mxPoint x="340" y="770" />
            </Array>
          </mxGeometry>
        </mxCell>
        <mxCell id="utJM1ELCbQ5Qoo15lJig-2" value="solo karaoke start" style="edgeLabel;html=1;align=center;verticalAlign=middle;resizable=0;points=[];" vertex="1" connectable="0" parent="utJM1ELCbQ5Qoo15lJig-1">
          <mxGeometry x="0.118" y="1" relative="1" as="geometry">
            <mxPoint as="offset" />
          </mxGeometry>
        </mxCell>
        <mxCell id="Zu3r4A5aaJ15hc3hccKJ-1" value="" style="endArrow=classic;html=1;rounded=0;exitX=0.056;exitY=0.781;exitDx=0;exitDy=0;exitPerimeter=0;entryX=1;entryY=0.75;entryDx=0;entryDy=0;" edge="1" parent="1" source="KiduQvNBwerXsva2SgYs-1" target="LRoTDCk1tIKlJPt6JcPy-1">
          <mxGeometry width="50" height="50" relative="1" as="geometry">
            <mxPoint x="164.01" y="923.615" as="sourcePoint" />
            <mxPoint x="760" y="870" as="targetPoint" />
            <Array as="points">
              <mxPoint x="280" y="1100" />
              <mxPoint x="540" y="1100" />
              <mxPoint x="760" y="910" />
            </Array>
          </mxGeometry>
        </mxCell>
        <mxCell id="Zu3r4A5aaJ15hc3hccKJ-2" value="play recorded audio" style="edgeLabel;html=1;align=center;verticalAlign=middle;resizable=0;points=[];" vertex="1" connectable="0" parent="Zu3r4A5aaJ15hc3hccKJ-1">
          <mxGeometry x="0.118" y="1" relative="1" as="geometry">
            <mxPoint x="-76" as="offset" />
          </mxGeometry>
        </mxCell>
      </root>
    </mxGraphModel>
  </diagram>
  <diagram id="gBP13aazC5-c7l4j7vfi" name="Page-2">
    <mxGraphModel dx="1818" dy="928" grid="1" gridSize="10" guides="1" tooltips="1" connect="1" arrows="1" fold="1" page="1" pageScale="1" pageWidth="827" pageHeight="1169" math="0" shadow="0">
      <root>
        <mxCell id="0" />
        <mxCell id="1" parent="0" />
        <mxCell id="vs7FMDAYeTu9xgra7Yvu-1" style="edgeStyle=orthogonalEdgeStyle;rounded=0;orthogonalLoop=1;jettySize=auto;html=1;exitX=0;exitY=0;exitDx=0;exitDy=0;entryX=1;entryY=0.5;entryDx=0;entryDy=0;" parent="1" source="vpkvYUUwOjwxv27jHWSM-12" target="vs7FMDAYeTu9xgra7Yvu-6" edge="1">
          <mxGeometry relative="1" as="geometry">
            <mxPoint x="421.0350000000001" y="110.01999999999998" as="sourcePoint" />
            <Array as="points">
              <mxPoint x="330" y="110" />
            </Array>
          </mxGeometry>
        </mxCell>
        <mxCell id="vs7FMDAYeTu9xgra7Yvu-2" value="password reset request {email}" style="edgeLabel;html=1;align=center;verticalAlign=middle;resizable=0;points=[];" parent="vs7FMDAYeTu9xgra7Yvu-1" vertex="1" connectable="0">
          <mxGeometry x="0.3561" y="-1" relative="1" as="geometry">
            <mxPoint x="15" y="1" as="offset" />
          </mxGeometry>
        </mxCell>
        <mxCell id="vs7FMDAYeTu9xgra7Yvu-6" value="Firebase" style="rounded=0;whiteSpace=wrap;html=1;" parent="1" vertex="1">
          <mxGeometry x="81" y="85" width="90" height="50" as="geometry" />
        </mxCell>
        <mxCell id="vs7FMDAYeTu9xgra7Yvu-11" style="edgeStyle=orthogonalEdgeStyle;rounded=0;orthogonalLoop=1;jettySize=auto;html=1;entryX=0;entryY=0.75;entryDx=0;entryDy=0;exitX=0.5;exitY=1;exitDx=0;exitDy=0;" parent="1" source="vs7FMDAYeTu9xgra7Yvu-6" target="vpkvYUUwOjwxv27jHWSM-11" edge="1">
          <mxGeometry relative="1" as="geometry">
            <mxPoint x="170" y="130" as="sourcePoint" />
            <mxPoint x="418.9649999999999" y="123.47499999999991" as="targetPoint" />
          </mxGeometry>
        </mxCell>
        <mxCell id="vs7FMDAYeTu9xgra7Yvu-12" value="pass reset request result" style="edgeLabel;html=1;align=center;verticalAlign=middle;resizable=0;points=[];" parent="vs7FMDAYeTu9xgra7Yvu-11" vertex="1" connectable="0">
          <mxGeometry x="-0.1935" y="-1" relative="1" as="geometry">
            <mxPoint x="54" as="offset" />
          </mxGeometry>
        </mxCell>
        <mxCell id="vs7FMDAYeTu9xgra7Yvu-13" style="edgeStyle=orthogonalEdgeStyle;rounded=0;orthogonalLoop=1;jettySize=auto;html=1;entryX=0.433;entryY=0.02;entryDx=0;entryDy=0;entryPerimeter=0;exitX=-0.017;exitY=0.393;exitDx=0;exitDy=0;exitPerimeter=0;" parent="1" source="vpkvYUUwOjwxv27jHWSM-1" target="vs7FMDAYeTu9xgra7Yvu-6" edge="1">
          <mxGeometry relative="1" as="geometry">
            <mxPoint x="521.000019817684" y="50.0344827586207" as="sourcePoint" />
            <mxPoint x="181" y="55" as="targetPoint" />
          </mxGeometry>
        </mxCell>
        <mxCell id="vs7FMDAYeTu9xgra7Yvu-14" value="login {email, password}" style="edgeLabel;html=1;align=center;verticalAlign=middle;resizable=0;points=[];" parent="vs7FMDAYeTu9xgra7Yvu-13" vertex="1" connectable="0">
          <mxGeometry x="-0.085" relative="1" as="geometry">
            <mxPoint as="offset" />
          </mxGeometry>
        </mxCell>
        <mxCell id="vs7FMDAYeTu9xgra7Yvu-15" style="edgeStyle=orthogonalEdgeStyle;rounded=0;orthogonalLoop=1;jettySize=auto;html=1;exitX=0.667;exitY=0;exitDx=0;exitDy=0;entryX=0.003;entryY=0.643;entryDx=0;entryDy=0;exitPerimeter=0;entryPerimeter=0;" parent="1" source="vs7FMDAYeTu9xgra7Yvu-6" target="vpkvYUUwOjwxv27jHWSM-1" edge="1">
          <mxGeometry relative="1" as="geometry">
            <mxPoint x="440" y="-15" as="sourcePoint" />
            <mxPoint x="453.1199999999999" y="73.56500000000005" as="targetPoint" />
            <Array as="points">
              <mxPoint x="141" y="71" />
              <mxPoint x="411" y="71" />
            </Array>
          </mxGeometry>
        </mxCell>
        <mxCell id="vs7FMDAYeTu9xgra7Yvu-16" value="login request result" style="edgeLabel;html=1;align=center;verticalAlign=middle;resizable=0;points=[];" parent="vs7FMDAYeTu9xgra7Yvu-15" vertex="1" connectable="0">
          <mxGeometry x="-0.016" relative="1" as="geometry">
            <mxPoint x="-61" as="offset" />
          </mxGeometry>
        </mxCell>
        <mxCell id="vs7FMDAYeTu9xgra7Yvu-17" style="edgeStyle=orthogonalEdgeStyle;rounded=0;orthogonalLoop=1;jettySize=auto;html=1;entryX=0.211;entryY=0.987;entryDx=0;entryDy=0;entryPerimeter=0;exitX=-0.022;exitY=0.38;exitDx=0;exitDy=0;exitPerimeter=0;" parent="1" source="vpkvYUUwOjwxv27jHWSM-15" target="vs7FMDAYeTu9xgra7Yvu-6" edge="1">
          <mxGeometry relative="1" as="geometry">
            <mxPoint x="460" y="185" as="sourcePoint" />
            <mxPoint x="131" y="215" as="targetPoint" />
            <Array as="points">
              <mxPoint x="100" y="390" />
            </Array>
          </mxGeometry>
        </mxCell>
        <mxCell id="vs7FMDAYeTu9xgra7Yvu-18" value="&lt;font style=&quot;font-size: 9px&quot;&gt;signup{email, password, age, explicit preference}&lt;/font&gt;" style="edgeLabel;html=1;align=center;verticalAlign=middle;resizable=0;points=[];rotation=90;" parent="vs7FMDAYeTu9xgra7Yvu-17" vertex="1" connectable="0">
          <mxGeometry x="-0.0863" y="2" relative="1" as="geometry">
            <mxPoint x="3" y="-58" as="offset" />
          </mxGeometry>
        </mxCell>
        <mxCell id="vs7FMDAYeTu9xgra7Yvu-19" style="edgeStyle=orthogonalEdgeStyle;rounded=0;orthogonalLoop=1;jettySize=auto;html=1;exitX=0.348;exitY=0.994;exitDx=0;exitDy=0;exitPerimeter=0;entryX=0.143;entryY=0;entryDx=0;entryDy=0;entryPerimeter=0;" parent="1" source="vs7FMDAYeTu9xgra7Yvu-6" edge="1" target="vpkvYUUwOjwxv27jHWSM-15">
          <mxGeometry relative="1" as="geometry">
            <mxPoint x="141.02999999999997" y="188" as="sourcePoint" />
            <mxPoint x="380" y="280" as="targetPoint" />
            <Array as="points">
              <mxPoint x="112" y="290" />
              <mxPoint x="230" y="290" />
            </Array>
          </mxGeometry>
        </mxCell>
        <mxCell id="vs7FMDAYeTu9xgra7Yvu-20" value="signup request result" style="edgeLabel;html=1;align=center;verticalAlign=middle;resizable=0;points=[];" parent="vs7FMDAYeTu9xgra7Yvu-19" vertex="1" connectable="0">
          <mxGeometry x="-0.016" relative="1" as="geometry">
            <mxPoint x="44" as="offset" />
          </mxGeometry>
        </mxCell>
        <mxCell id="vs7FMDAYeTu9xgra7Yvu-21" style="edgeStyle=orthogonalEdgeStyle;rounded=0;orthogonalLoop=1;jettySize=auto;html=1;exitX=-0.017;exitY=0.638;exitDx=0;exitDy=0;entryX=0.078;entryY=1;entryDx=0;entryDy=0;exitPerimeter=0;entryPerimeter=0;" parent="1" source="vpkvYUUwOjwxv27jHWSM-15" target="vs7FMDAYeTu9xgra7Yvu-6" edge="1">
          <mxGeometry relative="1" as="geometry">
            <mxPoint x="469.33500000000004" y="185.69000000000005" as="sourcePoint" />
            <mxPoint x="121.00000000000003" y="205" as="targetPoint" />
          </mxGeometry>
        </mxCell>
        <mxCell id="vs7FMDAYeTu9xgra7Yvu-22" value="verification {email}" style="edgeLabel;html=1;align=center;verticalAlign=middle;resizable=0;points=[];fontSize=9;rotation=90;" parent="vs7FMDAYeTu9xgra7Yvu-21" vertex="1" connectable="0">
          <mxGeometry x="-0.0863" y="2" relative="1" as="geometry">
            <mxPoint x="4" y="-100" as="offset" />
          </mxGeometry>
        </mxCell>
        <mxCell id="vs7FMDAYeTu9xgra7Yvu-23" style="edgeStyle=orthogonalEdgeStyle;rounded=0;orthogonalLoop=1;jettySize=auto;html=1;entryX=0.008;entryY=0.854;entryDx=0;entryDy=0;entryPerimeter=0;" parent="1" target="vpkvYUUwOjwxv27jHWSM-15" edge="1">
          <mxGeometry relative="1" as="geometry">
            <mxPoint x="80" y="140" as="sourcePoint" />
            <mxPoint x="651" y="290" as="targetPoint" />
            <Array as="points">
              <mxPoint x="80" y="428" />
            </Array>
          </mxGeometry>
        </mxCell>
        <mxCell id="vs7FMDAYeTu9xgra7Yvu-24" value="verification result" style="edgeLabel;html=1;align=center;verticalAlign=middle;resizable=0;points=[];fontSize=9;rotation=90;" parent="vs7FMDAYeTu9xgra7Yvu-23" vertex="1" connectable="0">
          <mxGeometry x="-0.016" relative="1" as="geometry">
            <mxPoint x="1" y="-26" as="offset" />
          </mxGeometry>
        </mxCell>
        <mxCell id="vs7FMDAYeTu9xgra7Yvu-51" value="Fig: Level 1 Diagram (Login, Signup, Password reset)" style="text;html=1;strokeColor=none;fillColor=none;align=center;verticalAlign=middle;whiteSpace=wrap;rounded=0;fontStyle=1;fontSize=17;" parent="1" vertex="1">
          <mxGeometry x="150" y="501" width="440" height="30" as="geometry" />
        </mxCell>
        <mxCell id="vpkvYUUwOjwxv27jHWSM-18" value="" style="group" parent="1" vertex="1" connectable="0">
          <mxGeometry x="290" y="180" width="140" height="80" as="geometry" />
        </mxCell>
        <mxCell id="vpkvYUUwOjwxv27jHWSM-10" value="" style="group" parent="vpkvYUUwOjwxv27jHWSM-18" vertex="1" connectable="0">
          <mxGeometry width="140" height="80" as="geometry" />
        </mxCell>
        <mxCell id="vpkvYUUwOjwxv27jHWSM-11" value="Password Reset" style="rounded=1;whiteSpace=wrap;html=1;fontSize=17;" parent="vpkvYUUwOjwxv27jHWSM-10" vertex="1">
          <mxGeometry width="140" height="80" as="geometry" />
        </mxCell>
        <mxCell id="vpkvYUUwOjwxv27jHWSM-12" value="1.2" style="text;html=1;strokeColor=none;fillColor=none;align=center;verticalAlign=middle;whiteSpace=wrap;rounded=0;fontSize=17;" parent="vpkvYUUwOjwxv27jHWSM-10" vertex="1">
          <mxGeometry x="40" width="50" height="22.857142857142854" as="geometry" />
        </mxCell>
        <mxCell id="vpkvYUUwOjwxv27jHWSM-13" value="" style="endArrow=none;html=1;rounded=0;fontSize=17;exitX=0;exitY=0.25;exitDx=0;exitDy=0;entryX=1;entryY=0.25;entryDx=0;entryDy=0;" parent="vpkvYUUwOjwxv27jHWSM-18" edge="1">
          <mxGeometry width="50" height="50" relative="1" as="geometry">
            <mxPoint y="24.14285714285711" as="sourcePoint" />
            <mxPoint x="140" y="24.14285714285711" as="targetPoint" />
          </mxGeometry>
        </mxCell>
        <mxCell id="vpkvYUUwOjwxv27jHWSM-21" value="" style="group" parent="1" vertex="1" connectable="0">
          <mxGeometry x="340" y="20" width="140" height="80" as="geometry" />
        </mxCell>
        <mxCell id="vpkvYUUwOjwxv27jHWSM-4" value="" style="group" parent="vpkvYUUwOjwxv27jHWSM-21" vertex="1" connectable="0">
          <mxGeometry width="140" height="80" as="geometry" />
        </mxCell>
        <mxCell id="vpkvYUUwOjwxv27jHWSM-1" value="Login" style="rounded=1;whiteSpace=wrap;html=1;fontSize=17;" parent="vpkvYUUwOjwxv27jHWSM-4" vertex="1">
          <mxGeometry width="140" height="80" as="geometry" />
        </mxCell>
        <mxCell id="vpkvYUUwOjwxv27jHWSM-3" value="1.1" style="text;html=1;strokeColor=none;fillColor=none;align=center;verticalAlign=middle;whiteSpace=wrap;rounded=0;fontSize=17;" parent="vpkvYUUwOjwxv27jHWSM-4" vertex="1">
          <mxGeometry x="40" width="50" height="22.857142857142854" as="geometry" />
        </mxCell>
        <mxCell id="vpkvYUUwOjwxv27jHWSM-2" value="" style="endArrow=none;html=1;rounded=0;fontSize=17;exitX=0;exitY=0.25;exitDx=0;exitDy=0;entryX=1;entryY=0.25;entryDx=0;entryDy=0;" parent="vpkvYUUwOjwxv27jHWSM-21" edge="1">
          <mxGeometry width="50" height="50" relative="1" as="geometry">
            <mxPoint y="24.14285714285714" as="sourcePoint" />
            <mxPoint x="140" y="24.14285714285714" as="targetPoint" />
          </mxGeometry>
        </mxCell>
        <mxCell id="vpkvYUUwOjwxv27jHWSM-22" value="" style="group" parent="1" vertex="1" connectable="0">
          <mxGeometry x="480" y="140" width="100" height="30" as="geometry" />
        </mxCell>
        <mxCell id="vpkvYUUwOjwxv27jHWSM-19" value="" style="html=1;dashed=0;whitespace=wrap;shape=mxgraph.dfd.dataStoreID;align=left;spacingLeft=3;points=[[0,0],[0.5,0],[1,0],[0,0.5],[1,0.5],[0,1],[0.5,1],[1,1]];fontSize=17;" parent="vpkvYUUwOjwxv27jHWSM-22" vertex="1">
          <mxGeometry width="100" height="30" as="geometry" />
        </mxCell>
        <mxCell id="vpkvYUUwOjwxv27jHWSM-20" value="AccInfo" style="text;html=1;strokeColor=none;fillColor=none;align=center;verticalAlign=middle;whiteSpace=wrap;rounded=0;fontSize=17;" parent="vpkvYUUwOjwxv27jHWSM-22" vertex="1">
          <mxGeometry x="30" width="70" height="30" as="geometry" />
        </mxCell>
        <mxCell id="vpkvYUUwOjwxv27jHWSM-23" value="" style="group" parent="1" vertex="1" connectable="0">
          <mxGeometry x="210" y="360" width="140" height="80" as="geometry" />
        </mxCell>
        <mxCell id="vpkvYUUwOjwxv27jHWSM-14" value="" style="group" parent="vpkvYUUwOjwxv27jHWSM-23" vertex="1" connectable="0">
          <mxGeometry width="140" height="80" as="geometry" />
        </mxCell>
        <mxCell id="vpkvYUUwOjwxv27jHWSM-15" value="Create Account" style="rounded=1;whiteSpace=wrap;html=1;fontSize=17;" parent="vpkvYUUwOjwxv27jHWSM-14" vertex="1">
          <mxGeometry width="140" height="80" as="geometry" />
        </mxCell>
        <mxCell id="vpkvYUUwOjwxv27jHWSM-16" value="1.3" style="text;html=1;strokeColor=none;fillColor=none;align=center;verticalAlign=middle;whiteSpace=wrap;rounded=0;fontSize=17;" parent="vpkvYUUwOjwxv27jHWSM-14" vertex="1">
          <mxGeometry x="40" width="50" height="22.857142857142854" as="geometry" />
        </mxCell>
        <mxCell id="vpkvYUUwOjwxv27jHWSM-17" value="" style="endArrow=none;html=1;rounded=0;fontSize=17;exitX=0;exitY=0.25;exitDx=0;exitDy=0;entryX=1;entryY=0.25;entryDx=0;entryDy=0;" parent="vpkvYUUwOjwxv27jHWSM-23" edge="1">
          <mxGeometry width="50" height="50" relative="1" as="geometry">
            <mxPoint y="24.14285714285711" as="sourcePoint" />
            <mxPoint x="140" y="24.14285714285711" as="targetPoint" />
          </mxGeometry>
        </mxCell>
        <mxCell id="vpkvYUUwOjwxv27jHWSM-24" style="edgeStyle=orthogonalEdgeStyle;rounded=0;orthogonalLoop=1;jettySize=auto;html=1;exitX=1.01;exitY=0.648;exitDx=0;exitDy=0;entryX=0.571;entryY=0;entryDx=0;entryDy=0;fontSize=17;entryPerimeter=0;exitPerimeter=0;" parent="1" source="vpkvYUUwOjwxv27jHWSM-1" target="vpkvYUUwOjwxv27jHWSM-20" edge="1">
          <mxGeometry relative="1" as="geometry">
            <mxPoint x="700" y="39.97000000000003" as="targetPoint" />
            <Array as="points" />
          </mxGeometry>
        </mxCell>
        <mxCell id="vpkvYUUwOjwxv27jHWSM-25" value="Account info" style="edgeLabel;html=1;align=center;verticalAlign=middle;resizable=0;points=[];fontSize=15;rotation=0;" parent="vpkvYUUwOjwxv27jHWSM-24" vertex="1" connectable="0">
          <mxGeometry x="-0.3238" y="1" relative="1" as="geometry">
            <mxPoint x="2" y="-1" as="offset" />
          </mxGeometry>
        </mxCell>
        <mxCell id="vpkvYUUwOjwxv27jHWSM-26" style="edgeStyle=orthogonalEdgeStyle;rounded=0;orthogonalLoop=1;jettySize=auto;html=1;exitX=1;exitY=0.25;exitDx=0;exitDy=0;entryX=0.7;entryY=1.081;entryDx=0;entryDy=0;entryPerimeter=0;fontSize=17;" parent="1" source="vpkvYUUwOjwxv27jHWSM-11" target="vpkvYUUwOjwxv27jHWSM-19" edge="1">
          <mxGeometry relative="1" as="geometry">
            <mxPoint x="692" y="139.0200000000001" as="targetPoint" />
          </mxGeometry>
        </mxCell>
        <mxCell id="vpkvYUUwOjwxv27jHWSM-27" value="&lt;div style=&quot;font-size: 15px;&quot;&gt;new&lt;/div&gt;&lt;div style=&quot;font-size: 15px;&quot;&gt;password&lt;/div&gt;" style="edgeLabel;html=1;align=center;verticalAlign=middle;resizable=0;points=[];fontSize=15;" parent="vpkvYUUwOjwxv27jHWSM-26" vertex="1" connectable="0">
          <mxGeometry x="-0.3654" y="-1" relative="1" as="geometry">
            <mxPoint x="16" y="-1" as="offset" />
          </mxGeometry>
        </mxCell>
        <mxCell id="vpkvYUUwOjwxv27jHWSM-28" style="edgeStyle=orthogonalEdgeStyle;rounded=0;orthogonalLoop=1;jettySize=auto;html=1;fontSize=17;exitX=1.002;exitY=0.126;exitDx=0;exitDy=0;exitPerimeter=0;entryX=0.417;entryY=1.043;entryDx=0;entryDy=0;entryPerimeter=0;" parent="1" source="vpkvYUUwOjwxv27jHWSM-15" target="o9DTgbaxg3MPbQUmkl-h-2" edge="1">
          <mxGeometry relative="1" as="geometry">
            <mxPoint x="580" y="241.85" as="sourcePoint" />
            <mxPoint x="780" y="230" as="targetPoint" />
          </mxGeometry>
        </mxCell>
        <mxCell id="vpkvYUUwOjwxv27jHWSM-29" value="account info" style="edgeLabel;html=1;align=center;verticalAlign=middle;resizable=0;points=[];fontSize=17;rotation=0;" parent="vpkvYUUwOjwxv27jHWSM-28" vertex="1" connectable="0">
          <mxGeometry x="-0.0393" y="1" relative="1" as="geometry">
            <mxPoint x="6" y="2" as="offset" />
          </mxGeometry>
        </mxCell>
        <mxCell id="vpkvYUUwOjwxv27jHWSM-30" style="edgeStyle=orthogonalEdgeStyle;rounded=0;orthogonalLoop=1;jettySize=auto;html=1;exitX=1.016;exitY=0.845;exitDx=0;exitDy=0;fontSize=17;entryX=0.75;entryY=1;entryDx=0;entryDy=0;exitPerimeter=0;" parent="1" source="vpkvYUUwOjwxv27jHWSM-15" target="o9DTgbaxg3MPbQUmkl-h-3" edge="1">
          <mxGeometry relative="1" as="geometry">
            <mxPoint x="710.5400000000002" y="196.56000000000006" as="targetPoint" />
          </mxGeometry>
        </mxCell>
        <mxCell id="vpkvYUUwOjwxv27jHWSM-31" value="&lt;div&gt;Verified status&lt;/div&gt;" style="edgeLabel;html=1;align=center;verticalAlign=middle;resizable=0;points=[];fontSize=17;" parent="vpkvYUUwOjwxv27jHWSM-30" vertex="1" connectable="0">
          <mxGeometry x="-0.762" relative="1" as="geometry">
            <mxPoint x="37" as="offset" />
          </mxGeometry>
        </mxCell>
        <mxCell id="smKxssMOUMo-qo7QEKKU-3" value="Bkash" style="rounded=0;whiteSpace=wrap;html=1;" parent="1" vertex="1">
          <mxGeometry x="23" y="625" width="90" height="50" as="geometry" />
        </mxCell>
        <mxCell id="smKxssMOUMo-qo7QEKKU-4" value="Google Pay" style="rounded=0;whiteSpace=wrap;html=1;" parent="1" vertex="1">
          <mxGeometry x="23.000000000000057" y="715" width="90" height="50" as="geometry" />
        </mxCell>
        <mxCell id="smKxssMOUMo-qo7QEKKU-12" style="edgeStyle=orthogonalEdgeStyle;rounded=0;orthogonalLoop=1;jettySize=auto;html=1;entryX=0.5;entryY=0;entryDx=0;entryDy=0;exitX=0;exitY=0.25;exitDx=0;exitDy=0;" parent="1" target="smKxssMOUMo-qo7QEKKU-3" edge="1" source="S03KeFRrvaZS7lcRnv7k-8">
          <mxGeometry relative="1" as="geometry">
            <mxPoint x="176" y="600" as="sourcePoint" />
            <mxPoint x="86" y="560" as="targetPoint" />
          </mxGeometry>
        </mxCell>
        <mxCell id="smKxssMOUMo-qo7QEKKU-13" value="purchase request" style="edgeLabel;html=1;align=center;verticalAlign=middle;resizable=0;points=[];rotation=0;" parent="smKxssMOUMo-qo7QEKKU-12" vertex="1" connectable="0">
          <mxGeometry x="-0.085" relative="1" as="geometry">
            <mxPoint as="offset" />
          </mxGeometry>
        </mxCell>
        <mxCell id="smKxssMOUMo-qo7QEKKU-14" style="edgeStyle=orthogonalEdgeStyle;rounded=0;orthogonalLoop=1;jettySize=auto;html=1;exitX=1;exitY=0.75;exitDx=0;exitDy=0;entryX=0.75;entryY=0;entryDx=0;entryDy=0;" parent="1" source="smKxssMOUMo-qo7QEKKU-3" target="smKxssMOUMo-qo7QEKKU-24" edge="1">
          <mxGeometry relative="1" as="geometry">
            <mxPoint x="332.70500000000004" y="623.24" as="sourcePoint" />
            <mxPoint x="339.38" y="602.7749999999999" as="targetPoint" />
          </mxGeometry>
        </mxCell>
        <mxCell id="smKxssMOUMo-qo7QEKKU-15" value="purchase result" style="edgeLabel;html=1;align=center;verticalAlign=middle;resizable=0;points=[];rotation=0;" parent="smKxssMOUMo-qo7QEKKU-14" vertex="1" connectable="0">
          <mxGeometry x="-0.085" relative="1" as="geometry">
            <mxPoint as="offset" />
          </mxGeometry>
        </mxCell>
        <mxCell id="smKxssMOUMo-qo7QEKKU-16" style="edgeStyle=orthogonalEdgeStyle;rounded=0;orthogonalLoop=1;jettySize=auto;html=1;entryX=0.213;entryY=-0.008;entryDx=0;entryDy=0;entryPerimeter=0;exitX=0.25;exitY=0;exitDx=0;exitDy=0;" parent="1" target="smKxssMOUMo-qo7QEKKU-4" edge="1" source="S03KeFRrvaZS7lcRnv7k-3">
          <mxGeometry relative="1" as="geometry">
            <mxPoint x="246" y="696" as="sourcePoint" />
            <mxPoint x="426.91999999999996" y="796.76" as="targetPoint" />
            <Array as="points">
              <mxPoint x="186" y="686" />
              <mxPoint x="42" y="686" />
            </Array>
          </mxGeometry>
        </mxCell>
        <mxCell id="smKxssMOUMo-qo7QEKKU-17" value="purchase request" style="edgeLabel;html=1;align=center;verticalAlign=middle;resizable=0;points=[];rotation=0;" parent="smKxssMOUMo-qo7QEKKU-16" vertex="1" connectable="0">
          <mxGeometry x="-0.085" relative="1" as="geometry">
            <mxPoint as="offset" />
          </mxGeometry>
        </mxCell>
        <mxCell id="smKxssMOUMo-qo7QEKKU-18" style="edgeStyle=orthogonalEdgeStyle;rounded=0;orthogonalLoop=1;jettySize=auto;html=1;exitX=0.344;exitY=1.003;exitDx=0;exitDy=0;exitPerimeter=0;entryX=0;entryY=0.75;entryDx=0;entryDy=0;" parent="1" source="smKxssMOUMo-qo7QEKKU-4" target="smKxssMOUMo-qo7QEKKU-24" edge="1">
          <mxGeometry relative="1" as="geometry">
            <mxPoint x="480.21000000000004" y="807.22" as="sourcePoint" />
            <mxPoint x="495" y="796" as="targetPoint" />
          </mxGeometry>
        </mxCell>
        <mxCell id="smKxssMOUMo-qo7QEKKU-19" value="purchase result" style="edgeLabel;html=1;align=center;verticalAlign=middle;resizable=0;points=[];rotation=0;" parent="smKxssMOUMo-qo7QEKKU-18" vertex="1" connectable="0">
          <mxGeometry x="-0.085" relative="1" as="geometry">
            <mxPoint as="offset" />
          </mxGeometry>
        </mxCell>
        <mxCell id="smKxssMOUMo-qo7QEKKU-22" value="" style="group" parent="1" vertex="1" connectable="0">
          <mxGeometry x="466" y="740" width="120" height="70" as="geometry" />
        </mxCell>
        <mxCell id="smKxssMOUMo-qo7QEKKU-23" value="" style="group" parent="smKxssMOUMo-qo7QEKKU-22" vertex="1" connectable="0">
          <mxGeometry width="120" height="70" as="geometry" />
        </mxCell>
        <mxCell id="smKxssMOUMo-qo7QEKKU-24" value="&lt;div&gt;&lt;br&gt;&lt;/div&gt;&lt;div&gt;Upgrade membership&lt;/div&gt;" style="rounded=1;whiteSpace=wrap;html=1;fontSize=17;" parent="smKxssMOUMo-qo7QEKKU-23" vertex="1">
          <mxGeometry width="120" height="70" as="geometry" />
        </mxCell>
        <mxCell id="smKxssMOUMo-qo7QEKKU-25" value="2.4" style="text;html=1;strokeColor=none;fillColor=none;align=center;verticalAlign=middle;whiteSpace=wrap;rounded=0;fontSize=17;" parent="smKxssMOUMo-qo7QEKKU-23" vertex="1">
          <mxGeometry x="34.285714285714285" width="42.857142857142854" height="19.999999999999996" as="geometry" />
        </mxCell>
        <mxCell id="smKxssMOUMo-qo7QEKKU-26" value="" style="endArrow=none;html=1;rounded=0;fontSize=17;exitX=0;exitY=0.25;exitDx=0;exitDy=0;entryX=1;entryY=0.25;entryDx=0;entryDy=0;" parent="smKxssMOUMo-qo7QEKKU-22" edge="1">
          <mxGeometry width="50" height="50" relative="1" as="geometry">
            <mxPoint y="21.124999999999996" as="sourcePoint" />
            <mxPoint x="120" y="21.124999999999996" as="targetPoint" />
          </mxGeometry>
        </mxCell>
        <mxCell id="smKxssMOUMo-qo7QEKKU-36" value="" style="group" parent="1" vertex="1" connectable="0">
          <mxGeometry x="596" y="660" width="100" height="30" as="geometry" />
        </mxCell>
        <mxCell id="smKxssMOUMo-qo7QEKKU-37" value="" style="html=1;dashed=0;whitespace=wrap;shape=mxgraph.dfd.dataStoreID;align=left;spacingLeft=3;points=[[0,0],[0.5,0],[1,0],[0,0.5],[1,0.5],[0,1],[0.5,1],[1,1]];fontSize=17;" parent="smKxssMOUMo-qo7QEKKU-36" vertex="1">
          <mxGeometry width="100" height="30" as="geometry" />
        </mxCell>
        <mxCell id="smKxssMOUMo-qo7QEKKU-38" value="AccInfo" style="text;html=1;strokeColor=none;fillColor=none;align=center;verticalAlign=middle;whiteSpace=wrap;rounded=0;fontSize=17;" parent="smKxssMOUMo-qo7QEKKU-36" vertex="1">
          <mxGeometry x="30" width="70" height="30" as="geometry" />
        </mxCell>
        <mxCell id="smKxssMOUMo-qo7QEKKU-39" style="edgeStyle=orthogonalEdgeStyle;rounded=0;orthogonalLoop=1;jettySize=auto;html=1;exitX=0.5;exitY=0;exitDx=0;exitDy=0;fontSize=17;entryX=1.011;entryY=0.595;entryDx=0;entryDy=0;entryPerimeter=0;" parent="1" source="LZ0dS0yGWzo_v5l1Trj1-4" edge="1" target="S03KeFRrvaZS7lcRnv7k-3">
          <mxGeometry relative="1" as="geometry">
            <mxPoint x="336" y="746" as="targetPoint" />
            <Array as="points">
              <mxPoint x="412" y="747" />
            </Array>
          </mxGeometry>
        </mxCell>
        <mxCell id="smKxssMOUMo-qo7QEKKU-40" value="&lt;div style=&quot;font-size: 14px;&quot;&gt;Payment Info&lt;/div&gt;" style="edgeLabel;html=1;align=center;verticalAlign=middle;resizable=0;points=[];fontSize=14;" parent="smKxssMOUMo-qo7QEKKU-39" vertex="1" connectable="0">
          <mxGeometry x="-0.071" y="-1" relative="1" as="geometry">
            <mxPoint x="-31" y="1" as="offset" />
          </mxGeometry>
        </mxCell>
        <mxCell id="_iDD7mJ0kev6cVnLghEU-7" value="Fig: Level 1 Diagram (Account Settings)" style="text;html=1;strokeColor=none;fillColor=none;align=center;verticalAlign=middle;whiteSpace=wrap;rounded=0;fontStyle=1;fontSize=17;" parent="1" vertex="1">
          <mxGeometry x="113" y="1120" width="440" height="30" as="geometry" />
        </mxCell>
        <mxCell id="S03KeFRrvaZS7lcRnv7k-1" value="" style="group" parent="1" vertex="1" connectable="0">
          <mxGeometry x="156" y="705" width="120" height="70" as="geometry" />
        </mxCell>
        <mxCell id="S03KeFRrvaZS7lcRnv7k-2" value="" style="group" parent="S03KeFRrvaZS7lcRnv7k-1" vertex="1" connectable="0">
          <mxGeometry width="120" height="70" as="geometry" />
        </mxCell>
        <mxCell id="S03KeFRrvaZS7lcRnv7k-3" value="&lt;div&gt;&lt;br&gt;&lt;/div&gt;&lt;div&gt;Google Pay&lt;br&gt;&lt;/div&gt;&lt;div&gt;payment&lt;/div&gt;" style="rounded=1;whiteSpace=wrap;html=1;fontSize=17;" parent="S03KeFRrvaZS7lcRnv7k-2" vertex="1">
          <mxGeometry width="120" height="70" as="geometry" />
        </mxCell>
        <mxCell id="S03KeFRrvaZS7lcRnv7k-4" value="2.3" style="text;html=1;strokeColor=none;fillColor=none;align=center;verticalAlign=middle;whiteSpace=wrap;rounded=0;fontSize=17;" parent="S03KeFRrvaZS7lcRnv7k-2" vertex="1">
          <mxGeometry x="34.285714285714285" width="42.857142857142854" height="19.999999999999996" as="geometry" />
        </mxCell>
        <mxCell id="S03KeFRrvaZS7lcRnv7k-5" value="" style="endArrow=none;html=1;rounded=0;fontSize=17;exitX=0;exitY=0.25;exitDx=0;exitDy=0;entryX=1;entryY=0.25;entryDx=0;entryDy=0;" parent="S03KeFRrvaZS7lcRnv7k-1" edge="1">
          <mxGeometry width="50" height="50" relative="1" as="geometry">
            <mxPoint y="21.124999999999996" as="sourcePoint" />
            <mxPoint x="120" y="21.124999999999996" as="targetPoint" />
          </mxGeometry>
        </mxCell>
        <mxCell id="S03KeFRrvaZS7lcRnv7k-6" value="" style="group" parent="1" vertex="1" connectable="0">
          <mxGeometry x="176" y="584.5" width="120" height="70" as="geometry" />
        </mxCell>
        <mxCell id="S03KeFRrvaZS7lcRnv7k-7" value="" style="group" parent="S03KeFRrvaZS7lcRnv7k-6" vertex="1" connectable="0">
          <mxGeometry width="120" height="70" as="geometry" />
        </mxCell>
        <mxCell id="S03KeFRrvaZS7lcRnv7k-8" value="&lt;div&gt;&lt;br&gt;&lt;/div&gt;&lt;div&gt;Bkash&lt;br&gt;&lt;/div&gt;&lt;div&gt;payment&lt;/div&gt;" style="rounded=1;whiteSpace=wrap;html=1;fontSize=17;" parent="S03KeFRrvaZS7lcRnv7k-7" vertex="1">
          <mxGeometry width="120" height="70" as="geometry" />
        </mxCell>
        <mxCell id="S03KeFRrvaZS7lcRnv7k-9" value="2.2" style="text;html=1;strokeColor=none;fillColor=none;align=center;verticalAlign=middle;whiteSpace=wrap;rounded=0;fontSize=17;" parent="S03KeFRrvaZS7lcRnv7k-7" vertex="1">
          <mxGeometry x="34.285714285714285" width="42.857142857142854" height="19.999999999999996" as="geometry" />
        </mxCell>
        <mxCell id="S03KeFRrvaZS7lcRnv7k-10" value="" style="endArrow=none;html=1;rounded=0;fontSize=17;exitX=0;exitY=0.25;exitDx=0;exitDy=0;entryX=1;entryY=0.25;entryDx=0;entryDy=0;" parent="S03KeFRrvaZS7lcRnv7k-6" edge="1">
          <mxGeometry width="50" height="50" relative="1" as="geometry">
            <mxPoint y="21.124999999999996" as="sourcePoint" />
            <mxPoint x="120" y="21.124999999999996" as="targetPoint" />
          </mxGeometry>
        </mxCell>
        <mxCell id="o9DTgbaxg3MPbQUmkl-h-1" value="" style="group" vertex="1" connectable="0" parent="1">
          <mxGeometry x="390" y="300" width="100" height="30" as="geometry" />
        </mxCell>
        <mxCell id="o9DTgbaxg3MPbQUmkl-h-2" value="" style="html=1;dashed=0;whitespace=wrap;shape=mxgraph.dfd.dataStoreID;align=left;spacingLeft=3;points=[[0,0],[0.5,0],[1,0],[0,0.5],[1,0.5],[0,1],[0.5,1],[1,1]];fontSize=17;" vertex="1" parent="o9DTgbaxg3MPbQUmkl-h-1">
          <mxGeometry width="100" height="30" as="geometry" />
        </mxCell>
        <mxCell id="o9DTgbaxg3MPbQUmkl-h-3" value="AccInfo" style="text;html=1;strokeColor=none;fillColor=none;align=center;verticalAlign=middle;whiteSpace=wrap;rounded=0;fontSize=17;" vertex="1" parent="o9DTgbaxg3MPbQUmkl-h-1">
          <mxGeometry x="30" width="70" height="30" as="geometry" />
        </mxCell>
        <mxCell id="o9DTgbaxg3MPbQUmkl-h-4" value="User" style="rounded=0;whiteSpace=wrap;html=1;" vertex="1" parent="1">
          <mxGeometry x="720" y="200" width="90" height="50" as="geometry" />
        </mxCell>
        <mxCell id="-zXnjLXZqRyI6Ha54R6s-1" style="edgeStyle=orthogonalEdgeStyle;rounded=0;orthogonalLoop=1;jettySize=auto;html=1;exitX=0.556;exitY=0;exitDx=0;exitDy=0;fontSize=17;exitPerimeter=0;entryX=1.022;entryY=0.384;entryDx=0;entryDy=0;entryPerimeter=0;" edge="1" parent="1" source="o9DTgbaxg3MPbQUmkl-h-4" target="vpkvYUUwOjwxv27jHWSM-1">
          <mxGeometry relative="1" as="geometry">
            <mxPoint x="510" y="50" as="targetPoint" />
            <Array as="points">
              <mxPoint x="770" y="51" />
            </Array>
            <mxPoint x="558.57" y="118.2" as="sourcePoint" />
          </mxGeometry>
        </mxCell>
        <mxCell id="-zXnjLXZqRyI6Ha54R6s-2" value="&lt;span style=&quot;font-size: 16px;&quot;&gt;login {email, password}&lt;/span&gt;" style="edgeLabel;html=1;align=center;verticalAlign=middle;resizable=0;points=[];fontSize=16;rotation=0;" vertex="1" connectable="0" parent="-zXnjLXZqRyI6Ha54R6s-1">
          <mxGeometry x="-0.3238" y="1" relative="1" as="geometry">
            <mxPoint x="-130" y="-4" as="offset" />
          </mxGeometry>
        </mxCell>
        <mxCell id="KYR-hUBwNeD94P7cpe9t-1" style="edgeStyle=orthogonalEdgeStyle;rounded=0;orthogonalLoop=1;jettySize=auto;html=1;fontSize=17;entryX=1.012;entryY=0.698;entryDx=0;entryDy=0;entryPerimeter=0;" edge="1" parent="1" target="vpkvYUUwOjwxv27jHWSM-11">
          <mxGeometry relative="1" as="geometry">
            <mxPoint x="493.08000000000004" y="60.72000000000003" as="targetPoint" />
            <Array as="points">
              <mxPoint x="432" y="235" />
            </Array>
            <mxPoint x="720" y="235" as="sourcePoint" />
          </mxGeometry>
        </mxCell>
        <mxCell id="KYR-hUBwNeD94P7cpe9t-2" value="&lt;span style=&quot;font-size: 16px;&quot;&gt;password reset request {email}&lt;/span&gt;" style="edgeLabel;html=1;align=center;verticalAlign=middle;resizable=0;points=[];fontSize=16;rotation=0;" vertex="1" connectable="0" parent="KYR-hUBwNeD94P7cpe9t-1">
          <mxGeometry x="-0.3238" y="1" relative="1" as="geometry">
            <mxPoint x="-32" y="-3" as="offset" />
          </mxGeometry>
        </mxCell>
        <mxCell id="KYR-hUBwNeD94P7cpe9t-3" style="edgeStyle=orthogonalEdgeStyle;rounded=0;orthogonalLoop=1;jettySize=auto;html=1;exitX=0.5;exitY=1;exitDx=0;exitDy=0;fontSize=17;entryX=0.599;entryY=1;entryDx=0;entryDy=0;entryPerimeter=0;" edge="1" parent="1" source="o9DTgbaxg3MPbQUmkl-h-4" target="vpkvYUUwOjwxv27jHWSM-15">
          <mxGeometry relative="1" as="geometry">
            <mxPoint x="459.99999999999994" y="280.05000000000007" as="targetPoint" />
            <Array as="points">
              <mxPoint x="765" y="460" />
              <mxPoint x="294" y="460" />
            </Array>
            <mxPoint x="746.9599999999999" y="429.33000000000004" as="sourcePoint" />
          </mxGeometry>
        </mxCell>
        <mxCell id="KYR-hUBwNeD94P7cpe9t-4" value="&lt;span style=&quot;font-size: 17px;&quot;&gt;signup {email, password, age, explicit preference}&lt;/span&gt;" style="edgeLabel;html=1;align=center;verticalAlign=middle;resizable=0;points=[];fontSize=17;rotation=0;" vertex="1" connectable="0" parent="KYR-hUBwNeD94P7cpe9t-3">
          <mxGeometry x="-0.3238" y="1" relative="1" as="geometry">
            <mxPoint x="-168" y="-4" as="offset" />
          </mxGeometry>
        </mxCell>
        <mxCell id="rt_GySzyxxhwPnvmQKvH-1" style="edgeStyle=orthogonalEdgeStyle;rounded=0;orthogonalLoop=1;jettySize=auto;html=1;fontSize=17;entryX=0.32;entryY=1;entryDx=0;entryDy=0;entryPerimeter=0;exitX=1;exitY=0.75;exitDx=0;exitDy=0;" edge="1" parent="1" source="o9DTgbaxg3MPbQUmkl-h-3" target="o9DTgbaxg3MPbQUmkl-h-4">
          <mxGeometry relative="1" as="geometry">
            <mxPoint x="441.68000000000006" y="245.84000000000015" as="targetPoint" />
            <mxPoint x="520" y="320" as="sourcePoint" />
          </mxGeometry>
        </mxCell>
        <mxCell id="rt_GySzyxxhwPnvmQKvH-3" value="account info" style="edgeLabel;html=1;align=center;verticalAlign=middle;resizable=0;points=[];fontSize=17;" vertex="1" connectable="0" parent="rt_GySzyxxhwPnvmQKvH-1">
          <mxGeometry x="-0.2928" y="3" relative="1" as="geometry">
            <mxPoint as="offset" />
          </mxGeometry>
        </mxCell>
        <mxCell id="LZ0dS0yGWzo_v5l1Trj1-1" value="" style="group" vertex="1" connectable="0" parent="1">
          <mxGeometry x="356" y="840" width="120" height="70" as="geometry" />
        </mxCell>
        <mxCell id="LZ0dS0yGWzo_v5l1Trj1-2" value="" style="group" vertex="1" connectable="0" parent="LZ0dS0yGWzo_v5l1Trj1-1">
          <mxGeometry width="120" height="70" as="geometry" />
        </mxCell>
        <mxCell id="LZ0dS0yGWzo_v5l1Trj1-3" value="&lt;div&gt;&lt;br&gt;&lt;/div&gt;&lt;div&gt;Payment Option&lt;/div&gt;" style="rounded=1;whiteSpace=wrap;html=1;fontSize=17;" vertex="1" parent="LZ0dS0yGWzo_v5l1Trj1-2">
          <mxGeometry width="120" height="70" as="geometry" />
        </mxCell>
        <mxCell id="LZ0dS0yGWzo_v5l1Trj1-4" value="2.1" style="text;html=1;strokeColor=none;fillColor=none;align=center;verticalAlign=middle;whiteSpace=wrap;rounded=0;fontSize=17;" vertex="1" parent="LZ0dS0yGWzo_v5l1Trj1-2">
          <mxGeometry x="34.285714285714285" width="42.857142857142854" height="19.999999999999996" as="geometry" />
        </mxCell>
        <mxCell id="LZ0dS0yGWzo_v5l1Trj1-5" value="" style="endArrow=none;html=1;rounded=0;fontSize=17;exitX=0;exitY=0.25;exitDx=0;exitDy=0;entryX=1;entryY=0.25;entryDx=0;entryDy=0;" edge="1" parent="LZ0dS0yGWzo_v5l1Trj1-1">
          <mxGeometry width="50" height="50" relative="1" as="geometry">
            <mxPoint y="21.124999999999996" as="sourcePoint" />
            <mxPoint x="120" y="21.124999999999996" as="targetPoint" />
          </mxGeometry>
        </mxCell>
        <mxCell id="LZ0dS0yGWzo_v5l1Trj1-6" value="User" style="rounded=0;whiteSpace=wrap;html=1;" vertex="1" parent="1">
          <mxGeometry x="126.00000000000006" y="950" width="90" height="50" as="geometry" />
        </mxCell>
        <mxCell id="q7kAF5aVSOhN9ZfoRMlY-1" style="edgeStyle=orthogonalEdgeStyle;rounded=0;orthogonalLoop=1;jettySize=auto;html=1;exitX=0.5;exitY=0;exitDx=0;exitDy=0;" edge="1" parent="1" source="LZ0dS0yGWzo_v5l1Trj1-6">
          <mxGeometry relative="1" as="geometry">
            <mxPoint x="216" y="980.0000000000001" as="sourcePoint" />
            <mxPoint x="426" y="910" as="targetPoint" />
            <Array as="points">
              <mxPoint x="171" y="930" />
              <mxPoint x="425" y="930" />
              <mxPoint x="425" y="910" />
            </Array>
          </mxGeometry>
        </mxCell>
        <mxCell id="q7kAF5aVSOhN9ZfoRMlY-2" value="payment details" style="edgeLabel;html=1;align=center;verticalAlign=middle;resizable=0;points=[];rotation=0;" vertex="1" connectable="0" parent="q7kAF5aVSOhN9ZfoRMlY-1">
          <mxGeometry x="-0.085" relative="1" as="geometry">
            <mxPoint as="offset" />
          </mxGeometry>
        </mxCell>
        <mxCell id="smKxssMOUMo-qo7QEKKU-43" style="edgeStyle=orthogonalEdgeStyle;rounded=0;orthogonalLoop=1;jettySize=auto;html=1;exitX=1;exitY=0;exitDx=0;exitDy=0;entryX=1.007;entryY=0.349;entryDx=0;entryDy=0;fontSize=17;entryPerimeter=0;" parent="1" source="LZ0dS0yGWzo_v5l1Trj1-4" target="S03KeFRrvaZS7lcRnv7k-8" edge="1">
          <mxGeometry relative="1" as="geometry">
            <mxPoint x="443.00000000000205" y="610" as="targetPoint" />
          </mxGeometry>
        </mxCell>
        <mxCell id="smKxssMOUMo-qo7QEKKU-44" value="Payment Info" style="edgeLabel;html=1;align=center;verticalAlign=middle;resizable=0;points=[];fontSize=15;" parent="smKxssMOUMo-qo7QEKKU-43" vertex="1" connectable="0">
          <mxGeometry x="-0.5459" y="1" relative="1" as="geometry">
            <mxPoint x="-42" y="-150" as="offset" />
          </mxGeometry>
        </mxCell>
        <mxCell id="KJg3f_pBOx33LYT-mJtb-3" value="" style="group" vertex="1" connectable="0" parent="1">
          <mxGeometry x="556" y="840" width="120" height="70" as="geometry" />
        </mxCell>
        <mxCell id="KJg3f_pBOx33LYT-mJtb-4" value="" style="group" vertex="1" connectable="0" parent="KJg3f_pBOx33LYT-mJtb-3">
          <mxGeometry width="120" height="70" as="geometry" />
        </mxCell>
        <mxCell id="KJg3f_pBOx33LYT-mJtb-5" value="&lt;div&gt;Filter Songs&lt;/div&gt;" style="rounded=1;whiteSpace=wrap;html=1;fontSize=17;" vertex="1" parent="KJg3f_pBOx33LYT-mJtb-4">
          <mxGeometry width="120" height="70" as="geometry" />
        </mxCell>
        <mxCell id="KJg3f_pBOx33LYT-mJtb-6" value="2.5" style="text;html=1;strokeColor=none;fillColor=none;align=center;verticalAlign=middle;whiteSpace=wrap;rounded=0;fontSize=17;" vertex="1" parent="KJg3f_pBOx33LYT-mJtb-4">
          <mxGeometry x="34.285714285714285" width="42.857142857142854" height="19.999999999999996" as="geometry" />
        </mxCell>
        <mxCell id="KJg3f_pBOx33LYT-mJtb-7" value="" style="endArrow=none;html=1;rounded=0;fontSize=17;exitX=0;exitY=0.25;exitDx=0;exitDy=0;entryX=1;entryY=0.25;entryDx=0;entryDy=0;" edge="1" parent="KJg3f_pBOx33LYT-mJtb-3">
          <mxGeometry width="50" height="50" relative="1" as="geometry">
            <mxPoint y="21.124999999999996" as="sourcePoint" />
            <mxPoint x="120" y="21.124999999999996" as="targetPoint" />
          </mxGeometry>
        </mxCell>
        <mxCell id="xgKgExJfXBVYcSohYrbL-1" value="" style="group" vertex="1" connectable="0" parent="1">
          <mxGeometry x="556" y="930" width="120" height="70" as="geometry" />
        </mxCell>
        <mxCell id="xgKgExJfXBVYcSohYrbL-2" value="" style="group" vertex="1" connectable="0" parent="xgKgExJfXBVYcSohYrbL-1">
          <mxGeometry width="120" height="70" as="geometry" />
        </mxCell>
        <mxCell id="xgKgExJfXBVYcSohYrbL-3" value="&lt;div&gt;&lt;br&gt;&lt;/div&gt;&lt;div&gt;Genre selection&lt;/div&gt;" style="rounded=1;whiteSpace=wrap;html=1;fontSize=17;" vertex="1" parent="xgKgExJfXBVYcSohYrbL-2">
          <mxGeometry width="120" height="70" as="geometry" />
        </mxCell>
        <mxCell id="xgKgExJfXBVYcSohYrbL-4" value="2.6" style="text;html=1;strokeColor=none;fillColor=none;align=center;verticalAlign=middle;whiteSpace=wrap;rounded=0;fontSize=17;" vertex="1" parent="xgKgExJfXBVYcSohYrbL-2">
          <mxGeometry x="34.285714285714285" width="42.857142857142854" height="19.999999999999996" as="geometry" />
        </mxCell>
        <mxCell id="xgKgExJfXBVYcSohYrbL-5" value="" style="endArrow=none;html=1;rounded=0;fontSize=17;exitX=0;exitY=0.25;exitDx=0;exitDy=0;entryX=1;entryY=0.25;entryDx=0;entryDy=0;" edge="1" parent="xgKgExJfXBVYcSohYrbL-1">
          <mxGeometry width="50" height="50" relative="1" as="geometry">
            <mxPoint y="21.124999999999996" as="sourcePoint" />
            <mxPoint x="120" y="21.124999999999996" as="targetPoint" />
          </mxGeometry>
        </mxCell>
        <mxCell id="xgKgExJfXBVYcSohYrbL-6" value="" style="group" vertex="1" connectable="0" parent="1">
          <mxGeometry x="556" y="1030" width="120" height="70" as="geometry" />
        </mxCell>
        <mxCell id="xgKgExJfXBVYcSohYrbL-7" value="" style="group" vertex="1" connectable="0" parent="xgKgExJfXBVYcSohYrbL-6">
          <mxGeometry width="120" height="70" as="geometry" />
        </mxCell>
        <mxCell id="xgKgExJfXBVYcSohYrbL-8" value="&lt;div&gt;&lt;br&gt;&lt;/div&gt;&lt;div&gt;Explicit preference&lt;/div&gt;" style="rounded=1;whiteSpace=wrap;html=1;fontSize=17;" vertex="1" parent="xgKgExJfXBVYcSohYrbL-7">
          <mxGeometry width="120" height="70" as="geometry" />
        </mxCell>
        <mxCell id="xgKgExJfXBVYcSohYrbL-9" value="2.7" style="text;html=1;strokeColor=none;fillColor=none;align=center;verticalAlign=middle;whiteSpace=wrap;rounded=0;fontSize=17;" vertex="1" parent="xgKgExJfXBVYcSohYrbL-7">
          <mxGeometry x="34.285714285714285" width="42.857142857142854" height="19.999999999999996" as="geometry" />
        </mxCell>
        <mxCell id="xgKgExJfXBVYcSohYrbL-10" value="" style="endArrow=none;html=1;rounded=0;fontSize=17;exitX=0;exitY=0.25;exitDx=0;exitDy=0;entryX=1;entryY=0.25;entryDx=0;entryDy=0;" edge="1" parent="xgKgExJfXBVYcSohYrbL-6">
          <mxGeometry width="50" height="50" relative="1" as="geometry">
            <mxPoint y="21.124999999999996" as="sourcePoint" />
            <mxPoint x="120" y="21.124999999999996" as="targetPoint" />
          </mxGeometry>
        </mxCell>
        <mxCell id="UeAPzzno2TYIWlExPVS8-1" style="edgeStyle=orthogonalEdgeStyle;rounded=0;orthogonalLoop=1;jettySize=auto;html=1;exitX=1;exitY=0.25;exitDx=0;exitDy=0;entryX=0;entryY=0.5;entryDx=0;entryDy=0;" edge="1" parent="1" source="LZ0dS0yGWzo_v5l1Trj1-6" target="KJg3f_pBOx33LYT-mJtb-5">
          <mxGeometry relative="1" as="geometry">
            <mxPoint x="220.9999999999999" y="995" as="sourcePoint" />
            <mxPoint x="476" y="955" as="targetPoint" />
            <Array as="points">
              <mxPoint x="516" y="963" />
              <mxPoint x="516" y="875" />
            </Array>
          </mxGeometry>
        </mxCell>
        <mxCell id="UeAPzzno2TYIWlExPVS8-2" value="filter selection" style="edgeLabel;html=1;align=center;verticalAlign=middle;resizable=0;points=[];rotation=0;" vertex="1" connectable="0" parent="UeAPzzno2TYIWlExPVS8-1">
          <mxGeometry x="-0.085" relative="1" as="geometry">
            <mxPoint as="offset" />
          </mxGeometry>
        </mxCell>
        <mxCell id="UeAPzzno2TYIWlExPVS8-3" value="" style="group" vertex="1" connectable="0" parent="1">
          <mxGeometry x="713" y="660" width="100" height="30" as="geometry" />
        </mxCell>
        <mxCell id="UeAPzzno2TYIWlExPVS8-4" value="" style="html=1;dashed=0;whitespace=wrap;shape=mxgraph.dfd.dataStoreID;align=left;spacingLeft=3;points=[[0,0],[0.5,0],[1,0],[0,0.5],[1,0.5],[0,1],[0.5,1],[1,1]];fontSize=17;" vertex="1" parent="UeAPzzno2TYIWlExPVS8-3">
          <mxGeometry width="100" height="30" as="geometry" />
        </mxCell>
        <mxCell id="UeAPzzno2TYIWlExPVS8-5" value="SongList" style="text;html=1;strokeColor=none;fillColor=none;align=center;verticalAlign=middle;whiteSpace=wrap;rounded=0;fontSize=17;" vertex="1" parent="UeAPzzno2TYIWlExPVS8-3">
          <mxGeometry x="30" width="70" height="30" as="geometry" />
        </mxCell>
        <mxCell id="DAdDNSKPD1WSBAfAXR9k-1" style="edgeStyle=orthogonalEdgeStyle;rounded=0;orthogonalLoop=1;jettySize=auto;html=1;exitX=1;exitY=0.75;exitDx=0;exitDy=0;entryX=-0.01;entryY=0.845;entryDx=0;entryDy=0;entryPerimeter=0;" edge="1" parent="1" source="LZ0dS0yGWzo_v5l1Trj1-6" target="xgKgExJfXBVYcSohYrbL-3">
          <mxGeometry relative="1" as="geometry">
            <mxPoint x="225.9999999999999" y="985" as="sourcePoint" />
            <mxPoint x="566" y="885" as="targetPoint" />
          </mxGeometry>
        </mxCell>
        <mxCell id="DAdDNSKPD1WSBAfAXR9k-2" value="favorite genre" style="edgeLabel;html=1;align=center;verticalAlign=middle;resizable=0;points=[];rotation=0;" vertex="1" connectable="0" parent="DAdDNSKPD1WSBAfAXR9k-1">
          <mxGeometry x="-0.085" relative="1" as="geometry">
            <mxPoint as="offset" />
          </mxGeometry>
        </mxCell>
        <mxCell id="iKYZRuYuJkHE-KHv8_uK-1" style="edgeStyle=orthogonalEdgeStyle;rounded=0;orthogonalLoop=1;jettySize=auto;html=1;exitX=0.422;exitY=1.05;exitDx=0;exitDy=0;entryX=0;entryY=0.75;entryDx=0;entryDy=0;exitPerimeter=0;" edge="1" parent="1" source="LZ0dS0yGWzo_v5l1Trj1-6" target="xgKgExJfXBVYcSohYrbL-8">
          <mxGeometry relative="1" as="geometry">
            <mxPoint x="225.9999999999999" y="997.5" as="sourcePoint" />
            <mxPoint x="564.8" y="999.1500000000001" as="targetPoint" />
            <Array as="points">
              <mxPoint x="164" y="1083" />
              <mxPoint x="386" y="1083" />
            </Array>
          </mxGeometry>
        </mxCell>
        <mxCell id="iKYZRuYuJkHE-KHv8_uK-2" value="explicit preference" style="edgeLabel;html=1;align=center;verticalAlign=middle;resizable=0;points=[];rotation=0;" vertex="1" connectable="0" parent="iKYZRuYuJkHE-KHv8_uK-1">
          <mxGeometry x="-0.085" relative="1" as="geometry">
            <mxPoint as="offset" />
          </mxGeometry>
        </mxCell>
        <mxCell id="DS-w3lz_8ryrsSnlSQ1p-2" value="&lt;p style=&quot;line-height: 0 ; font-size: 14px&quot;&gt;filtered&lt;/p&gt;&lt;p style=&quot;line-height: 0 ; font-size: 14px&quot;&gt;list&lt;/p&gt;&lt;p style=&quot;font-size: 14px&quot;&gt;&lt;/p&gt;" style="edgeStyle=orthogonalEdgeStyle;rounded=0;orthogonalLoop=1;jettySize=auto;html=1;exitX=1;exitY=0.5;exitDx=0;exitDy=0;entryX=0.21;entryY=0.972;entryDx=0;entryDy=0;fontSize=14;entryPerimeter=0;" edge="1" parent="1" source="KJg3f_pBOx33LYT-mJtb-5" target="UeAPzzno2TYIWlExPVS8-4">
          <mxGeometry x="0.6255" relative="1" as="geometry">
            <mxPoint x="760.98" y="861.2199999999998" as="sourcePoint" />
            <mxPoint x="747.3199999999999" y="715" as="targetPoint" />
            <mxPoint as="offset" />
          </mxGeometry>
        </mxCell>
        <mxCell id="DS-w3lz_8ryrsSnlSQ1p-4" style="edgeStyle=orthogonalEdgeStyle;rounded=0;orthogonalLoop=1;jettySize=auto;html=1;entryX=0;entryY=1;entryDx=0;entryDy=0;exitX=0.833;exitY=-0.083;exitDx=0;exitDy=0;exitPerimeter=0;" edge="1" parent="1" source="KJg3f_pBOx33LYT-mJtb-6" target="smKxssMOUMo-qo7QEKKU-38">
          <mxGeometry relative="1" as="geometry">
            <mxPoint x="736" y="1090" as="sourcePoint" />
            <mxPoint x="629.0699999999999" y="833.95" as="targetPoint" />
          </mxGeometry>
        </mxCell>
        <mxCell id="DS-w3lz_8ryrsSnlSQ1p-5" value="&lt;span style=&quot;font-size: 12px;&quot;&gt;current filter selection&lt;/span&gt;" style="edgeLabel;html=1;align=center;verticalAlign=middle;resizable=0;points=[];rotation=90;fontSize=12;" vertex="1" connectable="0" parent="DS-w3lz_8ryrsSnlSQ1p-4">
          <mxGeometry x="-0.0863" y="2" relative="1" as="geometry">
            <mxPoint x="2" y="-3" as="offset" />
          </mxGeometry>
        </mxCell>
        <mxCell id="DS-w3lz_8ryrsSnlSQ1p-6" style="edgeStyle=orthogonalEdgeStyle;rounded=0;orthogonalLoop=1;jettySize=auto;html=1;entryX=0;entryY=1;entryDx=0;entryDy=0;exitX=1.019;exitY=0.636;exitDx=0;exitDy=0;exitPerimeter=0;" edge="1" parent="1" source="smKxssMOUMo-qo7QEKKU-24" target="smKxssMOUMo-qo7QEKKU-37">
          <mxGeometry relative="1" as="geometry">
            <mxPoint x="643.1428571428571" y="850" as="sourcePoint" />
            <mxPoint x="636" y="700" as="targetPoint" />
            <Array as="points">
              <mxPoint x="596" y="785" />
            </Array>
          </mxGeometry>
        </mxCell>
        <mxCell id="DS-w3lz_8ryrsSnlSQ1p-7" value="&lt;span style=&quot;font-size: 15px;&quot;&gt;pro&lt;/span&gt;" style="edgeLabel;html=1;align=center;verticalAlign=middle;resizable=0;points=[];rotation=90;fontSize=15;" vertex="1" connectable="0" parent="DS-w3lz_8ryrsSnlSQ1p-6">
          <mxGeometry x="-0.0863" y="2" relative="1" as="geometry">
            <mxPoint x="2" y="-3" as="offset" />
          </mxGeometry>
        </mxCell>
        <mxCell id="DS-w3lz_8ryrsSnlSQ1p-8" style="edgeStyle=orthogonalEdgeStyle;rounded=0;orthogonalLoop=1;jettySize=auto;html=1;entryX=0.34;entryY=1.028;entryDx=0;entryDy=0;exitX=1;exitY=0.5;exitDx=0;exitDy=0;entryPerimeter=0;" edge="1" parent="1" source="xgKgExJfXBVYcSohYrbL-3" target="smKxssMOUMo-qo7QEKKU-38">
          <mxGeometry relative="1" as="geometry">
            <mxPoint x="635.985714285714" y="848.3399999999999" as="sourcePoint" />
            <mxPoint x="636" y="700" as="targetPoint" />
          </mxGeometry>
        </mxCell>
        <mxCell id="DS-w3lz_8ryrsSnlSQ1p-9" value="&lt;span style=&quot;font-size: 12px&quot;&gt;current genre selection&lt;/span&gt;" style="edgeLabel;html=1;align=center;verticalAlign=middle;resizable=0;points=[];rotation=90;fontSize=12;" vertex="1" connectable="0" parent="DS-w3lz_8ryrsSnlSQ1p-8">
          <mxGeometry x="-0.0863" y="2" relative="1" as="geometry">
            <mxPoint x="-44" y="-59" as="offset" />
          </mxGeometry>
        </mxCell>
        <mxCell id="DS-w3lz_8ryrsSnlSQ1p-10" style="edgeStyle=orthogonalEdgeStyle;rounded=0;orthogonalLoop=1;jettySize=auto;html=1;entryX=0.75;entryY=1;entryDx=0;entryDy=0;exitX=1;exitY=0.5;exitDx=0;exitDy=0;" edge="1" parent="1" source="xgKgExJfXBVYcSohYrbL-8" target="smKxssMOUMo-qo7QEKKU-38">
          <mxGeometry relative="1" as="geometry">
            <mxPoint x="686" y="975" as="sourcePoint" />
            <mxPoint x="659.8" y="700.8400000000001" as="targetPoint" />
            <Array as="points">
              <mxPoint x="716" y="1065" />
              <mxPoint x="716" y="800" />
              <mxPoint x="679" y="800" />
            </Array>
          </mxGeometry>
        </mxCell>
        <mxCell id="DS-w3lz_8ryrsSnlSQ1p-11" value="&lt;span style=&quot;font-size: 12px&quot;&gt;current explicit preference&lt;/span&gt;" style="edgeLabel;html=1;align=center;verticalAlign=middle;resizable=0;points=[];rotation=90;fontSize=12;" vertex="1" connectable="0" parent="DS-w3lz_8ryrsSnlSQ1p-10">
          <mxGeometry x="-0.0863" y="2" relative="1" as="geometry">
            <mxPoint x="2" y="12" as="offset" />
          </mxGeometry>
        </mxCell>
        <mxCell id="DS-w3lz_8ryrsSnlSQ1p-12" value="&lt;p style=&quot;line-height: 0 ; font-size: 14px&quot;&gt;modified&lt;/p&gt;&lt;p style=&quot;line-height: 0 ; font-size: 14px&quot;&gt;list&lt;/p&gt;&lt;p style=&quot;font-size: 14px&quot;&gt;&lt;/p&gt;" style="edgeStyle=orthogonalEdgeStyle;rounded=0;orthogonalLoop=1;jettySize=auto;html=1;exitX=1;exitY=0.75;exitDx=0;exitDy=0;entryX=0.25;entryY=1;entryDx=0;entryDy=0;fontSize=14;" edge="1" parent="1" source="xgKgExJfXBVYcSohYrbL-3" target="UeAPzzno2TYIWlExPVS8-5">
          <mxGeometry x="0.4434" relative="1" as="geometry">
            <mxPoint x="686" y="885" as="sourcePoint" />
            <mxPoint x="744" y="699.1600000000001" as="targetPoint" />
            <mxPoint as="offset" />
          </mxGeometry>
        </mxCell>
        <mxCell id="DS-w3lz_8ryrsSnlSQ1p-13" value="&lt;p style=&quot;line-height: 0 ; font-size: 14px&quot;&gt;modified&lt;/p&gt;&lt;p style=&quot;line-height: 0 ; font-size: 14px&quot;&gt;list&lt;/p&gt;&lt;p style=&quot;font-size: 14px&quot;&gt;&lt;/p&gt;" style="edgeStyle=orthogonalEdgeStyle;rounded=0;orthogonalLoop=1;jettySize=auto;html=1;exitX=1;exitY=0.75;exitDx=0;exitDy=0;fontSize=14;" edge="1" parent="1" source="xgKgExJfXBVYcSohYrbL-8">
          <mxGeometry x="0.3682" relative="1" as="geometry">
            <mxPoint x="686" y="992.5" as="sourcePoint" />
            <mxPoint x="790" y="690" as="targetPoint" />
            <mxPoint as="offset" />
            <Array as="points">
              <mxPoint x="790" y="1083" />
              <mxPoint x="790" y="690" />
            </Array>
          </mxGeometry>
        </mxCell>
        <mxCell id="So6OyiBob3U83DG8krUc-1" value="&lt;p style=&quot;line-height: 0 ; font-size: 14px&quot;&gt;song list&lt;/p&gt;&lt;p style=&quot;font-size: 14px&quot;&gt;&lt;/p&gt;" style="edgeStyle=orthogonalEdgeStyle;rounded=0;orthogonalLoop=1;jettySize=auto;html=1;exitX=0.893;exitY=1.028;exitDx=0;exitDy=0;fontSize=14;exitPerimeter=0;entryX=0.25;entryY=1;entryDx=0;entryDy=0;" edge="1" parent="1" source="UeAPzzno2TYIWlExPVS8-5" target="LZ0dS0yGWzo_v5l1Trj1-6">
          <mxGeometry x="0.3682" relative="1" as="geometry">
            <mxPoint x="800" y="700" as="sourcePoint" />
            <mxPoint x="150" y="1020" as="targetPoint" />
            <mxPoint as="offset" />
            <Array as="points">
              <mxPoint x="806" y="700" />
              <mxPoint x="806" y="1020" />
              <mxPoint x="149" y="1020" />
            </Array>
          </mxGeometry>
        </mxCell>
      </root>
    </mxGraphModel>
  </diagram>
  <diagram id="Drcu0MwrPyKf_e4tPh1o" name="Page-3">
    <mxGraphModel dx="873" dy="446" grid="1" gridSize="10" guides="1" tooltips="1" connect="1" arrows="1" fold="1" page="1" pageScale="1" pageWidth="850" pageHeight="1100" math="0" shadow="0">
      <root>
        <mxCell id="0" />
        <mxCell id="1" parent="0" />
        <mxCell id="USbhxtSi4rUpMPwqYfNr-1" value="User" style="rounded=0;whiteSpace=wrap;html=1;" vertex="1" parent="1">
          <mxGeometry x="645" y="890" width="90" height="50" as="geometry" />
        </mxCell>
        <mxCell id="ntcQ4qWbHkuLiXFeICJv-1" value="Tournament&lt;br&gt;Server" style="rounded=0;whiteSpace=wrap;html=1;" vertex="1" parent="1">
          <mxGeometry x="351.46000000000004" y="560" width="90" height="50" as="geometry" />
        </mxCell>
        <mxCell id="ntcQ4qWbHkuLiXFeICJv-2" value="Remote&lt;br&gt;connection" style="rounded=0;whiteSpace=wrap;html=1;" vertex="1" parent="1">
          <mxGeometry x="365" y="240" width="90" height="50" as="geometry" />
        </mxCell>
        <mxCell id="EtHtMZsZzHWphjCx-P3N-1" style="edgeStyle=orthogonalEdgeStyle;rounded=0;orthogonalLoop=1;jettySize=auto;html=1;exitX=0;exitY=0.5;exitDx=0;exitDy=0;entryX=0.65;entryY=-0.033;entryDx=0;entryDy=0;entryPerimeter=0;" edge="1" parent="1" source="_3rkqLgLoKq9hYsogS8q-13" target="ntcQ4qWbHkuLiXFeICJv-1">
          <mxGeometry relative="1" as="geometry">
            <mxPoint x="115.45999999999998" y="580.28" as="sourcePoint" />
            <mxPoint x="445" y="570" as="targetPoint" />
            <Array as="points">
              <mxPoint x="637" y="543" />
              <mxPoint x="410" y="543" />
            </Array>
          </mxGeometry>
        </mxCell>
        <mxCell id="EtHtMZsZzHWphjCx-P3N-2" value="tournament id" style="edgeLabel;html=1;align=center;verticalAlign=middle;resizable=0;points=[];" vertex="1" connectable="0" parent="EtHtMZsZzHWphjCx-P3N-1">
          <mxGeometry x="-0.016" relative="1" as="geometry">
            <mxPoint x="-11" y="-2" as="offset" />
          </mxGeometry>
        </mxCell>
        <mxCell id="EtHtMZsZzHWphjCx-P3N-3" style="edgeStyle=orthogonalEdgeStyle;rounded=0;orthogonalLoop=1;jettySize=auto;html=1;exitX=1;exitY=0.25;exitDx=0;exitDy=0;" edge="1" parent="1" source="ntcQ4qWbHkuLiXFeICJv-1">
          <mxGeometry relative="1" as="geometry">
            <mxPoint x="351.46000000000004" y="584.71" as="sourcePoint" />
            <mxPoint x="636" y="572" as="targetPoint" />
          </mxGeometry>
        </mxCell>
        <mxCell id="EtHtMZsZzHWphjCx-P3N-4" value="tournament info" style="edgeLabel;html=1;align=center;verticalAlign=middle;resizable=0;points=[];" vertex="1" connectable="0" parent="EtHtMZsZzHWphjCx-P3N-3">
          <mxGeometry x="-0.016" relative="1" as="geometry">
            <mxPoint x="-32" as="offset" />
          </mxGeometry>
        </mxCell>
        <mxCell id="EtHtMZsZzHWphjCx-P3N-5" style="edgeStyle=orthogonalEdgeStyle;rounded=0;orthogonalLoop=1;jettySize=auto;html=1;exitX=0.112;exitY=1.038;exitDx=0;exitDy=0;exitPerimeter=0;entryX=0.25;entryY=0;entryDx=0;entryDy=0;" edge="1" parent="1" source="5bwQRYV1WhAvEmAQBHhe-6" target="ntcQ4qWbHkuLiXFeICJv-1">
          <mxGeometry relative="1" as="geometry">
            <mxPoint x="115.11499999999995" y="596.595" as="sourcePoint" />
            <mxPoint x="351.46000000000004" y="596" as="targetPoint" />
          </mxGeometry>
        </mxCell>
        <mxCell id="EtHtMZsZzHWphjCx-P3N-6" value="karaoke result" style="edgeLabel;html=1;align=center;verticalAlign=middle;resizable=0;points=[];" vertex="1" connectable="0" parent="EtHtMZsZzHWphjCx-P3N-5">
          <mxGeometry x="-0.016" relative="1" as="geometry">
            <mxPoint x="-16" as="offset" />
          </mxGeometry>
        </mxCell>
        <mxCell id="EtHtMZsZzHWphjCx-P3N-7" style="edgeStyle=orthogonalEdgeStyle;rounded=0;orthogonalLoop=1;jettySize=auto;html=1;exitX=0.838;exitY=0.999;exitDx=0;exitDy=0;entryX=0.997;entryY=0.559;entryDx=0;entryDy=0;entryPerimeter=0;exitPerimeter=0;" edge="1" parent="1" source="ntcQ4qWbHkuLiXFeICJv-1" target="5bwQRYV1WhAvEmAQBHhe-18">
          <mxGeometry relative="1" as="geometry">
            <mxPoint x="351.5500000000002" y="607.95" as="sourcePoint" />
            <mxPoint x="114.99999999999994" y="608" as="targetPoint" />
            <Array as="points">
              <mxPoint x="427" y="635" />
            </Array>
          </mxGeometry>
        </mxCell>
        <mxCell id="EtHtMZsZzHWphjCx-P3N-8" value="tournament result" style="edgeLabel;html=1;align=center;verticalAlign=middle;resizable=0;points=[];" vertex="1" connectable="0" parent="EtHtMZsZzHWphjCx-P3N-7">
          <mxGeometry x="-0.016" relative="1" as="geometry">
            <mxPoint x="-15" as="offset" />
          </mxGeometry>
        </mxCell>
        <mxCell id="gOZC21D-x90VD0FYdtL3-1" style="edgeStyle=orthogonalEdgeStyle;rounded=0;orthogonalLoop=1;jettySize=auto;html=1;exitX=0.75;exitY=0;exitDx=0;exitDy=0;entryX=1;entryY=0.5;entryDx=0;entryDy=0;" edge="1" parent="1" source="_3rkqLgLoKq9hYsogS8q-9" target="ntcQ4qWbHkuLiXFeICJv-2">
          <mxGeometry relative="1" as="geometry">
            <mxPoint x="324.995" y="324.1550000000001" as="sourcePoint" />
            <mxPoint x="324.19999999999993" y="180" as="targetPoint" />
            <Array as="points">
              <mxPoint x="711" y="265" />
            </Array>
          </mxGeometry>
        </mxCell>
        <mxCell id="gOZC21D-x90VD0FYdtL3-2" value="challenge request (host)" style="edgeLabel;html=1;align=center;verticalAlign=middle;resizable=0;points=[];rotation=0;" vertex="1" connectable="0" parent="gOZC21D-x90VD0FYdtL3-1">
          <mxGeometry x="-0.085" relative="1" as="geometry">
            <mxPoint x="-19" as="offset" />
          </mxGeometry>
        </mxCell>
        <mxCell id="gOZC21D-x90VD0FYdtL3-3" style="edgeStyle=orthogonalEdgeStyle;rounded=0;orthogonalLoop=1;jettySize=auto;html=1;entryX=0.794;entryY=-0.027;entryDx=0;entryDy=0;exitX=0.997;exitY=0.152;exitDx=0;exitDy=0;exitPerimeter=0;entryPerimeter=0;" edge="1" parent="1" source="ntcQ4qWbHkuLiXFeICJv-2" target="_3rkqLgLoKq9hYsogS8q-8">
          <mxGeometry relative="1" as="geometry">
            <mxPoint x="224.68000000000006" y="150.69999999999993" as="sourcePoint" />
            <mxPoint x="224.96000000000004" y="299.94499999999994" as="targetPoint" />
            <Array as="points">
              <mxPoint x="505" y="248" />
              <mxPoint x="740" y="247" />
            </Array>
          </mxGeometry>
        </mxCell>
        <mxCell id="gOZC21D-x90VD0FYdtL3-4" value="challenge request (guest)" style="edgeLabel;html=1;align=center;verticalAlign=middle;resizable=0;points=[];rotation=0;" vertex="1" connectable="0" parent="gOZC21D-x90VD0FYdtL3-3">
          <mxGeometry x="-0.085" relative="1" as="geometry">
            <mxPoint x="-12" as="offset" />
          </mxGeometry>
        </mxCell>
        <mxCell id="gOZC21D-x90VD0FYdtL3-5" style="edgeStyle=orthogonalEdgeStyle;rounded=0;orthogonalLoop=1;jettySize=auto;html=1;entryX=0.38;entryY=1.035;entryDx=0;entryDy=0;entryPerimeter=0;exitX=0.107;exitY=0.992;exitDx=0;exitDy=0;exitPerimeter=0;" edge="1" parent="1" source="ntcQ4qWbHkuLiXFeICJv-2" target="iD_N0N7yoygVmJ8K9ZuA-3">
          <mxGeometry relative="1" as="geometry">
            <mxPoint x="412" y="226" as="sourcePoint" />
            <mxPoint x="415" y="140" as="targetPoint" />
            <Array as="points">
              <mxPoint x="375" y="360" />
              <mxPoint x="262" y="360" />
            </Array>
          </mxGeometry>
        </mxCell>
        <mxCell id="gOZC21D-x90VD0FYdtL3-6" value="challenge result (guest)" style="edgeLabel;html=1;align=center;verticalAlign=middle;resizable=0;points=[];rotation=0;" vertex="1" connectable="0" parent="gOZC21D-x90VD0FYdtL3-5">
          <mxGeometry x="-0.085" relative="1" as="geometry">
            <mxPoint x="-23" as="offset" />
          </mxGeometry>
        </mxCell>
        <mxCell id="gOZC21D-x90VD0FYdtL3-7" style="edgeStyle=orthogonalEdgeStyle;rounded=0;orthogonalLoop=1;jettySize=auto;html=1;exitX=0.25;exitY=0;exitDx=0;exitDy=0;entryX=0.5;entryY=1;entryDx=0;entryDy=0;" edge="1" parent="1" source="5bwQRYV1WhAvEmAQBHhe-7" target="ntcQ4qWbHkuLiXFeICJv-2">
          <mxGeometry relative="1" as="geometry">
            <mxPoint x="257.62" y="333.755" as="sourcePoint" />
            <mxPoint x="257.9799999999999" y="151.25" as="targetPoint" />
            <Array as="points" />
          </mxGeometry>
        </mxCell>
        <mxCell id="gOZC21D-x90VD0FYdtL3-8" value="challenge result (host)" style="edgeLabel;html=1;align=center;verticalAlign=middle;resizable=0;points=[];rotation=90;" vertex="1" connectable="0" parent="gOZC21D-x90VD0FYdtL3-7">
          <mxGeometry x="-0.085" relative="1" as="geometry">
            <mxPoint as="offset" />
          </mxGeometry>
        </mxCell>
        <mxCell id="BJodNCVcKr3z2tsup5oy-1" value="" style="endArrow=classic;html=1;rounded=0;exitX=1.037;exitY=0.65;exitDx=0;exitDy=0;exitPerimeter=0;entryX=1;entryY=0.5;entryDx=0;entryDy=0;" edge="1" parent="1" source="USbhxtSi4rUpMPwqYfNr-1" target="_3rkqLgLoKq9hYsogS8q-3">
          <mxGeometry width="50" height="50" relative="1" as="geometry">
            <mxPoint x="650.96" y="600" as="sourcePoint" />
            <mxPoint x="184.99999999999994" y="581.8399999999999" as="targetPoint" />
            <Array as="points">
              <mxPoint x="840" y="930" />
              <mxPoint x="830" y="320" />
            </Array>
          </mxGeometry>
        </mxCell>
        <mxCell id="BJodNCVcKr3z2tsup5oy-2" value="tournament id" style="edgeLabel;html=1;align=center;verticalAlign=middle;resizable=0;points=[];rotation=90;" vertex="1" connectable="0" parent="BJodNCVcKr3z2tsup5oy-1">
          <mxGeometry x="0.118" y="1" relative="1" as="geometry">
            <mxPoint x="5" y="241" as="offset" />
          </mxGeometry>
        </mxCell>
        <mxCell id="BJodNCVcKr3z2tsup5oy-3" value="" style="endArrow=classic;html=1;rounded=0;exitX=1;exitY=0.25;exitDx=0;exitDy=0;entryX=1;entryY=0.607;entryDx=0;entryDy=0;entryPerimeter=0;" edge="1" parent="1" source="USbhxtSi4rUpMPwqYfNr-1" target="_3rkqLgLoKq9hYsogS8q-8">
          <mxGeometry width="50" height="50" relative="1" as="geometry">
            <mxPoint x="651.46" y="660" as="sourcePoint" />
            <mxPoint x="208.65999999999994" y="646.44" as="targetPoint" />
            <Array as="points">
              <mxPoint x="820" y="910" />
              <mxPoint x="795" y="450" />
            </Array>
          </mxGeometry>
        </mxCell>
        <mxCell id="BJodNCVcKr3z2tsup5oy-4" value="challenge request (host)" style="edgeLabel;html=1;align=center;verticalAlign=middle;resizable=0;points=[];rotation=90;" vertex="1" connectable="0" parent="BJodNCVcKr3z2tsup5oy-3">
          <mxGeometry x="0.118" y="1" relative="1" as="geometry">
            <mxPoint x="7" y="93" as="offset" />
          </mxGeometry>
        </mxCell>
        <mxCell id="BJodNCVcKr3z2tsup5oy-5" value="" style="endArrow=classic;html=1;rounded=0;exitX=1;exitY=0;exitDx=0;exitDy=0;entryX=1;entryY=0.5;entryDx=0;entryDy=0;" edge="1" parent="1" source="USbhxtSi4rUpMPwqYfNr-1" target="_3rkqLgLoKq9hYsogS8q-13">
          <mxGeometry width="50" height="50" relative="1" as="geometry">
            <mxPoint x="666.41" y="689.9999999999999" as="sourcePoint" />
            <mxPoint x="235" y="682.0400000000001" as="targetPoint" />
            <Array as="points">
              <mxPoint x="800" y="890" />
              <mxPoint x="775" y="550" />
            </Array>
          </mxGeometry>
        </mxCell>
        <mxCell id="BJodNCVcKr3z2tsup5oy-6" value="solo karaoke start" style="edgeLabel;html=1;align=center;verticalAlign=middle;resizable=0;points=[];rotation=90;" vertex="1" connectable="0" parent="BJodNCVcKr3z2tsup5oy-5">
          <mxGeometry x="0.118" y="1" relative="1" as="geometry">
            <mxPoint as="offset" />
          </mxGeometry>
        </mxCell>
        <mxCell id="ihUAic3oFGGs0ou8k9H2-1" value="" style="endArrow=classic;html=1;rounded=0;entryX=1;entryY=0.5;entryDx=0;entryDy=0;exitX=0;exitY=1;exitDx=0;exitDy=0;" edge="1" parent="1" source="USbhxtSi4rUpMPwqYfNr-1" target="_3rkqLgLoKq9hYsogS8q-18">
          <mxGeometry width="50" height="50" relative="1" as="geometry">
            <mxPoint x="630" y="1136.96" as="sourcePoint" />
            <mxPoint x="400" y="1156.96" as="targetPoint" />
          </mxGeometry>
        </mxCell>
        <mxCell id="ihUAic3oFGGs0ou8k9H2-2" value="recorded audio" style="edgeLabel;html=1;align=center;verticalAlign=middle;resizable=0;points=[];rotation=-23.2;" vertex="1" connectable="0" parent="ihUAic3oFGGs0ou8k9H2-1">
          <mxGeometry x="0.118" y="1" relative="1" as="geometry">
            <mxPoint x="30" y="-16" as="offset" />
          </mxGeometry>
        </mxCell>
        <mxCell id="ihUAic3oFGGs0ou8k9H2-3" value="" style="endArrow=classic;html=1;rounded=0;exitX=0;exitY=0.5;exitDx=0;exitDy=0;entryX=1;entryY=0.5;entryDx=0;entryDy=0;" edge="1" parent="1" source="USbhxtSi4rUpMPwqYfNr-1" target="PvwaKc-EVL_gWUHGLsRb-27">
          <mxGeometry width="50" height="50" relative="1" as="geometry">
            <mxPoint x="714.31" y="1237.3" as="sourcePoint" />
            <mxPoint x="295.595" y="1239.55" as="targetPoint" />
            <Array as="points">
              <mxPoint x="540" y="950" />
            </Array>
          </mxGeometry>
        </mxCell>
        <mxCell id="ihUAic3oFGGs0ou8k9H2-4" value="request adding effects" style="edgeLabel;html=1;align=center;verticalAlign=middle;resizable=0;points=[];rotation=-5.1;" vertex="1" connectable="0" parent="ihUAic3oFGGs0ou8k9H2-3">
          <mxGeometry x="0.118" y="1" relative="1" as="geometry">
            <mxPoint y="-1" as="offset" />
          </mxGeometry>
        </mxCell>
        <mxCell id="ihUAic3oFGGs0ou8k9H2-5" value="" style="endArrow=classic;html=1;rounded=0;exitX=0.694;exitY=0.983;exitDx=0;exitDy=0;exitPerimeter=0;entryX=1;entryY=0.75;entryDx=0;entryDy=0;" edge="1" parent="1" source="USbhxtSi4rUpMPwqYfNr-1" target="PvwaKc-EVL_gWUHGLsRb-16">
          <mxGeometry width="50" height="50" relative="1" as="geometry">
            <mxPoint x="706.3" y="1236.7" as="sourcePoint" />
            <mxPoint x="301.80499999999995" y="1251.05" as="targetPoint" />
            <Array as="points">
              <mxPoint x="560" y="1090" />
            </Array>
          </mxGeometry>
        </mxCell>
        <mxCell id="ihUAic3oFGGs0ou8k9H2-6" value="request playing recorded audio" style="edgeLabel;html=1;align=center;verticalAlign=middle;resizable=0;points=[];rotation=0;" vertex="1" connectable="0" parent="ihUAic3oFGGs0ou8k9H2-5">
          <mxGeometry x="0.118" y="1" relative="1" as="geometry">
            <mxPoint as="offset" />
          </mxGeometry>
        </mxCell>
        <mxCell id="OkekAqf92Wi7r91IFImP-1" value="" style="endArrow=classic;html=1;rounded=0;entryX=-0.021;entryY=0.105;entryDx=0;entryDy=0;entryPerimeter=0;exitX=-0.002;exitY=0.303;exitDx=0;exitDy=0;exitPerimeter=0;" edge="1" parent="1" source="iD_N0N7yoygVmJ8K9ZuA-3" target="USbhxtSi4rUpMPwqYfNr-1">
          <mxGeometry width="50" height="50" relative="1" as="geometry">
            <mxPoint x="54.994999999999976" y="952.3000000000002" as="sourcePoint" />
            <mxPoint x="560.1699999999998" y="910" as="targetPoint" />
            <Array as="points">
              <mxPoint x="85" y="280" />
              <mxPoint x="80" y="670" />
              <mxPoint x="220" y="800" />
              <mxPoint x="340" y="870" />
              <mxPoint x="480" y="900" />
            </Array>
          </mxGeometry>
        </mxCell>
        <mxCell id="OkekAqf92Wi7r91IFImP-2" value="challenge result (host)" style="edgeLabel;html=1;align=center;verticalAlign=middle;resizable=0;points=[];rotation=15;" vertex="1" connectable="0" parent="OkekAqf92Wi7r91IFImP-1">
          <mxGeometry x="0.118" y="1" relative="1" as="geometry">
            <mxPoint x="272" y="139" as="offset" />
          </mxGeometry>
        </mxCell>
        <mxCell id="OkekAqf92Wi7r91IFImP-3" value="" style="endArrow=classic;html=1;rounded=0;entryX=0.667;entryY=0;entryDx=0;entryDy=0;entryPerimeter=0;exitX=1;exitY=0.5;exitDx=0;exitDy=0;" edge="1" parent="1" source="PvwaKc-EVL_gWUHGLsRb-37" target="USbhxtSi4rUpMPwqYfNr-1">
          <mxGeometry width="50" height="50" relative="1" as="geometry">
            <mxPoint x="186.24" y="881.1250000000001" as="sourcePoint" />
            <mxPoint x="639.9599999999999" y="842.2999999999998" as="targetPoint" />
            <Array as="points">
              <mxPoint x="725" y="790" />
            </Array>
          </mxGeometry>
        </mxCell>
        <mxCell id="OkekAqf92Wi7r91IFImP-4" value="play music and show lyrics and audio graph" style="edgeLabel;html=1;align=center;verticalAlign=middle;resizable=0;points=[];rotation=5.1;" vertex="1" connectable="0" parent="OkekAqf92Wi7r91IFImP-3">
          <mxGeometry x="0.118" y="1" relative="1" as="geometry">
            <mxPoint x="-50" y="-6" as="offset" />
          </mxGeometry>
        </mxCell>
        <mxCell id="OkekAqf92Wi7r91IFImP-5" value="" style="endArrow=classic;html=1;rounded=0;entryX=0.75;entryY=1;entryDx=0;entryDy=0;exitX=1;exitY=0;exitDx=0;exitDy=0;" edge="1" parent="1" source="9o34GyeqXQ1Cm3QzUo0N-11" target="9o34GyeqXQ1Cm3QzUo0N-15">
          <mxGeometry width="50" height="50" relative="1" as="geometry">
            <mxPoint x="166.59000000000006" y="-27.300000000000068" as="sourcePoint" />
            <mxPoint x="644.9999999999999" y="-70.00000000000011" as="targetPoint" />
          </mxGeometry>
        </mxCell>
        <mxCell id="OkekAqf92Wi7r91IFImP-6" value="karaoke result" style="edgeLabel;html=1;align=center;verticalAlign=middle;resizable=0;points=[];" vertex="1" connectable="0" parent="OkekAqf92Wi7r91IFImP-5">
          <mxGeometry x="0.118" y="1" relative="1" as="geometry">
            <mxPoint x="-3" y="5" as="offset" />
          </mxGeometry>
        </mxCell>
        <mxCell id="OkekAqf92Wi7r91IFImP-7" value="" style="endArrow=classic;html=1;rounded=0;exitX=0.75;exitY=1;exitDx=0;exitDy=0;entryX=0.439;entryY=-0.043;entryDx=0;entryDy=0;entryPerimeter=0;" edge="1" parent="1" source="5bwQRYV1WhAvEmAQBHhe-18" target="USbhxtSi4rUpMPwqYfNr-1">
          <mxGeometry width="50" height="50" relative="1" as="geometry">
            <mxPoint x="134.83500000000004" y="881.6999999999999" as="sourcePoint" />
            <mxPoint x="688.5599999999998" y="841.15" as="targetPoint" />
            <Array as="points">
              <mxPoint x="250" y="780" />
              <mxPoint x="347" y="843" />
            </Array>
          </mxGeometry>
        </mxCell>
        <mxCell id="OkekAqf92Wi7r91IFImP-8" value="tournament result" style="edgeLabel;html=1;align=center;verticalAlign=middle;resizable=0;points=[];rotation=10.4;" vertex="1" connectable="0" parent="OkekAqf92Wi7r91IFImP-7">
          <mxGeometry x="0.118" y="1" relative="1" as="geometry">
            <mxPoint x="11" as="offset" />
          </mxGeometry>
        </mxCell>
        <mxCell id="OkekAqf92Wi7r91IFImP-9" value="" style="endArrow=classic;html=1;rounded=0;entryX=0;entryY=0;entryDx=0;entryDy=0;exitX=0.445;exitY=1.03;exitDx=0;exitDy=0;exitPerimeter=0;" edge="1" parent="1" source="5bwQRYV1WhAvEmAQBHhe-18" target="USbhxtSi4rUpMPwqYfNr-1">
          <mxGeometry width="50" height="50" relative="1" as="geometry">
            <mxPoint x="105" y="540" as="sourcePoint" />
            <mxPoint x="699.9899999999999" y="840.15" as="targetPoint" />
            <Array as="points">
              <mxPoint x="210" y="700" />
              <mxPoint x="220" y="780" />
              <mxPoint x="334" y="852" />
              <mxPoint x="473" y="880" />
            </Array>
          </mxGeometry>
        </mxCell>
        <mxCell id="OkekAqf92Wi7r91IFImP-10" value="tournament history" style="edgeLabel;html=1;align=center;verticalAlign=middle;resizable=0;points=[];rotation=10;" vertex="1" connectable="0" parent="OkekAqf92Wi7r91IFImP-9">
          <mxGeometry x="0.118" y="1" relative="1" as="geometry">
            <mxPoint x="50" y="10" as="offset" />
          </mxGeometry>
        </mxCell>
        <mxCell id="OkekAqf92Wi7r91IFImP-11" value="" style="endArrow=classic;html=1;rounded=0;entryX=0;entryY=0.5;entryDx=0;entryDy=0;exitX=0.75;exitY=0;exitDx=0;exitDy=0;" edge="1" parent="1" source="9o34GyeqXQ1Cm3QzUo0N-11" target="9o34GyeqXQ1Cm3QzUo0N-15">
          <mxGeometry width="50" height="50" relative="1" as="geometry">
            <mxPoint x="185.00000000000003" y="-167.30000000000007" as="sourcePoint" />
            <mxPoint x="674.13" y="-209.55000000000007" as="targetPoint" />
            <Array as="points">
              <mxPoint x="280" y="30" />
            </Array>
          </mxGeometry>
        </mxCell>
        <mxCell id="OkekAqf92Wi7r91IFImP-12" value="karaoke history" style="edgeLabel;html=1;align=center;verticalAlign=middle;resizable=0;points=[];" vertex="1" connectable="0" parent="OkekAqf92Wi7r91IFImP-11">
          <mxGeometry x="0.118" y="1" relative="1" as="geometry">
            <mxPoint x="1" y="8" as="offset" />
          </mxGeometry>
        </mxCell>
        <mxCell id="OkekAqf92Wi7r91IFImP-13" value="" style="endArrow=classic;html=1;rounded=0;entryX=0;entryY=0.25;entryDx=0;entryDy=0;exitX=-0.001;exitY=0.711;exitDx=0;exitDy=0;exitPerimeter=0;" edge="1" parent="1" source="iD_N0N7yoygVmJ8K9ZuA-3" target="USbhxtSi4rUpMPwqYfNr-1">
          <mxGeometry width="50" height="50" relative="1" as="geometry">
            <mxPoint x="25" y="120" as="sourcePoint" />
            <mxPoint x="584.1399999999999" y="950" as="targetPoint" />
            <Array as="points">
              <mxPoint x="50" y="305" />
              <mxPoint x="60" y="680" />
              <mxPoint x="280" y="870" />
              <mxPoint x="520" y="930" />
            </Array>
          </mxGeometry>
        </mxCell>
        <mxCell id="OkekAqf92Wi7r91IFImP-14" value="challenge history" style="edgeLabel;html=1;align=center;verticalAlign=middle;resizable=0;points=[];rotation=15;" vertex="1" connectable="0" parent="OkekAqf92Wi7r91IFImP-13">
          <mxGeometry x="0.118" y="1" relative="1" as="geometry">
            <mxPoint x="256" y="138" as="offset" />
          </mxGeometry>
        </mxCell>
        <mxCell id="_3rkqLgLoKq9hYsogS8q-1" value="" style="group" vertex="1" connectable="0" parent="1">
          <mxGeometry x="635" width="120" height="70" as="geometry" />
        </mxCell>
        <mxCell id="_3rkqLgLoKq9hYsogS8q-2" value="" style="group" vertex="1" connectable="0" parent="_3rkqLgLoKq9hYsogS8q-1">
          <mxGeometry width="120" height="70" as="geometry" />
        </mxCell>
        <mxCell id="_3rkqLgLoKq9hYsogS8q-3" value="&lt;div&gt;&lt;br&gt;&lt;/div&gt;&lt;div&gt;Solo Karaoke&lt;/div&gt;" style="rounded=1;whiteSpace=wrap;html=1;fontSize=17;" vertex="1" parent="_3rkqLgLoKq9hYsogS8q-2">
          <mxGeometry width="120" height="70" as="geometry" />
        </mxCell>
        <mxCell id="_3rkqLgLoKq9hYsogS8q-4" value="3.1" style="text;html=1;strokeColor=none;fillColor=none;align=center;verticalAlign=middle;whiteSpace=wrap;rounded=0;fontSize=17;" vertex="1" parent="_3rkqLgLoKq9hYsogS8q-2">
          <mxGeometry x="34.285714285714285" width="42.857142857142854" height="19.999999999999996" as="geometry" />
        </mxCell>
        <mxCell id="_3rkqLgLoKq9hYsogS8q-5" value="" style="endArrow=none;html=1;rounded=0;fontSize=17;exitX=0;exitY=0.25;exitDx=0;exitDy=0;entryX=1;entryY=0.25;entryDx=0;entryDy=0;" edge="1" parent="_3rkqLgLoKq9hYsogS8q-1">
          <mxGeometry width="50" height="50" relative="1" as="geometry">
            <mxPoint y="21.124999999999996" as="sourcePoint" />
            <mxPoint x="120" y="21.124999999999996" as="targetPoint" />
          </mxGeometry>
        </mxCell>
        <mxCell id="_3rkqLgLoKq9hYsogS8q-6" value="" style="group" vertex="1" connectable="0" parent="1">
          <mxGeometry x="645" y="280" width="120" height="70" as="geometry" />
        </mxCell>
        <mxCell id="_3rkqLgLoKq9hYsogS8q-7" value="" style="group" vertex="1" connectable="0" parent="_3rkqLgLoKq9hYsogS8q-6">
          <mxGeometry width="120" height="70" as="geometry" />
        </mxCell>
        <mxCell id="_3rkqLgLoKq9hYsogS8q-8" value="&lt;div&gt;&lt;br&gt;&lt;/div&gt;&lt;div&gt;Duo Karaoke&lt;/div&gt;" style="rounded=1;whiteSpace=wrap;html=1;fontSize=17;" vertex="1" parent="_3rkqLgLoKq9hYsogS8q-7">
          <mxGeometry width="120" height="70" as="geometry" />
        </mxCell>
        <mxCell id="_3rkqLgLoKq9hYsogS8q-9" value="3.2" style="text;html=1;strokeColor=none;fillColor=none;align=center;verticalAlign=middle;whiteSpace=wrap;rounded=0;fontSize=17;" vertex="1" parent="_3rkqLgLoKq9hYsogS8q-7">
          <mxGeometry x="34.285714285714285" width="42.857142857142854" height="19.999999999999996" as="geometry" />
        </mxCell>
        <mxCell id="_3rkqLgLoKq9hYsogS8q-10" value="" style="endArrow=none;html=1;rounded=0;fontSize=17;exitX=0;exitY=0.25;exitDx=0;exitDy=0;entryX=1;entryY=0.25;entryDx=0;entryDy=0;" edge="1" parent="_3rkqLgLoKq9hYsogS8q-6">
          <mxGeometry width="50" height="50" relative="1" as="geometry">
            <mxPoint y="21.124999999999996" as="sourcePoint" />
            <mxPoint x="120" y="21.124999999999996" as="targetPoint" />
          </mxGeometry>
        </mxCell>
        <mxCell id="_3rkqLgLoKq9hYsogS8q-11" value="" style="group" vertex="1" connectable="0" parent="1">
          <mxGeometry x="636.46" y="510" width="120" height="70" as="geometry" />
        </mxCell>
        <mxCell id="_3rkqLgLoKq9hYsogS8q-12" value="" style="group" vertex="1" connectable="0" parent="_3rkqLgLoKq9hYsogS8q-11">
          <mxGeometry width="120" height="70" as="geometry" />
        </mxCell>
        <mxCell id="_3rkqLgLoKq9hYsogS8q-13" value="&lt;div&gt;&lt;br&gt;&lt;/div&gt;&lt;div&gt;Karaoke Tournament&lt;/div&gt;" style="rounded=1;whiteSpace=wrap;html=1;fontSize=17;" vertex="1" parent="_3rkqLgLoKq9hYsogS8q-12">
          <mxGeometry width="120" height="70" as="geometry" />
        </mxCell>
        <mxCell id="_3rkqLgLoKq9hYsogS8q-14" value="3.3" style="text;html=1;strokeColor=none;fillColor=none;align=center;verticalAlign=middle;whiteSpace=wrap;rounded=0;fontSize=17;" vertex="1" parent="_3rkqLgLoKq9hYsogS8q-12">
          <mxGeometry x="34.285714285714285" width="42.857142857142854" height="19.999999999999996" as="geometry" />
        </mxCell>
        <mxCell id="_3rkqLgLoKq9hYsogS8q-15" value="" style="endArrow=none;html=1;rounded=0;fontSize=17;exitX=0;exitY=0.25;exitDx=0;exitDy=0;entryX=1;entryY=0.25;entryDx=0;entryDy=0;" edge="1" parent="_3rkqLgLoKq9hYsogS8q-11">
          <mxGeometry width="50" height="50" relative="1" as="geometry">
            <mxPoint y="21.124999999999996" as="sourcePoint" />
            <mxPoint x="120" y="21.124999999999996" as="targetPoint" />
          </mxGeometry>
        </mxCell>
        <mxCell id="_3rkqLgLoKq9hYsogS8q-16" value="" style="group" vertex="1" connectable="0" parent="1">
          <mxGeometry x="330" y="1000" width="100" height="57" as="geometry" />
        </mxCell>
        <mxCell id="_3rkqLgLoKq9hYsogS8q-17" value="" style="group" vertex="1" connectable="0" parent="_3rkqLgLoKq9hYsogS8q-16">
          <mxGeometry width="100" height="57" as="geometry" />
        </mxCell>
        <mxCell id="_3rkqLgLoKq9hYsogS8q-18" value="&lt;div&gt;&lt;br&gt;&lt;/div&gt;&lt;div&gt;Save Audio&lt;/div&gt;" style="rounded=1;whiteSpace=wrap;html=1;fontSize=17;" vertex="1" parent="_3rkqLgLoKq9hYsogS8q-17">
          <mxGeometry width="100" height="57" as="geometry" />
        </mxCell>
        <mxCell id="_3rkqLgLoKq9hYsogS8q-19" value="3.4" style="text;html=1;strokeColor=none;fillColor=none;align=center;verticalAlign=middle;whiteSpace=wrap;rounded=0;fontSize=17;" vertex="1" parent="_3rkqLgLoKq9hYsogS8q-17">
          <mxGeometry x="28.571428571428573" width="35.714285714285715" height="16.28571428571428" as="geometry" />
        </mxCell>
        <mxCell id="_3rkqLgLoKq9hYsogS8q-20" value="" style="endArrow=none;html=1;rounded=0;fontSize=17;exitX=0;exitY=0.25;exitDx=0;exitDy=0;entryX=1;entryY=0.25;entryDx=0;entryDy=0;" edge="1" parent="_3rkqLgLoKq9hYsogS8q-16">
          <mxGeometry width="50" height="50" relative="1" as="geometry">
            <mxPoint y="17.201785714285712" as="sourcePoint" />
            <mxPoint x="100" y="17.201785714285712" as="targetPoint" />
          </mxGeometry>
        </mxCell>
        <mxCell id="hmij-g3Fw2RnIr3Cbuvn-1" value="" style="group" vertex="1" connectable="0" parent="1">
          <mxGeometry x="60" y="920" width="130" height="40" as="geometry" />
        </mxCell>
        <mxCell id="hmij-g3Fw2RnIr3Cbuvn-2" value="" style="html=1;dashed=0;whitespace=wrap;shape=mxgraph.dfd.dataStoreID;align=left;spacingLeft=3;points=[[0,0],[0.5,0],[1,0],[0,0.5],[1,0.5],[0,1],[0.5,1],[1,1]];fontSize=17;" vertex="1" parent="hmij-g3Fw2RnIr3Cbuvn-1">
          <mxGeometry width="130.00000000000003" height="40" as="geometry" />
        </mxCell>
        <mxCell id="hmij-g3Fw2RnIr3Cbuvn-3" value="Recorded Audio DB" style="text;html=1;strokeColor=none;fillColor=none;align=center;verticalAlign=middle;whiteSpace=wrap;rounded=0;fontSize=17;" vertex="1" parent="hmij-g3Fw2RnIr3Cbuvn-1">
          <mxGeometry x="39" width="91" height="40" as="geometry" />
        </mxCell>
        <mxCell id="hmij-g3Fw2RnIr3Cbuvn-4" value="" style="endArrow=classic;html=1;rounded=0;entryX=0.25;entryY=1;entryDx=0;entryDy=0;exitX=-0.01;exitY=0.905;exitDx=0;exitDy=0;exitPerimeter=0;" edge="1" parent="1" source="_3rkqLgLoKq9hYsogS8q-18" target="hmij-g3Fw2RnIr3Cbuvn-3">
          <mxGeometry width="50" height="50" relative="1" as="geometry">
            <mxPoint x="640" y="1146.96" as="sourcePoint" />
            <mxPoint x="410" y="1151.96" as="targetPoint" />
            <Array as="points">
              <mxPoint x="250" y="1030" />
            </Array>
          </mxGeometry>
        </mxCell>
        <mxCell id="hmij-g3Fw2RnIr3Cbuvn-5" value="recorded audio" style="edgeLabel;html=1;align=center;verticalAlign=middle;resizable=0;points=[];" vertex="1" connectable="0" parent="hmij-g3Fw2RnIr3Cbuvn-4">
          <mxGeometry x="0.118" y="1" relative="1" as="geometry">
            <mxPoint as="offset" />
          </mxGeometry>
        </mxCell>
        <mxCell id="PvwaKc-EVL_gWUHGLsRb-14" value="" style="group" vertex="1" connectable="0" parent="1">
          <mxGeometry x="130" y="1050" width="88.54" height="50" as="geometry" />
        </mxCell>
        <mxCell id="PvwaKc-EVL_gWUHGLsRb-15" value="" style="group" vertex="1" connectable="0" parent="PvwaKc-EVL_gWUHGLsRb-14">
          <mxGeometry width="88.54" height="50" as="geometry" />
        </mxCell>
        <mxCell id="PvwaKc-EVL_gWUHGLsRb-16" value="&lt;div&gt;&lt;br&gt;&lt;/div&gt;&lt;div&gt;Play Audio&lt;/div&gt;" style="rounded=1;whiteSpace=wrap;html=1;fontSize=17;" vertex="1" parent="PvwaKc-EVL_gWUHGLsRb-15">
          <mxGeometry width="88.54" height="50" as="geometry" />
        </mxCell>
        <mxCell id="PvwaKc-EVL_gWUHGLsRb-17" value="3.5" style="text;html=1;strokeColor=none;fillColor=none;align=center;verticalAlign=middle;whiteSpace=wrap;rounded=0;fontSize=17;" vertex="1" parent="PvwaKc-EVL_gWUHGLsRb-15">
          <mxGeometry x="25.297142857142855" width="31.62142857142857" height="14.285714285714283" as="geometry" />
        </mxCell>
        <mxCell id="PvwaKc-EVL_gWUHGLsRb-18" value="" style="endArrow=none;html=1;rounded=0;fontSize=17;exitX=0;exitY=0.25;exitDx=0;exitDy=0;entryX=1;entryY=0.25;entryDx=0;entryDy=0;" edge="1" parent="PvwaKc-EVL_gWUHGLsRb-14">
          <mxGeometry width="50" height="50" relative="1" as="geometry">
            <mxPoint y="15.089285714285712" as="sourcePoint" />
            <mxPoint x="88.54" y="15.089285714285712" as="targetPoint" />
          </mxGeometry>
        </mxCell>
        <mxCell id="PvwaKc-EVL_gWUHGLsRb-19" value="" style="endArrow=classic;html=1;rounded=0;entryX=0.32;entryY=1.05;entryDx=0;entryDy=0;exitX=1;exitY=0.5;exitDx=0;exitDy=0;entryPerimeter=0;" edge="1" parent="1" source="PvwaKc-EVL_gWUHGLsRb-16" target="USbhxtSi4rUpMPwqYfNr-1">
          <mxGeometry width="50" height="50" relative="1" as="geometry">
            <mxPoint x="425" y="1365" as="sourcePoint" />
            <mxPoint x="655" y="1360" as="targetPoint" />
            <Array as="points">
              <mxPoint x="450" y="1070" />
            </Array>
          </mxGeometry>
        </mxCell>
        <mxCell id="PvwaKc-EVL_gWUHGLsRb-20" value="play recorded audio" style="edgeLabel;html=1;align=center;verticalAlign=middle;resizable=0;points=[];rotation=-30;" vertex="1" connectable="0" parent="PvwaKc-EVL_gWUHGLsRb-19">
          <mxGeometry x="0.118" y="1" relative="1" as="geometry">
            <mxPoint as="offset" />
          </mxGeometry>
        </mxCell>
        <mxCell id="PvwaKc-EVL_gWUHGLsRb-23" value="" style="endArrow=classic;html=1;rounded=0;entryX=0;entryY=0.5;entryDx=0;entryDy=0;exitX=0;exitY=1;exitDx=0;exitDy=0;" edge="1" parent="1" source="hmij-g3Fw2RnIr3Cbuvn-3" target="PvwaKc-EVL_gWUHGLsRb-16">
          <mxGeometry width="50" height="50" relative="1" as="geometry">
            <mxPoint x="111.75" y="1126.96" as="sourcePoint" />
            <mxPoint x="290" y="1151.96" as="targetPoint" />
          </mxGeometry>
        </mxCell>
        <mxCell id="PvwaKc-EVL_gWUHGLsRb-24" value="recorded audio" style="edgeLabel;html=1;align=center;verticalAlign=middle;resizable=0;points=[];" vertex="1" connectable="0" parent="PvwaKc-EVL_gWUHGLsRb-23">
          <mxGeometry x="0.118" y="1" relative="1" as="geometry">
            <mxPoint as="offset" />
          </mxGeometry>
        </mxCell>
        <mxCell id="PvwaKc-EVL_gWUHGLsRb-25" value="" style="group" vertex="1" connectable="0" parent="1">
          <mxGeometry x="320" y="920" width="105" height="60" as="geometry" />
        </mxCell>
        <mxCell id="PvwaKc-EVL_gWUHGLsRb-26" value="" style="group" vertex="1" connectable="0" parent="PvwaKc-EVL_gWUHGLsRb-25">
          <mxGeometry width="105" height="60" as="geometry" />
        </mxCell>
        <mxCell id="PvwaKc-EVL_gWUHGLsRb-27" value="&lt;div&gt;&lt;br&gt;&lt;/div&gt;&lt;div&gt;Add Effects&lt;/div&gt;" style="rounded=1;whiteSpace=wrap;html=1;fontSize=17;" vertex="1" parent="PvwaKc-EVL_gWUHGLsRb-26">
          <mxGeometry width="105" height="60" as="geometry" />
        </mxCell>
        <mxCell id="PvwaKc-EVL_gWUHGLsRb-28" value="3.6" style="text;html=1;strokeColor=none;fillColor=none;align=center;verticalAlign=middle;whiteSpace=wrap;rounded=0;fontSize=17;" vertex="1" parent="PvwaKc-EVL_gWUHGLsRb-26">
          <mxGeometry x="30" width="37.5" height="17.14285714285714" as="geometry" />
        </mxCell>
        <mxCell id="PvwaKc-EVL_gWUHGLsRb-29" value="" style="endArrow=none;html=1;rounded=0;fontSize=17;exitX=0;exitY=0.25;exitDx=0;exitDy=0;entryX=1;entryY=0.25;entryDx=0;entryDy=0;" edge="1" parent="PvwaKc-EVL_gWUHGLsRb-25">
          <mxGeometry width="50" height="50" relative="1" as="geometry">
            <mxPoint y="18.107142857142854" as="sourcePoint" />
            <mxPoint x="105" y="18.107142857142854" as="targetPoint" />
          </mxGeometry>
        </mxCell>
        <mxCell id="PvwaKc-EVL_gWUHGLsRb-30" value="" style="endArrow=classic;html=1;rounded=0;exitX=1;exitY=0.75;exitDx=0;exitDy=0;entryX=1;entryY=0.25;entryDx=0;entryDy=0;" edge="1" parent="1" source="PvwaKc-EVL_gWUHGLsRb-27" target="_3rkqLgLoKq9hYsogS8q-18">
          <mxGeometry width="50" height="50" relative="1" as="geometry">
            <mxPoint x="709.31" y="1104.26" as="sourcePoint" />
            <mxPoint x="320" y="1050" as="targetPoint" />
            <Array as="points">
              <mxPoint x="480" y="990" />
            </Array>
          </mxGeometry>
        </mxCell>
        <mxCell id="PvwaKc-EVL_gWUHGLsRb-31" value="audio&lt;br&gt;with effects" style="edgeLabel;html=1;align=center;verticalAlign=middle;resizable=0;points=[];rotation=15;" vertex="1" connectable="0" parent="PvwaKc-EVL_gWUHGLsRb-30">
          <mxGeometry x="0.118" y="1" relative="1" as="geometry">
            <mxPoint x="-24" y="-11" as="offset" />
          </mxGeometry>
        </mxCell>
        <mxCell id="PvwaKc-EVL_gWUHGLsRb-32" value="" style="endArrow=classic;html=1;rounded=0;entryX=1;entryY=0.75;entryDx=0;entryDy=0;exitX=0;exitY=0.5;exitDx=0;exitDy=0;" edge="1" parent="1" source="_3rkqLgLoKq9hYsogS8q-18" target="hmij-g3Fw2RnIr3Cbuvn-3">
          <mxGeometry width="50" height="50" relative="1" as="geometry">
            <mxPoint x="290" y="1169.46" as="sourcePoint" />
            <mxPoint x="111.75" y="1126.96" as="targetPoint" />
          </mxGeometry>
        </mxCell>
        <mxCell id="PvwaKc-EVL_gWUHGLsRb-33" value="audio with effects" style="edgeLabel;html=1;align=center;verticalAlign=middle;resizable=0;points=[];" vertex="1" connectable="0" parent="PvwaKc-EVL_gWUHGLsRb-32">
          <mxGeometry x="0.118" y="1" relative="1" as="geometry">
            <mxPoint as="offset" />
          </mxGeometry>
        </mxCell>
        <mxCell id="PvwaKc-EVL_gWUHGLsRb-35" value="" style="group" vertex="1" connectable="0" parent="1">
          <mxGeometry x="368" y="720" width="115" height="80" as="geometry" />
        </mxCell>
        <mxCell id="PvwaKc-EVL_gWUHGLsRb-36" value="" style="group" vertex="1" connectable="0" parent="PvwaKc-EVL_gWUHGLsRb-35">
          <mxGeometry width="115" height="80" as="geometry" />
        </mxCell>
        <mxCell id="PvwaKc-EVL_gWUHGLsRb-37" value="&lt;div&gt;&lt;br&gt;&lt;/div&gt;&lt;div&gt;Play Music, Show Lyrics, Audio Graph&lt;/div&gt;" style="rounded=1;whiteSpace=wrap;html=1;fontSize=17;" vertex="1" parent="PvwaKc-EVL_gWUHGLsRb-36">
          <mxGeometry width="115" height="80" as="geometry" />
        </mxCell>
        <mxCell id="PvwaKc-EVL_gWUHGLsRb-38" value="3.7" style="text;html=1;strokeColor=none;fillColor=none;align=center;verticalAlign=middle;whiteSpace=wrap;rounded=0;fontSize=17;" vertex="1" parent="PvwaKc-EVL_gWUHGLsRb-36">
          <mxGeometry x="32.857142857142854" width="41.07142857142857" height="22.85714285714285" as="geometry" />
        </mxCell>
        <mxCell id="PvwaKc-EVL_gWUHGLsRb-39" value="" style="endArrow=none;html=1;rounded=0;fontSize=17;exitX=0;exitY=0.25;exitDx=0;exitDy=0;entryX=1;entryY=0.25;entryDx=0;entryDy=0;" edge="1" parent="PvwaKc-EVL_gWUHGLsRb-35">
          <mxGeometry width="50" height="50" relative="1" as="geometry">
            <mxPoint y="18.00285714285714" as="sourcePoint" />
            <mxPoint x="115" y="18.00285714285714" as="targetPoint" />
          </mxGeometry>
        </mxCell>
        <mxCell id="PvwaKc-EVL_gWUHGLsRb-40" value="" style="endArrow=classic;html=1;rounded=0;entryX=1.012;entryY=0.673;entryDx=0;entryDy=0;entryPerimeter=0;" edge="1" parent="1" target="PvwaKc-EVL_gWUHGLsRb-37">
          <mxGeometry width="50" height="50" relative="1" as="geometry">
            <mxPoint x="725" y="580" as="sourcePoint" />
            <mxPoint x="465" y="790" as="targetPoint" />
            <Array as="points">
              <mxPoint x="670" y="640" />
              <mxPoint x="630" y="670" />
            </Array>
          </mxGeometry>
        </mxCell>
        <mxCell id="PvwaKc-EVL_gWUHGLsRb-41" value="music, lyrics and audio graph" style="edgeLabel;html=1;align=center;verticalAlign=middle;resizable=0;points=[];rotation=-35;" vertex="1" connectable="0" parent="PvwaKc-EVL_gWUHGLsRb-40">
          <mxGeometry x="0.118" y="1" relative="1" as="geometry">
            <mxPoint x="15" y="-14" as="offset" />
          </mxGeometry>
        </mxCell>
        <mxCell id="PvwaKc-EVL_gWUHGLsRb-42" value="" style="endArrow=classic;html=1;rounded=0;entryX=1.014;entryY=0.156;entryDx=0;entryDy=0;entryPerimeter=0;exitX=0;exitY=0.5;exitDx=0;exitDy=0;" edge="1" parent="1" source="_3rkqLgLoKq9hYsogS8q-8" target="PvwaKc-EVL_gWUHGLsRb-37">
          <mxGeometry width="50" height="50" relative="1" as="geometry">
            <mxPoint x="735" y="590" as="sourcePoint" />
            <mxPoint x="475" y="800" as="targetPoint" />
            <Array as="points">
              <mxPoint x="615" y="440" />
              <mxPoint x="600" y="640" />
            </Array>
          </mxGeometry>
        </mxCell>
        <mxCell id="PvwaKc-EVL_gWUHGLsRb-43" value="music, lyrics and audio graph" style="edgeLabel;html=1;align=center;verticalAlign=middle;resizable=0;points=[];rotation=-40.7;" vertex="1" connectable="0" parent="PvwaKc-EVL_gWUHGLsRb-42">
          <mxGeometry x="0.118" y="1" relative="1" as="geometry">
            <mxPoint x="-46" y="92" as="offset" />
          </mxGeometry>
        </mxCell>
        <mxCell id="PvwaKc-EVL_gWUHGLsRb-44" value="" style="endArrow=classic;html=1;rounded=0;entryX=0.826;entryY=-0.031;entryDx=0;entryDy=0;entryPerimeter=0;exitX=0;exitY=0.5;exitDx=0;exitDy=0;" edge="1" parent="1" source="_3rkqLgLoKq9hYsogS8q-3" target="PvwaKc-EVL_gWUHGLsRb-37">
          <mxGeometry width="50" height="50" relative="1" as="geometry">
            <mxPoint x="645" y="445" as="sourcePoint" />
            <mxPoint x="476.6100000000001" y="782.4800000000002" as="targetPoint" />
            <Array as="points">
              <mxPoint x="605" y="340" />
              <mxPoint x="570" y="630" />
            </Array>
          </mxGeometry>
        </mxCell>
        <mxCell id="PvwaKc-EVL_gWUHGLsRb-45" value="music, lyrics and audio graph" style="edgeLabel;html=1;align=center;verticalAlign=middle;resizable=0;points=[];rotation=-36.7;" vertex="1" connectable="0" parent="PvwaKc-EVL_gWUHGLsRb-44">
          <mxGeometry x="0.118" y="1" relative="1" as="geometry">
            <mxPoint x="-63" y="215" as="offset" />
          </mxGeometry>
        </mxCell>
        <mxCell id="5bwQRYV1WhAvEmAQBHhe-1" value="" style="group" vertex="1" connectable="0" parent="1">
          <mxGeometry x="95" y="510" width="140" height="30" as="geometry" />
        </mxCell>
        <mxCell id="5bwQRYV1WhAvEmAQBHhe-2" value="" style="html=1;dashed=0;whitespace=wrap;shape=mxgraph.dfd.dataStoreID;align=left;spacingLeft=3;points=[[0,0],[0.5,0],[1,0],[0,0.5],[1,0.5],[0,1],[0.5,1],[1,1]];fontSize=17;" vertex="1" parent="5bwQRYV1WhAvEmAQBHhe-1">
          <mxGeometry width="140" height="30" as="geometry" />
        </mxCell>
        <mxCell id="5bwQRYV1WhAvEmAQBHhe-3" value="TournamentDB" style="text;html=1;strokeColor=none;fillColor=none;align=center;verticalAlign=middle;whiteSpace=wrap;rounded=0;fontSize=17;" vertex="1" parent="5bwQRYV1WhAvEmAQBHhe-1">
          <mxGeometry x="42" width="98" height="30" as="geometry" />
        </mxCell>
        <mxCell id="5bwQRYV1WhAvEmAQBHhe-4" value="" style="group" vertex="1" connectable="0" parent="1">
          <mxGeometry x="365" y="420" width="115" height="80" as="geometry" />
        </mxCell>
        <mxCell id="5bwQRYV1WhAvEmAQBHhe-5" value="" style="group" vertex="1" connectable="0" parent="5bwQRYV1WhAvEmAQBHhe-4">
          <mxGeometry width="115" height="80" as="geometry" />
        </mxCell>
        <mxCell id="5bwQRYV1WhAvEmAQBHhe-6" value="&lt;div&gt;Get Karaoke Result&lt;/div&gt;" style="rounded=1;whiteSpace=wrap;html=1;fontSize=17;" vertex="1" parent="5bwQRYV1WhAvEmAQBHhe-5">
          <mxGeometry width="115" height="80" as="geometry" />
        </mxCell>
        <mxCell id="5bwQRYV1WhAvEmAQBHhe-7" value="3.8" style="text;html=1;strokeColor=none;fillColor=none;align=center;verticalAlign=middle;whiteSpace=wrap;rounded=0;fontSize=17;" vertex="1" parent="5bwQRYV1WhAvEmAQBHhe-5">
          <mxGeometry x="32.857142857142854" width="41.07142857142857" height="22.85714285714285" as="geometry" />
        </mxCell>
        <mxCell id="5bwQRYV1WhAvEmAQBHhe-8" value="" style="endArrow=none;html=1;rounded=0;fontSize=17;exitX=0;exitY=0.25;exitDx=0;exitDy=0;entryX=1;entryY=0.25;entryDx=0;entryDy=0;" edge="1" parent="5bwQRYV1WhAvEmAQBHhe-4">
          <mxGeometry width="50" height="50" relative="1" as="geometry">
            <mxPoint y="18.00285714285714" as="sourcePoint" />
            <mxPoint x="115" y="18.00285714285714" as="targetPoint" />
          </mxGeometry>
        </mxCell>
        <mxCell id="5bwQRYV1WhAvEmAQBHhe-9" style="edgeStyle=orthogonalEdgeStyle;rounded=0;orthogonalLoop=1;jettySize=auto;html=1;exitX=0.397;exitY=-0.011;exitDx=0;exitDy=0;entryX=1;entryY=0.75;entryDx=0;entryDy=0;exitPerimeter=0;" edge="1" parent="1" source="_3rkqLgLoKq9hYsogS8q-13" target="5bwQRYV1WhAvEmAQBHhe-6">
          <mxGeometry relative="1" as="geometry">
            <mxPoint x="646.46" y="555" as="sourcePoint" />
            <mxPoint x="419.96000000000004" y="568.3500000000001" as="targetPoint" />
            <Array as="points">
              <mxPoint x="684" y="500" />
              <mxPoint x="545" y="500" />
              <mxPoint x="545" y="480" />
            </Array>
          </mxGeometry>
        </mxCell>
        <mxCell id="5bwQRYV1WhAvEmAQBHhe-10" value="request result" style="edgeLabel;html=1;align=center;verticalAlign=middle;resizable=0;points=[];" vertex="1" connectable="0" parent="5bwQRYV1WhAvEmAQBHhe-9">
          <mxGeometry x="-0.016" relative="1" as="geometry">
            <mxPoint x="-34" y="-10" as="offset" />
          </mxGeometry>
        </mxCell>
        <mxCell id="5bwQRYV1WhAvEmAQBHhe-11" value="" style="group" vertex="1" connectable="0" parent="1">
          <mxGeometry x="95" y="450" width="130" height="40" as="geometry" />
        </mxCell>
        <mxCell id="5bwQRYV1WhAvEmAQBHhe-12" value="" style="html=1;dashed=0;whitespace=wrap;shape=mxgraph.dfd.dataStoreID;align=left;spacingLeft=3;points=[[0,0],[0.5,0],[1,0],[0,0.5],[1,0.5],[0,1],[0.5,1],[1,1]];fontSize=17;" vertex="1" parent="5bwQRYV1WhAvEmAQBHhe-11">
          <mxGeometry width="130.00000000000003" height="40" as="geometry" />
        </mxCell>
        <mxCell id="5bwQRYV1WhAvEmAQBHhe-13" value="Recorded Audio DB" style="text;html=1;strokeColor=none;fillColor=none;align=center;verticalAlign=middle;whiteSpace=wrap;rounded=0;fontSize=17;" vertex="1" parent="5bwQRYV1WhAvEmAQBHhe-11">
          <mxGeometry x="39" width="91" height="40" as="geometry" />
        </mxCell>
        <mxCell id="5bwQRYV1WhAvEmAQBHhe-14" style="edgeStyle=orthogonalEdgeStyle;rounded=0;orthogonalLoop=1;jettySize=auto;html=1;exitX=1;exitY=0.25;exitDx=0;exitDy=0;entryX=0;entryY=0.5;entryDx=0;entryDy=0;" edge="1" parent="1" source="5bwQRYV1WhAvEmAQBHhe-13" target="5bwQRYV1WhAvEmAQBHhe-6">
          <mxGeometry relative="1" as="geometry">
            <mxPoint x="387.8800000000001" y="513.04" as="sourcePoint" />
            <mxPoint x="383.96000000000026" y="570" as="targetPoint" />
          </mxGeometry>
        </mxCell>
        <mxCell id="5bwQRYV1WhAvEmAQBHhe-15" value="recorded audio" style="edgeLabel;html=1;align=center;verticalAlign=middle;resizable=0;points=[];" vertex="1" connectable="0" parent="5bwQRYV1WhAvEmAQBHhe-14">
          <mxGeometry x="-0.016" relative="1" as="geometry">
            <mxPoint x="-16" as="offset" />
          </mxGeometry>
        </mxCell>
        <mxCell id="5bwQRYV1WhAvEmAQBHhe-16" value="" style="group" vertex="1" connectable="0" parent="1">
          <mxGeometry x="155" y="590" width="115" height="80" as="geometry" />
        </mxCell>
        <mxCell id="5bwQRYV1WhAvEmAQBHhe-17" value="" style="group" vertex="1" connectable="0" parent="5bwQRYV1WhAvEmAQBHhe-16">
          <mxGeometry width="115" height="80" as="geometry" />
        </mxCell>
        <mxCell id="5bwQRYV1WhAvEmAQBHhe-18" value="&lt;div&gt;&lt;font style=&quot;font-size: 15px ; line-height: 0.8&quot;&gt;&lt;br&gt;&lt;/font&gt;&lt;/div&gt;&lt;div&gt;&lt;font style=&quot;font-size: 15px ; line-height: 0.8&quot;&gt;Save Tournament History&lt;/font&gt;&lt;/div&gt;" style="rounded=1;whiteSpace=wrap;html=1;fontSize=17;" vertex="1" parent="5bwQRYV1WhAvEmAQBHhe-17">
          <mxGeometry width="115" height="80" as="geometry" />
        </mxCell>
        <mxCell id="5bwQRYV1WhAvEmAQBHhe-19" value="3.9" style="text;html=1;strokeColor=none;fillColor=none;align=center;verticalAlign=middle;whiteSpace=wrap;rounded=0;fontSize=17;" vertex="1" parent="5bwQRYV1WhAvEmAQBHhe-17">
          <mxGeometry x="32.857142857142854" width="41.07142857142857" height="22.85714285714285" as="geometry" />
        </mxCell>
        <mxCell id="5bwQRYV1WhAvEmAQBHhe-20" value="" style="endArrow=none;html=1;rounded=0;fontSize=17;exitX=0;exitY=0.25;exitDx=0;exitDy=0;entryX=1;entryY=0.25;entryDx=0;entryDy=0;" edge="1" parent="5bwQRYV1WhAvEmAQBHhe-16">
          <mxGeometry width="50" height="50" relative="1" as="geometry">
            <mxPoint y="18.00285714285714" as="sourcePoint" />
            <mxPoint x="115" y="18.00285714285714" as="targetPoint" />
          </mxGeometry>
        </mxCell>
        <mxCell id="5bwQRYV1WhAvEmAQBHhe-21" style="edgeStyle=orthogonalEdgeStyle;rounded=0;orthogonalLoop=1;jettySize=auto;html=1;exitX=-0.004;exitY=0.671;exitDx=0;exitDy=0;exitPerimeter=0;" edge="1" parent="1" source="5bwQRYV1WhAvEmAQBHhe-18">
          <mxGeometry relative="1" as="geometry">
            <mxPoint x="198.59000000000012" y="617.61" as="sourcePoint" />
            <mxPoint x="115" y="540" as="targetPoint" />
          </mxGeometry>
        </mxCell>
        <mxCell id="5bwQRYV1WhAvEmAQBHhe-22" value="tournament result" style="edgeLabel;html=1;align=center;verticalAlign=middle;resizable=0;points=[];rotation=90;" vertex="1" connectable="0" parent="5bwQRYV1WhAvEmAQBHhe-21">
          <mxGeometry x="-0.016" relative="1" as="geometry">
            <mxPoint y="-11" as="offset" />
          </mxGeometry>
        </mxCell>
        <mxCell id="FijhGT3lUhJ2SekqiAkc-10" style="edgeStyle=orthogonalEdgeStyle;rounded=0;orthogonalLoop=1;jettySize=auto;html=1;entryX=0.75;entryY=0;entryDx=0;entryDy=0;" edge="1" parent="1" source="_3rkqLgLoKq9hYsogS8q-8" target="5bwQRYV1WhAvEmAQBHhe-7">
          <mxGeometry relative="1" as="geometry">
            <mxPoint x="694.0999999999999" y="519.23" as="sourcePoint" />
            <mxPoint x="490" y="490" as="targetPoint" />
          </mxGeometry>
        </mxCell>
        <mxCell id="FijhGT3lUhJ2SekqiAkc-11" value="request result" style="edgeLabel;html=1;align=center;verticalAlign=middle;resizable=0;points=[];" vertex="1" connectable="0" parent="FijhGT3lUhJ2SekqiAkc-10">
          <mxGeometry x="-0.016" relative="1" as="geometry">
            <mxPoint x="73" as="offset" />
          </mxGeometry>
        </mxCell>
        <mxCell id="iD_N0N7yoygVmJ8K9ZuA-1" value="" style="group" vertex="1" connectable="0" parent="1">
          <mxGeometry x="220" y="270" width="110" height="70" as="geometry" />
        </mxCell>
        <mxCell id="iD_N0N7yoygVmJ8K9ZuA-2" value="" style="group" vertex="1" connectable="0" parent="iD_N0N7yoygVmJ8K9ZuA-1">
          <mxGeometry width="110" height="70" as="geometry" />
        </mxCell>
        <mxCell id="iD_N0N7yoygVmJ8K9ZuA-3" value="&lt;div&gt;&lt;font style=&quot;font-size: 15px ; line-height: 0.8&quot;&gt;&lt;br&gt;&lt;/font&gt;&lt;/div&gt;&lt;div&gt;&lt;font style=&quot;font-size: 15px ; line-height: 0.8&quot;&gt;Save Chellenge History&lt;/font&gt;&lt;/div&gt;" style="rounded=1;whiteSpace=wrap;html=1;fontSize=17;" vertex="1" parent="iD_N0N7yoygVmJ8K9ZuA-2">
          <mxGeometry width="110" height="70" as="geometry" />
        </mxCell>
        <mxCell id="iD_N0N7yoygVmJ8K9ZuA-4" value="3.10" style="text;html=1;strokeColor=none;fillColor=none;align=center;verticalAlign=middle;whiteSpace=wrap;rounded=0;fontSize=17;" vertex="1" parent="iD_N0N7yoygVmJ8K9ZuA-2">
          <mxGeometry x="31.428571428571427" width="39.285714285714285" height="19.999999999999993" as="geometry" />
        </mxCell>
        <mxCell id="iD_N0N7yoygVmJ8K9ZuA-5" value="" style="endArrow=none;html=1;rounded=0;fontSize=17;exitX=0;exitY=0.25;exitDx=0;exitDy=0;entryX=1;entryY=0.25;entryDx=0;entryDy=0;" edge="1" parent="iD_N0N7yoygVmJ8K9ZuA-1">
          <mxGeometry width="50" height="50" relative="1" as="geometry">
            <mxPoint y="15.752499999999996" as="sourcePoint" />
            <mxPoint x="110" y="15.752499999999996" as="targetPoint" />
          </mxGeometry>
        </mxCell>
        <mxCell id="iD_N0N7yoygVmJ8K9ZuA-6" value="" style="group" vertex="1" connectable="0" parent="1">
          <mxGeometry x="40" y="200" width="140" height="30" as="geometry" />
        </mxCell>
        <mxCell id="iD_N0N7yoygVmJ8K9ZuA-7" value="" style="html=1;dashed=0;whitespace=wrap;shape=mxgraph.dfd.dataStoreID;align=left;spacingLeft=3;points=[[0,0],[0.5,0],[1,0],[0,0.5],[1,0.5],[0,1],[0.5,1],[1,1]];fontSize=17;" vertex="1" parent="iD_N0N7yoygVmJ8K9ZuA-6">
          <mxGeometry width="140" height="30" as="geometry" />
        </mxCell>
        <mxCell id="iD_N0N7yoygVmJ8K9ZuA-8" value="ChellengeDB" style="text;html=1;strokeColor=none;fillColor=none;align=center;verticalAlign=middle;whiteSpace=wrap;rounded=0;fontSize=17;" vertex="1" parent="iD_N0N7yoygVmJ8K9ZuA-6">
          <mxGeometry x="42" width="98" height="30" as="geometry" />
        </mxCell>
        <mxCell id="iD_N0N7yoygVmJ8K9ZuA-9" style="edgeStyle=orthogonalEdgeStyle;rounded=0;orthogonalLoop=1;jettySize=auto;html=1;entryX=1;entryY=0.5;entryDx=0;entryDy=0;exitX=0.182;exitY=0;exitDx=0;exitDy=0;exitPerimeter=0;" edge="1" parent="1" source="iD_N0N7yoygVmJ8K9ZuA-3" target="iD_N0N7yoygVmJ8K9ZuA-8">
          <mxGeometry relative="1" as="geometry">
            <mxPoint x="419" y="220" as="sourcePoint" />
            <mxPoint x="418.70000000000005" y="152.80000000000007" as="targetPoint" />
          </mxGeometry>
        </mxCell>
        <mxCell id="iD_N0N7yoygVmJ8K9ZuA-10" value="challenge result" style="edgeLabel;html=1;align=center;verticalAlign=middle;resizable=0;points=[];rotation=0;" vertex="1" connectable="0" parent="iD_N0N7yoygVmJ8K9ZuA-9">
          <mxGeometry x="-0.085" relative="1" as="geometry">
            <mxPoint x="-15" y="23" as="offset" />
          </mxGeometry>
        </mxCell>
        <mxCell id="9o34GyeqXQ1Cm3QzUo0N-1" style="edgeStyle=orthogonalEdgeStyle;rounded=0;orthogonalLoop=1;jettySize=auto;html=1;entryX=0.913;entryY=0;entryDx=0;entryDy=0;exitX=0.23;exitY=1.034;exitDx=0;exitDy=0;exitPerimeter=0;entryPerimeter=0;" edge="1" parent="1" source="_3rkqLgLoKq9hYsogS8q-3" target="5bwQRYV1WhAvEmAQBHhe-6">
          <mxGeometry relative="1" as="geometry">
            <mxPoint x="616.34" y="95" as="sourcePoint" />
            <mxPoint x="400.00071428571425" y="200" as="targetPoint" />
            <Array as="points">
              <mxPoint x="663" y="80" />
              <mxPoint x="470" y="80" />
            </Array>
          </mxGeometry>
        </mxCell>
        <mxCell id="9o34GyeqXQ1Cm3QzUo0N-2" value="request&lt;br&gt;result" style="edgeLabel;html=1;align=center;verticalAlign=middle;resizable=0;points=[];" vertex="1" connectable="0" parent="9o34GyeqXQ1Cm3QzUo0N-1">
          <mxGeometry x="-0.016" relative="1" as="geometry">
            <mxPoint y="35" as="offset" />
          </mxGeometry>
        </mxCell>
        <mxCell id="9o34GyeqXQ1Cm3QzUo0N-3" value="" style="group" vertex="1" connectable="0" parent="1">
          <mxGeometry x="40" y="130" width="140" height="30" as="geometry" />
        </mxCell>
        <mxCell id="9o34GyeqXQ1Cm3QzUo0N-4" value="" style="html=1;dashed=0;whitespace=wrap;shape=mxgraph.dfd.dataStoreID;align=left;spacingLeft=3;points=[[0,0],[0.5,0],[1,0],[0,0.5],[1,0.5],[0,1],[0.5,1],[1,1]];fontSize=17;" vertex="1" parent="9o34GyeqXQ1Cm3QzUo0N-3">
          <mxGeometry width="140" height="30" as="geometry" />
        </mxCell>
        <mxCell id="9o34GyeqXQ1Cm3QzUo0N-5" value="SoloKaraokeDB" style="text;html=1;strokeColor=none;fillColor=none;align=center;verticalAlign=middle;whiteSpace=wrap;rounded=0;fontSize=17;" vertex="1" parent="9o34GyeqXQ1Cm3QzUo0N-3">
          <mxGeometry x="42" width="98" height="30" as="geometry" />
        </mxCell>
        <mxCell id="9o34GyeqXQ1Cm3QzUo0N-6" style="edgeStyle=orthogonalEdgeStyle;rounded=0;orthogonalLoop=1;jettySize=auto;html=1;exitX=1.005;exitY=0.065;exitDx=0;exitDy=0;exitPerimeter=0;entryX=1.016;entryY=0.303;entryDx=0;entryDy=0;entryPerimeter=0;" edge="1" parent="1" source="5bwQRYV1WhAvEmAQBHhe-6" target="9o34GyeqXQ1Cm3QzUo0N-10">
          <mxGeometry relative="1" as="geometry">
            <mxPoint x="387.8799999999999" y="513.04" as="sourcePoint" />
            <mxPoint x="383.96000000000004" y="570" as="targetPoint" />
            <Array as="points">
              <mxPoint x="500" y="425" />
              <mxPoint x="500" y="131" />
              <mxPoint x="352" y="131" />
            </Array>
          </mxGeometry>
        </mxCell>
        <mxCell id="9o34GyeqXQ1Cm3QzUo0N-7" value="karaoke result" style="edgeLabel;html=1;align=center;verticalAlign=middle;resizable=0;points=[];" vertex="1" connectable="0" parent="9o34GyeqXQ1Cm3QzUo0N-6">
          <mxGeometry x="-0.016" relative="1" as="geometry">
            <mxPoint x="-70" y="-87" as="offset" />
          </mxGeometry>
        </mxCell>
        <mxCell id="9o34GyeqXQ1Cm3QzUo0N-8" value="" style="group" vertex="1" connectable="0" parent="1">
          <mxGeometry x="240" y="110" width="110" height="70" as="geometry" />
        </mxCell>
        <mxCell id="9o34GyeqXQ1Cm3QzUo0N-9" value="" style="group" vertex="1" connectable="0" parent="9o34GyeqXQ1Cm3QzUo0N-8">
          <mxGeometry width="110" height="70" as="geometry" />
        </mxCell>
        <mxCell id="9o34GyeqXQ1Cm3QzUo0N-10" value="&lt;div&gt;&lt;font style=&quot;font-size: 15px ; line-height: 0.8&quot;&gt;&lt;br&gt;&lt;/font&gt;&lt;/div&gt;&lt;div&gt;&lt;font style=&quot;font-size: 15px ; line-height: 0.8&quot;&gt;Save Solo Karaoke History&lt;/font&gt;&lt;/div&gt;" style="rounded=1;whiteSpace=wrap;html=1;fontSize=17;" vertex="1" parent="9o34GyeqXQ1Cm3QzUo0N-9">
          <mxGeometry width="110" height="70" as="geometry" />
        </mxCell>
        <mxCell id="9o34GyeqXQ1Cm3QzUo0N-11" value="3.11" style="text;html=1;strokeColor=none;fillColor=none;align=center;verticalAlign=middle;whiteSpace=wrap;rounded=0;fontSize=17;" vertex="1" parent="9o34GyeqXQ1Cm3QzUo0N-9">
          <mxGeometry x="31.428571428571427" width="39.285714285714285" height="19.999999999999993" as="geometry" />
        </mxCell>
        <mxCell id="9o34GyeqXQ1Cm3QzUo0N-12" value="" style="endArrow=none;html=1;rounded=0;fontSize=17;exitX=0;exitY=0.25;exitDx=0;exitDy=0;entryX=1;entryY=0.25;entryDx=0;entryDy=0;" edge="1" parent="9o34GyeqXQ1Cm3QzUo0N-8">
          <mxGeometry width="50" height="50" relative="1" as="geometry">
            <mxPoint y="15.752499999999996" as="sourcePoint" />
            <mxPoint x="110" y="15.752499999999996" as="targetPoint" />
          </mxGeometry>
        </mxCell>
        <mxCell id="9o34GyeqXQ1Cm3QzUo0N-13" style="edgeStyle=orthogonalEdgeStyle;rounded=0;orthogonalLoop=1;jettySize=auto;html=1;exitX=0.416;exitY=-0.006;exitDx=0;exitDy=0;exitPerimeter=0;entryX=0.388;entryY=0;entryDx=0;entryDy=0;entryPerimeter=0;" edge="1" parent="1" source="9o34GyeqXQ1Cm3QzUo0N-10" target="9o34GyeqXQ1Cm3QzUo0N-5">
          <mxGeometry relative="1" as="geometry">
            <mxPoint x="387.8799999999999" y="513.04" as="sourcePoint" />
            <mxPoint x="383.96000000000004" y="570" as="targetPoint" />
            <Array as="points">
              <mxPoint x="286" y="90" />
              <mxPoint x="120" y="90" />
            </Array>
          </mxGeometry>
        </mxCell>
        <mxCell id="9o34GyeqXQ1Cm3QzUo0N-14" value="karaoke result" style="edgeLabel;html=1;align=center;verticalAlign=middle;resizable=0;points=[];" vertex="1" connectable="0" parent="9o34GyeqXQ1Cm3QzUo0N-13">
          <mxGeometry x="-0.016" relative="1" as="geometry">
            <mxPoint x="-16" as="offset" />
          </mxGeometry>
        </mxCell>
        <mxCell id="9o34GyeqXQ1Cm3QzUo0N-15" value="User" style="rounded=0;whiteSpace=wrap;html=1;" vertex="1" parent="1">
          <mxGeometry x="342.5" y="10" width="60" height="30" as="geometry" />
        </mxCell>
        <mxCell id="jXyPSMWBydgmtqN8uv8C-1" value="Fig: Level 1 Diagram (Karaoke)" style="text;html=1;strokeColor=none;fillColor=none;align=center;verticalAlign=middle;whiteSpace=wrap;rounded=0;fontStyle=1;fontSize=17;" vertex="1" parent="1">
          <mxGeometry x="620" y="1057" width="220" height="30" as="geometry" />
        </mxCell>
      </root>
    </mxGraphModel>
  </diagram>
</mxfile>
